SplineFontDB: 1.0
FontName: DejaVuSans-Bold
FullName: DejaVu Sans Bold
FamilyName: DejaVu Sans
Weight: Bold
Copyright: Copyright (c) 2003 by Bitstream, Inc. All Rights Reserved.\nDejaVu changes are in public domain\n
Version: 1.10
ItalicAngle: 0
UnderlinePosition: -227
UnderlineWidth: 258
Ascent: 1556
Descent: 492
Order2: 1
NeedsXUIDChange: 1
FSType: 4
PfmFamily: 17
TTFWeight: 700
TTFWidth: 5
Panose: 2 11 8 3 3 6 4 2 2 4
LineGap: 410
VLineGap: 0
OS2TypoAscent: 1556
OS2TypoDescent: -492
OS2TypoLinegap: 0
OS2WinAscent: 1901
OS2WinAOffset: 0
OS2WinDescent: 483
OS2WinDOffset: 0
HheadAscent: 1901
HheadAOffset: 0
HheadDescent: -483
HheadDOffset: 0
ScriptLang: 2
 1 latn 1 dflt 
 1 DFLT 1 dflt 
TtfTable: prep 1959
6%f;i!@@gG!!<6J!"f25!@.[h!'1)`!@.[A!!<6H!#>P:!?qOf!'1)`!?qOC!!<6F!'1)^!?_C=
!!<6D!4r45!?M5O!!<6B!<)s#!?;(W!!<6@!$2+B!?(t;!!<6>!<)s#!>kh9!!<6<!<)s#!>Y\7
!!<6:!>GMD!!NB<!<)s#!>GMD!!<68!<)s#!>5D3!!<64!=f*X!!NB6!<)s#!=f*X!!<62!=Sse
!!NB4!<)s#!=]%E!!E<2!=Jm1!!NB3!/pm[!=SsY!!E<1!=AfR!!NB2!*K:(!=Jlm!!E<0!%%[J
!=8c*!!<6-!<)s#!=&T5!!<6,!.Y%P!=#ir/d4NS!<rQ#!!<6*!;ZZt!<`E%!!<6(!#Yb=!<N8t
!!<6&!;ZZt!<>CbI09L5"9/9%r;/#Kr;Hfq/-GbJ"8V^^"o3QKpdYG\q?-Hj"82Wqo_nsa]*%X'
"7c?mnGWOY*Wtj0"7>F^"mu9klj<j]5QpE<$3f`N"6p3ql1tMGOVS,arWD?["6TF^jcL;^jo,AC
rWD3["60:^iVir;rWD'W"5`kVh:rhNh.-WC(^&Nc*X1;/"5;ES"kreTfd-aQd3StKq?,@#'F!)(
"4l!6"kF@ieIVi4dgH?/+9U(#"4GRC"k*5Ld?,1Jd3SnAPRI`B,6Q9;'Euf0"4#.("jReabn:-&
OVS,E*<XJ!"3S`t"j6fHaiI`kah%YsJ-<qYs2QDhaB\nh5Qo+R"31<B`FK(hO:VT6rWC%X"2b$>
_>XPP^H)P6q?+L7)[3u;"2;Ge"hl_o]t=p\]c%!c]+5(X&HfYV$jF6R"1emC\WIX2\c)]@rWBVE
"1AgE[Jg98rWBM+"0r^FYo*YJ('CbB)[3GA"0SaF"g7\(XcXA&XW%ADOVS,%I06PL"0*[MWW!!u
rWB(t"/c&"V$[=#rWApi%L&X,"/68-U-JjTTH491q?*CQ('U?P".t\k"eYVnSs0WeSf@j'rWA[[
]*4`(".P`b"e3++Rt(X1O!Osu>m$N\"I]5kR$TE/R/R2S/d%E%('U!F5lUqOPRI_\+9Ri:"-\i_
"d;R]P*$L`P5YQGO:VSX('BX0"-4`1NrB-?rWA,Y",m-\MZ*^7rW@t3,mB,(",A0)LAh:/rW@g/
"+umAK)Pk'rW@Zg"+LX[If9FtrW@QI"+0kHHMR_hrW@@fV?M2C"*UODF`\Q+Fnu2^)Zt0X"*/el

StartChar: .notdef
Encoding: 0 -1 0
Width: 1229
Flags: W
Fore
102 -362 m 1,0,-1
 102 1444 l 1,1,-1
 1126 1444 l 1,2,-1
 1126 -362 l 1,3,-1
 102 -362 l 1,0,-1
217 -248 m 1,4,-1
 1012 -248 l 1,5,-1
 1012 1329 l 1,6,-1
 217 1329 l 1,7,-1
 217 -248 l 1,4,-1
EndSplineSet
EndChar
StartChar: exclam
Encoding: 33 33 4
Width: 934
Flags: W
Fore
287 1493 m 1,0,-1
 647 1493 l 1,1,-1
 647 920 l 1,2,-1
 596 502 l 1,3,-1
 338 502 l 1,4,-1
 287 920 l 1,5,-1
 287 1493 l 1,0,-1
287 356 m 1,6,-1
 647 356 l 1,7,-1
 647 0 l 1,8,-1
 287 0 l 1,9,-1
 287 356 l 1,6,-1
EndSplineSet
EndChar
StartChar: quotedbl
Encoding: 34 34 5
Width: 1067
Flags: W
Fore
872 1493 m 1,0,-1
 872 938 l 1,1,-1
 635 938 l 1,2,-1
 635 1493 l 1,3,-1
 872 1493 l 1,0,-1
432 1493 m 1,4,-1
 432 938 l 1,5,-1
 195 938 l 1,6,-1
 195 1493 l 1,7,-1
 432 1493 l 1,4,-1
EndSplineSet
EndChar
StartChar: numbersign
Encoding: 35 35 6
Width: 1716
Flags: W
Fore
911 1470 m 1,0,-1
 815 1085 l 1,1,-1
 1079 1085 l 1,2,-1
 1176 1470 l 1,3,-1
 1397 1470 l 1,4,-1
 1300 1085 l 1,5,-1
 1577 1085 l 1,6,-1
 1577 872 l 1,7,-1
 1247 872 l 1,8,-1
 1178 598 l 1,9,-1
 1462 598 l 1,10,-1
 1462 383 l 1,11,-1
 1126 383 l 1,12,-1
 1030 0 l 1,13,-1
 809 0 l 1,14,-1
 905 383 l 1,15,-1
 641 383 l 1,16,-1
 545 0 l 1,17,-1
 322 0 l 1,18,-1
 418 383 l 1,19,-1
 139 383 l 1,20,-1
 139 598 l 1,21,-1
 467 598 l 1,22,-1
 537 872 l 1,23,-1
 254 872 l 1,24,-1
 254 1085 l 1,25,-1
 592 1085 l 1,26,-1
 688 1470 l 1,27,-1
 911 1470 l 1,0,-1
1024 872 m 1,28,-1
 760 872 l 1,29,-1
 690 598 l 1,30,-1
 954 598 l 1,31,-1
 1024 872 l 1,28,-1
EndSplineSet
EndChar
StartChar: dollar
Encoding: 36 36 7
Width: 1425
Flags: W
Fore
795 -301 m 1,0,-1
 633 -301 l 1,1,-1
 632 0 l 1,2,3
 507 5 507 5 390 28 c 128,-1,4
 273 51 273 51 162 92 c 1,5,-1
 162 354 l 1,6,7
 277 295 277 295 394.5 263.5 c 128,-1,8
 512 232 512 232 633 228 c 1,9,-1
 633 539 l 1,10,-1
 600 545 l 2,11,12
 361 587 361 587 260.5 677 c 128,-1,13
 160 767 160 767 160 936 c 0,14,15
 160 1115 160 1115 282.5 1215.5 c 128,-1,16
 405 1316 405 1316 632 1325 c 1,17,-1
 633 1556 l 1,18,-1
 795 1556 l 1,19,-1
 795 1329 l 1,20,21
 895 1321 895 1321 995 1304 c 128,-1,22
 1095 1287 1095 1287 1196 1260 c 1,23,-1
 1196 1006 l 1,24,25
 1096 1048 1096 1048 996 1071.5 c 128,-1,26
 896 1095 896 1095 795 1100 c 1,27,-1
 795 813 l 1,28,-1
 827 807 l 2,29,30
 1081 767 1081 767 1183.5 673.5 c 128,-1,31
 1286 580 1286 580 1286 397 c 0,32,33
 1286 213 1286 213 1164 114.5 c 128,-1,34
 1042 16 1042 16 795 2 c 1,35,-1
 795 -301 l 1,0,-1
633 836 m 1,36,-1
 633 1097 l 1,37,38
 562 1093 562 1093 519.5 1058.5 c 128,-1,39
 477 1024 477 1024 477 971 c 0,40,41
 477 912 477 912 516 878.5 c 128,-1,42
 555 845 555 845 633 836 c 1,36,-1
795 510 m 1,43,-1
 795 232 l 1,44,45
 882 233 882 233 925.5 266 c 128,-1,46
 969 299 969 299 969 365 c 0,47,48
 969 433 969 433 929 466.5 c 128,-1,49
 889 500 889 500 795 510 c 1,43,-1
EndSplineSet
EndChar
StartChar: percent
Encoding: 37 37 8
Width: 2052
Flags: W
Fore
1587 616 m 0,0,1
 1516 616 1516 616 1477 554.5 c 128,-1,2
 1438 493 1438 493 1438 379 c 0,3,4
 1438 264 1438 264 1476.5 202.5 c 128,-1,5
 1515 141 1515 141 1587 141 c 0,6,7
 1659 141 1659 141 1697 202.5 c 128,-1,8
 1735 264 1735 264 1735 379 c 0,9,10
 1735 493 1735 493 1696.5 554.5 c 128,-1,11
 1658 616 1658 616 1587 616 c 0,0,1
1587 784 m 0,12,13
 1773 784 1773 784 1880 676 c 128,-1,14
 1987 568 1987 568 1987 379 c 0,15,16
 1987 190 1987 190 1880 80.5 c 128,-1,17
 1773 -29 1773 -29 1587 -29 c 0,18,19
 1401 -29 1401 -29 1293.5 80.5 c 128,-1,20
 1186 190 1186 190 1186 379 c 0,21,22
 1186 567 1186 567 1293.5 675.5 c 128,-1,23
 1401 784 1401 784 1587 784 c 0,12,13
670 -29 m 1,24,-1
 449 -29 l 1,25,-1
 1382 1520 l 1,26,-1
 1604 1520 l 1,27,-1
 670 -29 l 1,24,-1
465 1520 m 0,28,29
 651 1520 651 1520 757.5 1411.5 c 128,-1,30
 864 1303 864 1303 864 1114 c 0,31,32
 864 925 864 925 757.5 816 c 128,-1,33
 651 707 651 707 465 707 c 0,34,35
 279 707 279 707 172.5 816 c 128,-1,36
 66 925 66 925 66 1114 c 0,37,38
 66 1303 66 1303 172.5 1411.5 c 128,-1,39
 279 1520 279 1520 465 1520 c 0,28,29
465 1352 m 0,40,41
 393 1352 393 1352 354 1290 c 128,-1,42
 315 1228 315 1228 315 1114 c 0,43,44
 315 999 315 999 354 936.5 c 128,-1,45
 393 874 393 874 465 874 c 0,46,47
 537 874 537 874 575.5 936.5 c 128,-1,48
 614 999 614 999 614 1114 c 0,49,50
 614 1228 614 1228 575 1290 c 128,-1,51
 536 1352 536 1352 465 1352 c 0,40,41
EndSplineSet
EndChar
StartChar: ampersand
Encoding: 38 38 9
Width: 1786
Flags: W
Fore
799 991 m 2,0,-1
 1208 541 l 1,1,2
 1261 611 1261 611 1288.5 698 c 128,-1,3
 1316 785 1316 785 1321 895 c 1,4,-1
 1632 895 l 1,5,6
 1617 713 1617 713 1561.5 571 c 128,-1,7
 1506 429 1506 429 1407 322 c 1,8,-1
 1700 0 l 1,9,-1
 1276 0 l 1,10,-1
 1178 109 l 1,11,12
 1073 39 1073 39 957 5 c 128,-1,13
 841 -29 841 -29 711 -29 c 0,14,15
 448 -29 448 -29 285.5 109.5 c 128,-1,16
 123 248 123 248 123 467 c 0,17,18
 123 613 123 613 194.5 725.5 c 128,-1,19
 266 838 266 838 428 944 c 1,20,21
 386 997 386 997 366 1050 c 128,-1,22
 346 1103 346 1103 346 1161 c 0,23,24
 346 1324 346 1324 473 1422 c 128,-1,25
 600 1520 600 1520 811 1520 c 0,26,27
 902 1520 902 1520 1000.5 1505.5 c 128,-1,28
 1099 1491 1099 1491 1206 1462 c 1,29,-1
 1206 1184 l 1,30,31
 1112 1232 1112 1232 1028 1255 c 128,-1,32
 944 1278 944 1278 864 1278 c 0,33,34
 787 1278 787 1278 744.5 1248.5 c 128,-1,35
 702 1219 702 1219 702 1165 c 0,36,37
 702 1131 702 1131 726.5 1087.5 c 128,-1,38
 751 1044 751 1044 799 991 c 2,0,-1
600 743 m 1,39,40
 535 696 535 696 502 636.5 c 128,-1,41
 469 577 469 577 469 506 c 0,42,43
 469 391 469 391 554 310 c 128,-1,44
 639 229 639 229 758 229 c 0,45,46
 825 229 825 229 883 249.5 c 128,-1,47
 941 270 941 270 991 311 c 1,48,-1
 600 743 l 1,39,40
EndSplineSet
EndChar
StartChar: quotesingle
Encoding: 39 39 10
Width: 627
Flags: W
Fore
432 1493 m 1,0,-1
 432 938 l 1,1,-1
 195 938 l 1,2,-1
 195 1493 l 1,3,-1
 432 1493 l 1,0,-1
EndSplineSet
EndChar
StartChar: parenleft
Encoding: 40 40 11
Width: 936
Flags: W
Fore
772 -270 m 1,0,-1
 475 -270 l 1,1,2
 322 -23 322 -23 249 199.5 c 128,-1,3
 176 422 176 422 176 641 c 0,4,5
 176 860 176 860 249.5 1084.5 c 128,-1,6
 323 1309 323 1309 475 1554 c 1,7,-1
 772 1554 l 1,8,9
 644 1317 644 1317 580 1090.5 c 128,-1,10
 516 864 516 864 516 643 c 0,11,12
 516 422 516 422 579.5 195 c 128,-1,13
 643 -32 643 -32 772 -270 c 1,0,-1
EndSplineSet
EndChar
StartChar: parenright
Encoding: 41 41 12
Width: 936
Flags: W
Fore
164 -270 m 1,0,1
 292 -32 292 -32 356 195 c 128,-1,2
 420 422 420 422 420 643 c 0,3,4
 420 864 420 864 356 1090.5 c 128,-1,5
 292 1317 292 1317 164 1554 c 1,6,-1
 461 1554 l 1,7,8
 613 1309 613 1309 686.5 1084.5 c 128,-1,9
 760 860 760 860 760 641 c 0,10,11
 760 422 760 422 687 199.5 c 128,-1,12
 614 -23 614 -23 461 -270 c 1,13,-1
 164 -270 l 1,0,1
EndSplineSet
EndChar
StartChar: asterisk
Encoding: 42 42 13
Width: 1071
Flags: W
Fore
1030 1217 m 1,0,-1
 700 1044 l 1,1,-1
 1030 870 l 1,2,-1
 954 729 l 1,3,-1
 621 913 l 1,4,-1
 621 569 l 1,5,-1
 451 569 l 1,6,-1
 451 913 l 1,7,-1
 117 729 l 1,8,-1
 41 870 l 1,9,-1
 375 1044 l 1,10,-1
 41 1217 l 1,11,-1
 117 1358 l 1,12,-1
 451 1176 l 1,13,-1
 451 1520 l 1,14,-1
 621 1520 l 1,15,-1
 621 1176 l 1,16,-1
 954 1358 l 1,17,-1
 1030 1217 l 1,0,-1
EndSplineSet
EndChar
StartChar: plus
Encoding: 43 43 14
Width: 1716
Flags: W
Fore
977 1284 m 1,0,-1
 977 760 l 1,1,-1
 1499 760 l 1,2,-1
 1499 524 l 1,3,-1
 977 524 l 1,4,-1
 977 0 l 1,5,-1
 739 0 l 1,6,-1
 739 524 l 1,7,-1
 217 524 l 1,8,-1
 217 760 l 1,9,-1
 739 760 l 1,10,-1
 739 1284 l 1,11,-1
 977 1284 l 1,0,-1
EndSplineSet
EndChar
StartChar: comma
Encoding: 44 44 15
Width: 778
Flags: W
Fore
209 387 m 1,0,-1
 569 387 l 1,1,-1
 569 82 l 1,2,-1
 322 -291 l 1,3,-1
 109 -291 l 1,4,-1
 209 82 l 1,5,-1
 209 387 l 1,0,-1
EndSplineSet
EndChar
StartChar: hyphen
Encoding: 45 45 16
Width: 850
Flags: W
Fore
111 735 m 1,0,-1
 739 735 l 1,1,-1
 739 444 l 1,2,-1
 111 444 l 1,3,-1
 111 735 l 1,0,-1
EndSplineSet
KernsSLIF: 356 -301 0 0 221 -301 0 0 376 -301 0 0 89 -301 0 0 88 -167 0 0 87 -92 0 0 86 -149 0 0 84 -301 0 0
EndChar
StartChar: period
Encoding: 46 46 17
Width: 778
Flags: W
Fore
209 387 m 1,0,-1
 569 387 l 1,1,-1
 569 0 l 1,2,-1
 209 0 l 1,3,-1
 209 387 l 1,0,-1
EndSplineSet
EndChar
StartChar: slash
Encoding: 47 47 18
Width: 748
Flags: W
Fore
526 1493 m 1,0,-1
 748 1493 l 1,1,-1
 221 -190 l 1,2,-1
 0 -190 l 1,3,-1
 526 1493 l 1,0,-1
EndSplineSet
EndChar
StartChar: zero
Encoding: 48 48 19
Width: 1425
Flags: W
Fore
942 748 m 0,0,1
 942 1028 942 1028 889.5 1142.5 c 128,-1,2
 837 1257 837 1257 713 1257 c 0,3,4
 589 1257 589 1257 536 1142.5 c 128,-1,5
 483 1028 483 1028 483 748 c 0,6,7
 483 465 483 465 536 349 c 128,-1,8
 589 233 589 233 713 233 c 0,9,10
 836 233 836 233 889 349 c 128,-1,11
 942 465 942 465 942 748 c 0,0,1
1327 745 m 0,12,13
 1327 374 1327 374 1167 172.5 c 128,-1,14
 1007 -29 1007 -29 713 -29 c 0,15,16
 418 -29 418 -29 258 172.5 c 128,-1,17
 98 374 98 374 98 745 c 0,18,19
 98 1117 98 1117 258 1318.5 c 128,-1,20
 418 1520 418 1520 713 1520 c 0,21,22
 1007 1520 1007 1520 1167 1318.5 c 128,-1,23
 1327 1117 1327 1117 1327 745 c 0,12,13
EndSplineSet
EndChar
StartChar: one
Encoding: 49 49 20
Width: 1425
Flags: W
Fore
240 266 m 1,0,-1
 580 266 l 1,1,-1
 580 1231 l 1,2,-1
 231 1159 l 1,3,-1
 231 1421 l 1,4,-1
 578 1493 l 1,5,-1
 944 1493 l 1,6,-1
 944 266 l 1,7,-1
 1284 266 l 1,8,-1
 1284 0 l 1,9,-1
 240 0 l 1,10,-1
 240 266 l 1,0,-1
EndSplineSet
EndChar
StartChar: two
Encoding: 50 50 21
Width: 1425
Flags: W
Fore
590 283 m 1,0,-1
 1247 283 l 1,1,-1
 1247 0 l 1,2,-1
 162 0 l 1,3,-1
 162 283 l 1,4,-1
 707 764 l 1,5,6
 780 830 780 830 815 893 c 128,-1,7
 850 956 850 956 850 1024 c 0,8,9
 850 1129 850 1129 779.5 1193 c 128,-1,10
 709 1257 709 1257 592 1257 c 0,11,12
 502 1257 502 1257 395 1218.5 c 128,-1,13
 288 1180 288 1180 166 1104 c 1,14,-1
 166 1432 l 1,15,16
 296 1475 296 1475 423 1497.5 c 128,-1,17
 550 1520 550 1520 672 1520 c 0,18,19
 940 1520 940 1520 1088.5 1402 c 128,-1,20
 1237 1284 1237 1284 1237 1073 c 0,21,22
 1237 951 1237 951 1174 845.5 c 128,-1,23
 1111 740 1111 740 909 563 c 2,24,-1
 590 283 l 1,0,-1
EndSplineSet
EndChar
StartChar: three
Encoding: 51 51 22
Width: 1425
Flags: W
Fore
954 805 m 1,0,1
 1105 766 1105 766 1183.5 669.5 c 128,-1,2
 1262 573 1262 573 1262 424 c 0,3,4
 1262 202 1262 202 1092 86.5 c 128,-1,5
 922 -29 922 -29 596 -29 c 0,6,7
 481 -29 481 -29 365.5 -10.5 c 128,-1,8
 250 8 250 8 137 45 c 1,9,-1
 137 342 l 1,10,11
 245 288 245 288 351.5 260.5 c 128,-1,12
 458 233 458 233 561 233 c 0,13,14
 714 233 714 233 795.5 286 c 128,-1,15
 877 339 877 339 877 438 c 0,16,17
 877 540 877 540 793.5 592.5 c 128,-1,18
 710 645 710 645 547 645 c 2,19,-1
 393 645 l 1,20,-1
 393 893 l 1,21,-1
 555 893 l 2,22,23
 700 893 700 893 771 938.5 c 128,-1,24
 842 984 842 984 842 1077 c 0,25,26
 842 1163 842 1163 773 1210 c 128,-1,27
 704 1257 704 1257 578 1257 c 0,28,29
 485 1257 485 1257 390 1236 c 128,-1,30
 295 1215 295 1215 201 1174 c 1,31,-1
 201 1456 l 1,32,33
 315 1488 315 1488 427 1504 c 128,-1,34
 539 1520 539 1520 647 1520 c 0,35,36
 938 1520 938 1520 1082.5 1424.5 c 128,-1,37
 1227 1329 1227 1329 1227 1137 c 0,38,39
 1227 1006 1227 1006 1158 922.5 c 128,-1,40
 1089 839 1089 839 954 805 c 1,0,1
EndSplineSet
EndChar
StartChar: four
Encoding: 52 52 23
Width: 1425
Flags: W
Fore
754 1176 m 1,0,-1
 332 551 l 1,1,-1
 754 551 l 1,2,-1
 754 1176 l 1,0,-1
690 1493 m 1,3,-1
 1118 1493 l 1,4,-1
 1118 551 l 1,5,-1
 1331 551 l 1,6,-1
 1331 272 l 1,7,-1
 1118 272 l 1,8,-1
 1118 0 l 1,9,-1
 754 0 l 1,10,-1
 754 272 l 1,11,-1
 92 272 l 1,12,-1
 92 602 l 1,13,-1
 690 1493 l 1,3,-1
EndSplineSet
EndChar
StartChar: five
Encoding: 53 53 24
Width: 1425
Flags: W
Fore
217 1493 m 1,0,-1
 1174 1493 l 1,1,-1
 1174 1210 l 1,2,-1
 524 1210 l 1,3,-1
 524 979 l 1,4,5
 568 991 568 991 612.5 997.5 c 128,-1,6
 657 1004 657 1004 705 1004 c 0,7,8
 978 1004 978 1004 1130 867.5 c 128,-1,9
 1282 731 1282 731 1282 487 c 0,10,11
 1282 245 1282 245 1116.5 108 c 128,-1,12
 951 -29 951 -29 657 -29 c 0,13,14
 530 -29 530 -29 405.5 -4.5 c 128,-1,15
 281 20 281 20 158 70 c 1,16,-1
 158 373 l 1,17,18
 280 303 280 303 389.5 268 c 128,-1,19
 499 233 499 233 596 233 c 0,20,21
 736 233 736 233 816.5 301.5 c 128,-1,22
 897 370 897 370 897 487 c 0,23,24
 897 605 897 605 816.5 673 c 128,-1,25
 736 741 736 741 596 741 c 0,26,27
 513 741 513 741 419 719.5 c 128,-1,28
 325 698 325 698 217 653 c 1,29,-1
 217 1493 l 1,0,-1
EndSplineSet
EndChar
StartChar: six
Encoding: 54 54 25
Width: 1425
Flags: W
Fore
741 737 m 0,0,1
 640 737 640 737 589.5 671.5 c 128,-1,2
 539 606 539 606 539 475 c 0,3,4
 539 344 539 344 589.5 278.5 c 128,-1,5
 640 213 640 213 741 213 c 0,6,7
 843 213 843 213 893.5 278.5 c 128,-1,8
 944 344 944 344 944 475 c 0,9,10
 944 606 944 606 893.5 671.5 c 128,-1,11
 843 737 843 737 741 737 c 0,0,1
1217 1454 m 1,12,-1
 1217 1178 l 1,13,14
 1122 1223 1122 1223 1038 1244.5 c 128,-1,15
 954 1266 954 1266 874 1266 c 0,16,17
 702 1266 702 1266 606 1170.5 c 128,-1,18
 510 1075 510 1075 494 887 c 1,19,20
 560 936 560 936 637 960.5 c 128,-1,21
 714 985 714 985 805 985 c 0,22,23
 1034 985 1034 985 1174.5 851 c 128,-1,24
 1315 717 1315 717 1315 500 c 0,25,26
 1315 260 1315 260 1158 115.5 c 128,-1,27
 1001 -29 1001 -29 737 -29 c 0,28,29
 446 -29 446 -29 286.5 167.5 c 128,-1,30
 127 364 127 364 127 725 c 0,31,32
 127 1095 127 1095 313.5 1306.5 c 128,-1,33
 500 1518 500 1518 825 1518 c 0,34,35
 928 1518 928 1518 1025 1502 c 128,-1,36
 1122 1486 1122 1486 1217 1454 c 1,12,-1
EndSplineSet
EndChar
StartChar: seven
Encoding: 55 55 26
Width: 1425
Flags: W
Fore
137 1493 m 1,0,-1
 1262 1493 l 1,1,-1
 1262 1276 l 1,2,-1
 680 0 l 1,3,-1
 305 0 l 1,4,-1
 856 1210 l 1,5,-1
 137 1210 l 1,6,-1
 137 1493 l 1,0,-1
EndSplineSet
EndChar
StartChar: eight
Encoding: 56 56 27
Width: 1425
Flags: W
Fore
713 668 m 0,0,1
 605 668 605 668 547 609 c 128,-1,2
 489 550 489 550 489 440 c 0,3,4
 489 330 489 330 547 271.5 c 128,-1,5
 605 213 605 213 713 213 c 0,6,7
 820 213 820 213 877 271.5 c 128,-1,8
 934 330 934 330 934 440 c 0,9,10
 934 551 934 551 877 609.5 c 128,-1,11
 820 668 820 668 713 668 c 0,0,1
432 795 m 1,12,13
 296 836 296 836 227 921 c 128,-1,14
 158 1006 158 1006 158 1133 c 0,15,16
 158 1322 158 1322 299 1421 c 128,-1,17
 440 1520 440 1520 713 1520 c 0,18,19
 984 1520 984 1520 1125 1421.5 c 128,-1,20
 1266 1323 1266 1323 1266 1133 c 0,21,22
 1266 1006 1266 1006 1196.5 921 c 128,-1,23
 1127 836 1127 836 991 795 c 1,24,25
 1143 753 1143 753 1220.5 658.5 c 128,-1,26
 1298 564 1298 564 1298 420 c 0,27,28
 1298 198 1298 198 1150.5 84.5 c 128,-1,29
 1003 -29 1003 -29 713 -29 c 0,30,31
 422 -29 422 -29 273.5 84.5 c 128,-1,32
 125 198 125 198 125 420 c 0,33,34
 125 564 125 564 202.5 658.5 c 128,-1,35
 280 753 280 753 432 795 c 1,12,13
522 1094 m 0,36,37
 522 1005 522 1005 571.5 957 c 128,-1,38
 621 909 621 909 713 909 c 0,39,40
 803 909 803 909 852 957 c 128,-1,41
 901 1005 901 1005 901 1094 c 0,42,43
 901 1183 901 1183 852 1230.5 c 128,-1,44
 803 1278 803 1278 713 1278 c 0,45,46
 621 1278 621 1278 571.5 1230 c 128,-1,47
 522 1182 522 1182 522 1094 c 0,36,37
EndSplineSet
EndChar
StartChar: nine
Encoding: 57 57 28
Width: 1425
Flags: W
Fore
205 33 m 1,0,-1
 205 309 l 1,1,2
 297 266 297 266 381 244.5 c 128,-1,3
 465 223 465 223 547 223 c 0,4,5
 719 223 719 223 815 318.5 c 128,-1,6
 911 414 911 414 928 602 c 1,7,8
 860 552 860 552 783 527 c 128,-1,9
 706 502 706 502 616 502 c 0,10,11
 387 502 387 502 246.5 635.5 c 128,-1,12
 106 769 106 769 106 987 c 0,13,14
 106 1228 106 1228 262.5 1373 c 128,-1,15
 419 1518 419 1518 682 1518 c 0,16,17
 974 1518 974 1518 1134 1321 c 128,-1,18
 1294 1124 1294 1124 1294 764 c 0,19,20
 1294 394 1294 394 1107 182.5 c 128,-1,21
 920 -29 920 -29 594 -29 c 0,22,23
 489 -29 489 -29 393 -13.5 c 128,-1,24
 297 2 297 2 205 33 c 1,0,-1
680 752 m 0,25,26
 781 752 781 752 832 817.5 c 128,-1,27
 883 883 883 883 883 1014 c 0,28,29
 883 1144 883 1144 832 1210 c 128,-1,30
 781 1276 781 1276 680 1276 c 0,31,32
 579 1276 579 1276 528 1210 c 128,-1,33
 477 1144 477 1144 477 1014 c 0,34,35
 477 883 477 883 528 817.5 c 128,-1,36
 579 752 579 752 680 752 c 0,25,26
EndSplineSet
EndChar
StartChar: colon
Encoding: 58 58 29
Width: 819
Flags: W
Fore
229 1120 m 1,0,-1
 590 1120 l 1,1,-1
 590 733 l 1,2,-1
 229 733 l 1,3,-1
 229 1120 l 1,0,-1
229 387 m 1,4,-1
 590 387 l 1,5,-1
 590 0 l 1,6,-1
 229 0 l 1,7,-1
 229 387 l 1,4,-1
EndSplineSet
EndChar
StartChar: semicolon
Encoding: 59 59 30
Width: 819
Flags: W
Fore
229 387 m 1,0,-1
 590 387 l 1,1,-1
 590 82 l 1,2,-1
 342 -291 l 1,3,-1
 129 -291 l 1,4,-1
 229 82 l 1,5,-1
 229 387 l 1,0,-1
229 1120 m 1,6,-1
 590 1120 l 1,7,-1
 590 733 l 1,8,-1
 229 733 l 1,9,-1
 229 1120 l 1,6,-1
EndSplineSet
EndChar
StartChar: less
Encoding: 60 60 31
Width: 1716
Flags: W
Fore
1499 973 m 1,0,-1
 535 641 l 1,1,-1
 1499 311 l 1,2,-1
 1499 61 l 1,3,-1
 217 524 l 1,4,-1
 217 760 l 1,5,-1
 1499 1223 l 1,6,-1
 1499 973 l 1,0,-1
EndSplineSet
EndChar
StartChar: equal
Encoding: 61 61 32
Width: 1716
Flags: W
Fore
217 987 m 1,0,-1
 1499 987 l 1,1,-1
 1499 752 l 1,2,-1
 217 752 l 1,3,-1
 217 987 l 1,0,-1
217 532 m 1,4,-1
 1499 532 l 1,5,-1
 1499 295 l 1,6,-1
 217 295 l 1,7,-1
 217 532 l 1,4,-1
EndSplineSet
EndChar
StartChar: greater
Encoding: 62 62 33
Width: 1716
Flags: W
Fore
217 973 m 1,0,-1
 217 1223 l 1,1,-1
 1499 760 l 1,2,-1
 1499 524 l 1,3,-1
 217 61 l 1,4,-1
 217 311 l 1,5,-1
 1182 641 l 1,6,-1
 217 973 l 1,0,-1
EndSplineSet
EndChar
StartChar: question
Encoding: 63 63 34
Width: 1188
Flags: W
Fore
709 504 m 1,0,-1
 348 504 l 1,1,-1
 348 553 l 2,2,3
 348 635 348 635 381 698.5 c 128,-1,4
 414 762 414 762 520 860 c 2,5,-1
 584 918 l 2,6,7
 641 970 641 970 667.5 1016 c 128,-1,8
 694 1062 694 1062 694 1108 c 0,9,10
 694 1178 694 1178 646 1217.5 c 128,-1,11
 598 1257 598 1257 512 1257 c 0,12,13
 431 1257 431 1257 337 1223.5 c 128,-1,14
 243 1190 243 1190 141 1124 c 1,15,-1
 141 1438 l 1,16,17
 262 1480 262 1480 362 1500 c 128,-1,18
 462 1520 462 1520 555 1520 c 0,19,20
 799 1520 799 1520 927 1420.5 c 128,-1,21
 1055 1321 1055 1321 1055 1130 c 0,22,23
 1055 1032 1055 1032 1016 954.5 c 128,-1,24
 977 877 977 877 883 788 c 1,25,-1
 819 731 l 2,26,27
 751 669 751 669 730 631.5 c 128,-1,28
 709 594 709 594 709 549 c 2,29,-1
 709 504 l 1,0,-1
348 356 m 1,30,-1
 709 356 l 1,31,-1
 709 0 l 1,32,-1
 348 0 l 1,33,-1
 348 356 l 1,30,-1
EndSplineSet
EndChar
StartChar: at
Encoding: 64 64 35
Width: 2048
Flags: W
Fore
831 539 m 0,0,1
 831 416 831 416 883.5 345 c 128,-1,2
 936 274 936 274 1026 274 c 0,3,4
 1115 274 1115 274 1168 345.5 c 128,-1,5
 1221 417 1221 417 1221 539 c 0,6,7
 1221 660 1221 660 1167.5 730.5 c 128,-1,8
 1114 801 1114 801 1024 801 c 0,9,10
 936 801 936 801 883.5 730.5 c 128,-1,11
 831 660 831 660 831 539 c 0,0,1
1241 238 m 1,12,13
 1211 167 1211 167 1144.5 127.5 c 128,-1,14
 1078 88 1078 88 989 88 c 0,15,16
 817 88 817 88 709.5 212.5 c 128,-1,17
 602 337 602 337 602 537 c 0,18,19
 602 737 602 737 710 862 c 128,-1,20
 818 987 818 987 989 987 c 0,21,22
 1078 987 1078 987 1144.5 947 c 128,-1,23
 1211 907 1211 907 1241 836 c 1,24,-1
 1241 967 l 1,25,-1
 1450 967 l 1,26,-1
 1450 274 l 1,27,28
 1574 293 1574 293 1645 393.5 c 128,-1,29
 1716 494 1716 494 1716 651 c 0,30,31
 1716 751 1716 751 1687 838.5 c 128,-1,32
 1658 926 1658 926 1599 999 c 1,33,34
 1504 1121 1504 1121 1361.5 1187 c 128,-1,35
 1219 1253 1219 1253 1053 1253 c 0,36,37
 937 1253 937 1253 831 1222.5 c 128,-1,38
 725 1192 725 1192 635 1133 c 0,39,40
 487 1035 487 1035 404.5 879.5 c 128,-1,41
 322 724 322 724 322 543 c 0,42,43
 322 394 322 394 375.5 263.5 c 128,-1,44
 429 133 429 133 530 33 c 0,45,46
 630 -65 630 -65 759.5 -116.5 c 128,-1,47
 889 -168 889 -168 1036 -168 c 0,48,49
 1162 -168 1162 -168 1288 -121 c 128,-1,50
 1414 -74 1414 -74 1503 6 c 1,51,-1
 1610 -156 l 1,52,53
 1485 -253 1485 -253 1337.5 -304.5 c 128,-1,54
 1190 -356 1190 -356 1038 -356 c 0,55,56
 853 -356 853 -356 689 -290.5 c 128,-1,57
 525 -225 525 -225 397 -100 c 0,58,59
 269 25 269 25 202 189.5 c 128,-1,60
 135 354 135 354 135 543 c 0,61,62
 135 725 135 725 203 890 c 128,-1,63
 271 1055 271 1055 397 1180 c 0,64,65
 523 1304 523 1304 690.5 1372 c 128,-1,66
 858 1440 858 1440 1038 1440 c 0,67,68
 1262 1440 1262 1440 1445 1354.5 c 128,-1,69
 1628 1269 1628 1269 1751 1108 c 0,70,71
 1826 1010 1826 1010 1864.5 895.5 c 128,-1,72
 1903 781 1903 781 1903 655 c 0,73,74
 1903 384 1903 384 1740 234 c 128,-1,75
 1577 84 1577 84 1280 84 c 2,76,-1
 1241 84 l 1,77,-1
 1241 238 l 1,12,13
EndSplineSet
EndChar
StartChar: A
Encoding: 65 65 36
Width: 1585
Flags: W
Fore
1094 272 m 1,0,-1
 492 272 l 1,1,-1
 397 0 l 1,2,-1
 10 0 l 1,3,-1
 563 1493 l 1,4,-1
 1022 1493 l 1,5,-1
 1575 0 l 1,6,-1
 1188 0 l 1,7,-1
 1094 272 l 1,0,-1
588 549 m 1,8,-1
 997 549 l 1,9,-1
 793 1143 l 1,10,-1
 588 549 l 1,8,-1
EndSplineSet
KernsSLIF: 563 -73 0 0 375 -73 0 0 7922 -196 0 0 562 -196 0 0 374 -196 0 0 368 -63 0 0 364 -63 0 0 362 -63 0 0 360 -63 0 0 7812 -92 0 0 7810 -92 0 0 7808 -92 0 0 372 -92 0 0 538 -159 0 0 354 -159 0 0 366 -63 0 0 356 -159 0 0 253 -73 0 0 221 -196 0 0 217 -63 0 0 219 -63 0 0 218 -63 0 0 8222 114 0 0 8218 114 0 0 376 -196 0 0 255 -73 0 0 8217 -188 0 0 8221 -188 0 0 220 -63 0 0 121 -73 0 0 118 -73 0 0 89 -196 0 0 87 -92 0 0 86 -139 0 0 85 -63 0 0 84 -159 0 0 59 38 0 0 58 38 0 0 46 38 0 0 44 38 0 0
EndChar
StartChar: B
Encoding: 66 66 37
Width: 1561
Flags: W
Fore
786 915 m 2,0,1
 877 915 877 915 924 955 c 128,-1,2
 971 995 971 995 971 1073 c 0,3,4
 971 1150 971 1150 924 1190.5 c 128,-1,5
 877 1231 877 1231 786 1231 c 2,6,-1
 573 1231 l 1,7,-1
 573 915 l 1,8,-1
 786 915 l 2,0,1
799 262 m 2,9,10
 915 262 915 262 973.5 311 c 128,-1,11
 1032 360 1032 360 1032 459 c 0,12,13
 1032 556 1032 556 974 604.5 c 128,-1,14
 916 653 916 653 799 653 c 2,15,-1
 573 653 l 1,16,-1
 573 262 l 1,17,-1
 799 262 l 2,9,10
1157 799 m 1,18,19
 1281 763 1281 763 1349 666 c 128,-1,20
 1417 569 1417 569 1417 428 c 0,21,22
 1417 212 1417 212 1271 106 c 128,-1,23
 1125 0 1125 0 827 0 c 2,24,-1
 188 0 l 1,25,-1
 188 1493 l 1,26,-1
 766 1493 l 2,27,28
 1077 1493 1077 1493 1216.5 1399 c 128,-1,29
 1356 1305 1356 1305 1356 1098 c 0,30,31
 1356 989 1356 989 1305 912.5 c 128,-1,32
 1254 836 1254 836 1157 799 c 1,18,19
EndSplineSet
KernsSLIF: 221 -112 0 0 376 -112 0 0 89 -112 0 0 87 -112 0 0 86 -83 0 0
EndChar
StartChar: C
Encoding: 67 67 38
Width: 1503
Flags: W
Fore
1372 82 m 1,0,1
 1266 27 1266 27 1151 -1 c 128,-1,2
 1036 -29 1036 -29 911 -29 c 0,3,4
 538 -29 538 -29 320 179.5 c 128,-1,5
 102 388 102 388 102 745 c 0,6,7
 102 1103 102 1103 320 1311.5 c 128,-1,8
 538 1520 538 1520 911 1520 c 0,9,10
 1036 1520 1036 1520 1151 1492 c 128,-1,11
 1266 1464 1266 1464 1372 1409 c 1,12,-1
 1372 1100 l 1,13,14
 1265 1173 1265 1173 1161 1207 c 128,-1,15
 1057 1241 1057 1241 942 1241 c 0,16,17
 736 1241 736 1241 618 1109 c 128,-1,18
 500 977 500 977 500 745 c 0,19,20
 500 514 500 514 618 382 c 128,-1,21
 736 250 736 250 942 250 c 0,22,23
 1057 250 1057 250 1161 284 c 128,-1,24
 1265 318 1265 318 1372 391 c 1,25,-1
 1372 82 l 1,0,1
EndSplineSet
KernsSLIF: 350 38 0 0 352 38 0 0 8217 75 0 0 8221 75 0 0 83 38 0 0 45 47 0 0
EndChar
StartChar: D
Encoding: 68 68 39
Width: 1700
Flags: W
Fore
573 1202 m 1,0,-1
 573 291 l 1,1,-1
 711 291 l 2,2,3
 947 291 947 291 1071.5 408 c 128,-1,4
 1196 525 1196 525 1196 748 c 0,5,6
 1196 970 1196 970 1072 1086 c 128,-1,7
 948 1202 948 1202 711 1202 c 2,8,-1
 573 1202 l 1,0,-1
188 1493 m 1,9,-1
 594 1493 l 2,10,11
 934 1493 934 1493 1100.5 1444.5 c 128,-1,12
 1267 1396 1267 1396 1386 1280 c 0,13,14
 1491 1179 1491 1179 1542 1047 c 128,-1,15
 1593 915 1593 915 1593 748 c 0,16,17
 1593 579 1593 579 1542 446.5 c 128,-1,18
 1491 314 1491 314 1386 213 c 0,19,20
 1266 97 1266 97 1098 48.5 c 128,-1,21
 930 0 930 0 594 0 c 2,22,-1
 188 0 l 1,23,-1
 188 1493 l 1,9,-1
EndSplineSet
KernsSLIF: 221 -149 0 0 8222 -36 0 0 8218 -36 0 0 376 -149 0 0 89 -149 0 0 45 38 0 0
EndChar
StartChar: E
Encoding: 69 69 40
Width: 1399
Flags: W
Fore
188 1493 m 1,0,-1
 1227 1493 l 1,1,-1
 1227 1202 l 1,2,-1
 573 1202 l 1,3,-1
 573 924 l 1,4,-1
 1188 924 l 1,5,-1
 1188 633 l 1,6,-1
 573 633 l 1,7,-1
 573 291 l 1,8,-1
 1249 291 l 1,9,-1
 1249 0 l 1,10,-1
 188 0 l 1,11,-1
 188 1493 l 1,0,-1
EndSplineSet
EndChar
StartChar: F
Encoding: 70 70 41
Width: 1399
Flags: W
Fore
188 1493 m 1,0,-1
 1227 1493 l 1,1,-1
 1227 1202 l 1,2,-1
 573 1202 l 1,3,-1
 573 924 l 1,4,-1
 1188 924 l 1,5,-1
 1188 633 l 1,6,-1
 573 633 l 1,7,-1
 573 0 l 1,8,-1
 188 0 l 1,9,-1
 188 1493 l 1,0,-1
EndSplineSet
KernsSLIF: 252 -102 0 0 229 -120 0 0 230 -120 0 0 59 -112 0 0 242 -83 0 0 45 -63 0 0 8222 -339 0 0 367 -102 0 0 245 -83 0 0 235 -83 0 0 249 -102 0 0 44 -329 0 0 224 -120 0 0 195 -235 0 0 234 -83 0 0 341 -131 0 0 232 -83 0 0 196 -235 0 0 193 -235 0 0 8217 38 0 0 251 -102 0 0 253 -112 0 0 8218 -339 0 0 227 -120 0 0 194 -235 0 0 248 -83 0 0 244 -83 0 0 65 -235 0 0 97 -120 0 0 228 -120 0 0 246 -83 0 0 250 -102 0 0 225 -120 0 0 345 -131 0 0 46 -301 0 0 226 -120 0 0 233 -83 0 0 283 -83 0 0 101 -83 0 0 339 -83 0 0 255 -112 0 0 111 -83 0 0 114 -131 0 0 117 -102 0 0 192 -235 0 0 121 -112 0 0 58 -112 0 0 243 -83 0 0
EndChar
StartChar: G
Encoding: 71 71 42
Width: 1681
Flags: W
Fore
1530 111 m 1,0,1
 1386 41 1386 41 1231 6 c 128,-1,2
 1076 -29 1076 -29 911 -29 c 0,3,4
 538 -29 538 -29 320 179.5 c 128,-1,5
 102 388 102 388 102 745 c 0,6,7
 102 1106 102 1106 324 1313 c 128,-1,8
 546 1520 546 1520 932 1520 c 0,9,10
 1081 1520 1081 1520 1217.5 1492 c 128,-1,11
 1354 1464 1354 1464 1475 1409 c 1,12,-1
 1475 1100 l 1,13,14
 1350 1171 1350 1171 1226.5 1206 c 128,-1,15
 1103 1241 1103 1241 979 1241 c 0,16,17
 749 1241 749 1241 624.5 1112.5 c 128,-1,18
 500 984 500 984 500 745 c 0,19,20
 500 508 500 508 620 379 c 128,-1,21
 740 250 740 250 961 250 c 0,22,23
 1021 250 1021 250 1072.5 257.5 c 128,-1,24
 1124 265 1124 265 1165 281 c 1,25,-1
 1165 571 l 1,26,-1
 930 571 l 1,27,-1
 930 829 l 1,28,-1
 1530 829 l 1,29,-1
 1530 111 l 1,0,1
EndSplineSet
KernsSLIF: 356 -36 0 0 221 -45 0 0 376 -45 0 0 89 -45 0 0 84 -36 0 0
EndChar
StartChar: H
Encoding: 72 72 43
Width: 1714
Flags: W
Fore
188 1493 m 1,0,-1
 573 1493 l 1,1,-1
 573 924 l 1,2,-1
 1141 924 l 1,3,-1
 1141 1493 l 1,4,-1
 1526 1493 l 1,5,-1
 1526 0 l 1,6,-1
 1141 0 l 1,7,-1
 1141 633 l 1,8,-1
 573 633 l 1,9,-1
 573 0 l 1,10,-1
 188 0 l 1,11,-1
 188 1493 l 1,0,-1
EndSplineSet
EndChar
StartChar: I
Encoding: 73 73 44
Width: 762
Flags: W
Fore
188 1493 m 1,0,-1
 573 1493 l 1,1,-1
 573 0 l 1,2,-1
 188 0 l 1,3,-1
 188 1493 l 1,0,-1
EndSplineSet
EndChar
StartChar: J
Encoding: 74 74 45
Width: 762
Flags: W
Fore
188 1493 m 1,0,-1
 573 1493 l 1,1,-1
 573 145 l 2,2,3
 573 -134 573 -134 421.5 -272 c 128,-1,4
 270 -410 270 -410 -37 -410 c 2,5,-1
 -115 -410 l 1,6,-1
 -115 -119 l 1,7,-1
 -55 -119 l 2,8,9
 65 -119 65 -119 126.5 -52 c 128,-1,10
 188 15 188 15 188 145 c 2,11,-1
 188 1493 l 1,0,-1
EndSplineSet
EndChar
StartChar: K
Encoding: 75 75 46
Width: 1587
Flags: W
Fore
188 1493 m 1,0,-1
 573 1493 l 1,1,-1
 573 948 l 1,2,-1
 1128 1493 l 1,3,-1
 1575 1493 l 1,4,-1
 856 786 l 1,5,-1
 1649 0 l 1,6,-1
 1167 0 l 1,7,-1
 573 588 l 1,8,-1
 573 0 l 1,9,-1
 188 0 l 1,10,-1
 188 1493 l 1,0,-1
EndSplineSet
KernsSLIF: 367 -36 0 0 366 -36 0 0 283 -36 0 0 268 -92 0 0 262 -92 0 0 253 -131 0 0 217 -36 0 0 219 -36 0 0 218 -36 0 0 210 -92 0 0 212 -92 0 0 211 -92 0 0 8222 38 0 0 8218 38 0 0 255 -131 0 0 339 -36 0 0 338 -102 0 0 213 -92 0 0 248 -36 0 0 216 -55 0 0 252 -36 0 0 251 -36 0 0 249 -36 0 0 250 -36 0 0 245 -36 0 0 246 -36 0 0 244 -36 0 0 242 -36 0 0 243 -36 0 0 235 -36 0 0 234 -36 0 0 232 -36 0 0 233 -36 0 0 220 -36 0 0 214 -92 0 0 199 -92 0 0 121 -131 0 0 117 -36 0 0 111 -36 0 0 101 -36 0 0 85 -36 0 0 79 -92 0 0 67 -92 0 0 45 -178 0 0
EndChar
StartChar: L
Encoding: 76 76 47
Width: 1305
Flags: W
Fore
188 1493 m 1,0,-1
 573 1493 l 1,1,-1
 573 291 l 1,2,-1
 1249 291 l 1,3,-1
 1249 0 l 1,4,-1
 188 0 l 1,5,-1
 188 1493 l 1,0,-1
EndSplineSet
KernsSLIF: 366 -73 0 0 356 -339 0 0 253 -139 0 0 221 -319 0 0 217 -73 0 0 219 -73 0 0 218 -73 0 0 210 -73 0 0 212 -73 0 0 211 -73 0 0 376 -319 0 0 255 -139 0 0 8217 -471 0 0 8221 -491 0 0 338 -73 0 0 213 -73 0 0 216 -73 0 0 220 -73 0 0 214 -73 0 0 121 -139 0 0 89 -319 0 0 87 -159 0 0 86 -282 0 0 85 -73 0 0 84 -339 0 0 79 -73 0 0
EndChar
StartChar: M
Encoding: 77 77 48
Width: 2038
Flags: W
Fore
188 1493 m 1,0,-1
 678 1493 l 1,1,-1
 1018 694 l 1,2,-1
 1360 1493 l 1,3,-1
 1849 1493 l 1,4,-1
 1849 0 l 1,5,-1
 1485 0 l 1,6,-1
 1485 1092 l 1,7,-1
 1141 287 l 1,8,-1
 897 287 l 1,9,-1
 553 1092 l 1,10,-1
 553 0 l 1,11,-1
 188 0 l 1,12,-1
 188 1493 l 1,0,-1
EndSplineSet
EndChar
StartChar: N
Encoding: 78 78 49
Width: 1714
Flags: W
Fore
188 1493 m 1,0,-1
 618 1493 l 1,1,-1
 1161 469 l 1,2,-1
 1161 1493 l 1,3,-1
 1526 1493 l 1,4,-1
 1526 0 l 1,5,-1
 1096 0 l 1,6,-1
 553 1024 l 1,7,-1
 553 0 l 1,8,-1
 188 0 l 1,9,-1
 188 1493 l 1,0,-1
EndSplineSet
EndChar
StartChar: O
Encoding: 79 79 50
Width: 1741
Flags: W
Fore
870 1241 m 0,0,1
 694 1241 694 1241 597 1111 c 128,-1,2
 500 981 500 981 500 745 c 0,3,4
 500 510 500 510 597 380 c 128,-1,5
 694 250 694 250 870 250 c 0,6,7
 1047 250 1047 250 1144 380 c 128,-1,8
 1241 510 1241 510 1241 745 c 0,9,10
 1241 981 1241 981 1144 1111 c 128,-1,11
 1047 1241 1047 1241 870 1241 c 0,0,1
870 1520 m 0,12,13
 1230 1520 1230 1520 1434 1314 c 128,-1,14
 1638 1108 1638 1108 1638 745 c 0,15,16
 1638 383 1638 383 1434 177 c 128,-1,17
 1230 -29 1230 -29 870 -29 c 0,18,19
 511 -29 511 -29 306.5 177 c 128,-1,20
 102 383 102 383 102 745 c 0,21,22
 102 1108 102 1108 306.5 1314 c 128,-1,23
 511 1520 511 1520 870 1520 c 0,12,13
EndSplineSet
KernsSLIF: 221 -73 0 0 193 -55 0 0 194 -55 0 0 376 -73 0 0 195 -55 0 0 192 -55 0 0 196 -55 0 0 89 -73 0 0 88 -73 0 0 86 -55 0 0 65 -55 0 0 46 -45 0 0 45 38 0 0 44 -45 0 0
EndChar
StartChar: P
Encoding: 80 80 51
Width: 1501
Flags: W
Fore
188 1493 m 1,0,-1
 827 1493 l 2,1,2
 1112 1493 1112 1493 1264.5 1366.5 c 128,-1,3
 1417 1240 1417 1240 1417 1006 c 0,4,5
 1417 771 1417 771 1264.5 644.5 c 128,-1,6
 1112 518 1112 518 827 518 c 2,7,-1
 573 518 l 1,8,-1
 573 0 l 1,9,-1
 188 0 l 1,10,-1
 188 1493 l 1,0,-1
573 1214 m 1,11,-1
 573 797 l 1,12,-1
 786 797 l 2,13,14
 898 797 898 797 959 851.5 c 128,-1,15
 1020 906 1020 906 1020 1006 c 0,16,17
 1020 1106 1020 1106 959 1160 c 128,-1,18
 898 1214 898 1214 786 1214 c 2,19,-1
 573 1214 l 1,11,-1
EndSplineSet
KernsSLIF: 351 -36 0 0 253 38 0 0 353 -36 0 0 193 -188 0 0 194 -188 0 0 8222 -415 0 0 8218 -415 0 0 255 38 0 0 8217 57 0 0 8221 38 0 0 195 -188 0 0 192 -188 0 0 230 -55 0 0 229 -55 0 0 227 -55 0 0 228 -55 0 0 226 -55 0 0 224 -55 0 0 225 -55 0 0 196 -188 0 0 121 38 0 0 115 -36 0 0 97 -55 0 0 65 -188 0 0 46 -376 0 0 45 -36 0 0 44 -376 0 0
EndChar
StartChar: Q
Encoding: 81 81 52
Width: 1741
Flags: W
Fore
911 -27 m 1,0,-1
 881 -27 l 2,1,2
 512 -27 512 -27 307 177 c 128,-1,3
 102 381 102 381 102 745 c 0,4,5
 102 1108 102 1108 306.5 1314 c 128,-1,6
 511 1520 511 1520 870 1520 c 0,7,8
 1233 1520 1233 1520 1435.5 1316 c 128,-1,9
 1638 1112 1638 1112 1638 745 c 0,10,11
 1638 493 1638 493 1530.5 311 c 128,-1,12
 1423 129 1423 129 1221 37 c 1,13,-1
 1522 -299 l 1,14,-1
 1155 -299 l 1,15,-1
 911 -27 l 1,0,-1
870 1241 m 0,16,17
 694 1241 694 1241 597 1111 c 128,-1,18
 500 981 500 981 500 745 c 0,19,20
 500 505 500 505 595 377.5 c 128,-1,21
 690 250 690 250 870 250 c 0,22,23
 1047 250 1047 250 1144 380 c 128,-1,24
 1241 510 1241 510 1241 745 c 0,25,26
 1241 981 1241 981 1144 1111 c 128,-1,27
 1047 1241 1047 1241 870 1241 c 0,16,17
EndSplineSet
KernsSLIF: 45 38 0 0
EndChar
StartChar: R
Encoding: 82 82 53
Width: 1577
Flags: W
Fore
735 831 m 2,0,1
 856 831 856 831 908.5 876 c 128,-1,2
 961 921 961 921 961 1024 c 0,3,4
 961 1126 961 1126 908.5 1170 c 128,-1,5
 856 1214 856 1214 735 1214 c 2,6,-1
 573 1214 l 1,7,-1
 573 831 l 1,8,-1
 735 831 l 2,0,1
573 565 m 1,9,-1
 573 0 l 1,10,-1
 188 0 l 1,11,-1
 188 1493 l 1,12,-1
 776 1493 l 2,13,14
 1071 1493 1071 1493 1208.5 1394 c 128,-1,15
 1346 1295 1346 1295 1346 1081 c 0,16,17
 1346 933 1346 933 1274.5 838 c 128,-1,18
 1203 743 1203 743 1059 698 c 1,19,20
 1138 680 1138 680 1200.5 616.5 c 128,-1,21
 1263 553 1263 553 1327 424 c 2,22,-1
 1536 0 l 1,23,-1
 1126 0 l 1,24,-1
 944 371 l 2,25,26
 889 483 889 483 832.5 524 c 128,-1,27
 776 565 776 565 682 565 c 2,28,-1
 573 565 l 1,9,-1
EndSplineSet
KernsSLIF: 356 -92 0 0 253 -92 0 0 221 -112 0 0 376 -112 0 0 255 -92 0 0 121 -92 0 0 89 -112 0 0 84 -92 0 0 46 38 0 0 44 38 0 0
EndChar
StartChar: S
Encoding: 83 83 54
Width: 1475
Flags: W
Fore
1227 1446 m 1,0,-1
 1227 1130 l 1,1,2
 1104 1185 1104 1185 987 1213 c 128,-1,3
 870 1241 870 1241 766 1241 c 0,4,5
 628 1241 628 1241 562 1203 c 128,-1,6
 496 1165 496 1165 496 1085 c 0,7,8
 496 1025 496 1025 540.5 991.5 c 128,-1,9
 585 958 585 958 702 934 c 2,10,-1
 866 901 l 2,11,12
 1115 851 1115 851 1220 749 c 128,-1,13
 1325 647 1325 647 1325 459 c 0,14,15
 1325 212 1325 212 1178.5 91.5 c 128,-1,16
 1032 -29 1032 -29 731 -29 c 0,17,18
 589 -29 589 -29 446 -2 c 128,-1,19
 303 25 303 25 160 78 c 1,20,-1
 160 403 l 1,21,22
 303 327 303 327 436.5 288.5 c 128,-1,23
 570 250 570 250 694 250 c 0,24,25
 820 250 820 250 887 292 c 128,-1,26
 954 334 954 334 954 412 c 0,27,28
 954 482 954 482 908.5 520 c 128,-1,29
 863 558 863 558 727 588 c 2,30,-1
 578 621 l 2,31,32
 354 669 354 669 250.5 774 c 128,-1,33
 147 879 147 879 147 1057 c 0,34,35
 147 1280 147 1280 291 1400 c 128,-1,36
 435 1520 435 1520 705 1520 c 0,37,38
 828 1520 828 1520 958 1501.5 c 128,-1,39
 1088 1483 1088 1483 1227 1446 c 1,0,-1
EndSplineSet
KernsSLIF: 350 -92 0 0 352 -92 0 0 83 -92 0 0
EndChar
StartChar: T
Encoding: 84 84 55
Width: 1397
Flags: W
Fore
10 1493 m 1,0,-1
 1386 1493 l 1,1,-1
 1386 1202 l 1,2,-1
 891 1202 l 1,3,-1
 891 0 l 1,4,-1
 506 0 l 1,5,-1
 506 1202 l 1,6,-1
 10 1202 l 1,7,-1
 10 1493 l 1,0,-1
EndSplineSet
KernsSLIF: 252 -225 0 0 229 -264 0 0 230 -196 0 0 59 -112 0 0 242 -272 0 0 45 -301 0 0 8222 -264 0 0 367 -225 0 0 245 -272 0 0 235 -272 0 0 249 -225 0 0 58 -112 0 0 224 -264 0 0 195 -159 0 0 234 -272 0 0 231 -272 0 0 341 -225 0 0 232 -272 0 0 196 -159 0 0 193 -159 0 0 269 -272 0 0 345 -225 0 0 251 -225 0 0 253 -243 0 0 8218 -264 0 0 227 -264 0 0 194 -159 0 0 248 -159 0 0 244 -272 0 0 353 -272 0 0 65 -159 0 0 283 -272 0 0 351 -272 0 0 228 -264 0 0 119 -225 0 0 246 -272 0 0 250 -225 0 0 263 -272 0 0 225 -264 0 0 46 -311 0 0 84 47 0 0 226 -264 0 0 233 -272 0 0 97 -264 0 0 99 -272 0 0 101 -272 0 0 339 -159 0 0 255 -243 0 0 111 -272 0 0 115 -272 0 0 114 -225 0 0 117 -225 0 0 192 -159 0 0 121 -243 0 0 44 -292 0 0 243 -272 0 0
EndChar
StartChar: U
Encoding: 85 85 56
Width: 1663
Flags: W
Fore
188 1493 m 1,0,-1
 573 1493 l 1,1,-1
 573 598 l 2,2,3
 573 413 573 413 633.5 333.5 c 128,-1,4
 694 254 694 254 831 254 c 0,5,6
 969 254 969 254 1029.5 333.5 c 128,-1,7
 1090 413 1090 413 1090 598 c 2,8,-1
 1090 1493 l 1,9,-1
 1475 1493 l 1,10,-1
 1475 598 l 2,11,12
 1475 281 1475 281 1316 126 c 128,-1,13
 1157 -29 1157 -29 831 -29 c 0,14,15
 506 -29 506 -29 347 126 c 128,-1,16
 188 281 188 281 188 598 c 2,17,-1
 188 1493 l 1,0,-1
EndSplineSet
KernsSLIF: 193 -63 0 0 194 -63 0 0 195 -63 0 0 192 -63 0 0 196 -63 0 0 65 -63 0 0
EndChar
StartChar: V
Encoding: 86 86 57
Width: 1585
Flags: W
Fore
10 1493 m 1,0,-1
 397 1493 l 1,1,-1
 793 391 l 1,2,-1
 1188 1493 l 1,3,-1
 1575 1493 l 1,4,-1
 1022 0 l 1,5,-1
 563 0 l 1,6,-1
 10 1493 l 1,0,-1
EndSplineSet
KernsSLIF: 367 -73 0 0 283 -112 0 0 210 -36 0 0 212 -36 0 0 211 -36 0 0 193 -139 0 0 194 -139 0 0 8222 -188 0 0 8218 -225 0 0 339 -112 0 0 338 -36 0 0 213 -36 0 0 195 -139 0 0 192 -139 0 0 248 -112 0 0 230 -112 0 0 216 -36 0 0 252 -73 0 0 251 -73 0 0 249 -73 0 0 250 -73 0 0 245 -112 0 0 246 -112 0 0 244 -112 0 0 242 -112 0 0 243 -112 0 0 235 -112 0 0 234 -112 0 0 232 -112 0 0 233 -112 0 0 229 -112 0 0 227 -112 0 0 228 -112 0 0 226 -112 0 0 224 -112 0 0 225 -112 0 0 214 -36 0 0 196 -139 0 0 117 -73 0 0 111 -112 0 0 105 -36 0 0 101 -112 0 0 97 -112 0 0 79 -36 0 0 65 -139 0 0 59 -92 0 0 58 -92 0 0 46 -264 0 0 45 -149 0 0 44 -264 0 0
EndChar
StartChar: W
Encoding: 87 87 58
Width: 2259
Flags: W
Fore
61 1493 m 1,0,-1
 430 1493 l 1,1,-1
 688 408 l 1,2,-1
 944 1493 l 1,3,-1
 1315 1493 l 1,4,-1
 1571 408 l 1,5,-1
 1829 1493 l 1,6,-1
 2195 1493 l 1,7,-1
 1843 0 l 1,8,-1
 1399 0 l 1,9,-1
 1128 1135 l 1,10,-1
 860 0 l 1,11,-1
 416 0 l 1,12,-1
 61 1493 l 1,0,-1
EndSplineSet
KernsSLIF: 229 -73 0 0 230 -73 0 0 59 -63 0 0 242 -73 0 0 45 -92 0 0 46 -167 0 0 245 -73 0 0 235 -73 0 0 44 -167 0 0 224 -73 0 0 195 -92 0 0 234 -73 0 0 341 -36 0 0 232 -73 0 0 196 -92 0 0 193 -92 0 0 227 -73 0 0 194 -92 0 0 248 -73 0 0 244 -73 0 0 65 -92 0 0 97 -73 0 0 228 -73 0 0 246 -73 0 0 225 -73 0 0 345 -36 0 0 226 -73 0 0 233 -73 0 0 283 -73 0 0 101 -73 0 0 339 -73 0 0 111 -73 0 0 114 -36 0 0 192 -92 0 0 58 -63 0 0 243 -73 0 0
EndChar
StartChar: X
Encoding: 88 88 59
Width: 1579
Flags: W
Fore
1020 762 m 1,0,-1
 1538 0 l 1,1,-1
 1137 0 l 1,2,-1
 788 510 l 1,3,-1
 442 0 l 1,4,-1
 39 0 l 1,5,-1
 557 762 l 1,6,-1
 59 1493 l 1,7,-1
 461 1493 l 1,8,-1
 788 1012 l 1,9,-1
 1114 1493 l 1,10,-1
 1518 1493 l 1,11,-1
 1020 762 l 1,0,-1
EndSplineSet
KernsSLIF: 283 -55 0 0 268 -73 0 0 262 -73 0 0 210 -73 0 0 212 -73 0 0 211 -73 0 0 8222 38 0 0 8218 38 0 0 338 -73 0 0 213 -73 0 0 216 -73 0 0 235 -55 0 0 234 -55 0 0 232 -55 0 0 233 -55 0 0 214 -73 0 0 199 -73 0 0 101 -55 0 0 79 -73 0 0 67 -73 0 0 45 -167 0 0
EndChar
StartChar: Y
Encoding: 89 89 60
Width: 1483
Flags: W
Fore
-20 1493 m 1,0,-1
 401 1493 l 1,1,-1
 741 961 l 1,2,-1
 1081 1493 l 1,3,-1
 1503 1493 l 1,4,-1
 934 629 l 1,5,-1
 934 0 l 1,6,-1
 549 0 l 1,7,-1
 549 629 l 1,8,-1
 -20 1493 l 1,0,-1
EndSplineSet
KernsSLIF: 367 -149 0 0 283 -188 0 0 268 -73 0 0 262 -73 0 0 210 -73 0 0 212 -73 0 0 211 -73 0 0 193 -196 0 0 194 -196 0 0 8222 -301 0 0 8218 -376 0 0 339 -188 0 0 338 -92 0 0 213 -73 0 0 195 -196 0 0 192 -196 0 0 248 -188 0 0 230 -188 0 0 216 -36 0 0 252 -149 0 0 251 -149 0 0 249 -149 0 0 250 -149 0 0 245 -188 0 0 246 -188 0 0 244 -188 0 0 242 -188 0 0 243 -188 0 0 235 -188 0 0 234 -188 0 0 232 -188 0 0 233 -188 0 0 229 -188 0 0 227 -188 0 0 228 -188 0 0 226 -188 0 0 224 -188 0 0 225 -188 0 0 214 -73 0 0 199 -73 0 0 196 -196 0 0 117 -149 0 0 111 -188 0 0 101 -188 0 0 97 -188 0 0 79 -73 0 0 67 -73 0 0 65 -196 0 0 59 -178 0 0 58 -178 0 0 46 -339 0 0 45 -301 0 0 44 -339 0 0
EndChar
StartChar: Z
Encoding: 90 90 61
Width: 1485
Flags: W
Fore
115 1493 m 1,0,-1
 1370 1493 l 1,1,-1
 1370 1260 l 1,2,-1
 569 291 l 1,3,-1
 1393 291 l 1,4,-1
 1393 0 l 1,5,-1
 92 0 l 1,6,-1
 92 233 l 1,7,-1
 893 1202 l 1,8,-1
 115 1202 l 1,9,-1
 115 1493 l 1,0,-1
EndSplineSet
KernsSLIF: 45 -36 0 0
EndChar
StartChar: bracketleft
Encoding: 91 91 62
Width: 936
Flags: W
Fore
176 1556 m 1,0,-1
 797 1556 l 1,1,-1
 797 1331 l 1,2,-1
 516 1331 l 1,3,-1
 516 -45 l 1,4,-1
 797 -45 l 1,5,-1
 797 -270 l 1,6,-1
 176 -270 l 1,7,-1
 176 1556 l 1,0,-1
EndSplineSet
EndChar
StartChar: backslash
Encoding: 92 92 63
Width: 748
Flags: W
Fore
526 -190 m 1,0,-1
 0 1493 l 1,1,-1
 221 1493 l 1,2,-1
 748 -190 l 1,3,-1
 526 -190 l 1,0,-1
EndSplineSet
EndChar
StartChar: bracketright
Encoding: 93 93 64
Width: 936
Flags: W
Fore
760 -270 m 1,0,-1
 139 -270 l 1,1,-1
 139 -45 l 1,2,-1
 420 -45 l 1,3,-1
 420 1331 l 1,4,-1
 139 1331 l 1,5,-1
 139 1556 l 1,6,-1
 760 1556 l 1,7,-1
 760 -270 l 1,0,-1
EndSplineSet
EndChar
StartChar: asciicircum
Encoding: 94 94 65
Width: 1716
Flags: W
Fore
981 1493 m 1,0,-1
 1509 936 l 1,1,-1
 1268 936 l 1,2,-1
 858 1237 l 1,3,-1
 449 936 l 1,4,-1
 207 936 l 1,5,-1
 735 1493 l 1,6,-1
 981 1493 l 1,0,-1
EndSplineSet
EndChar
StartChar: underscore
Encoding: 95 95 66
Width: 1024
Flags: W
Fore
1024 -293 m 1,0,-1
 1024 -483 l 1,1,-1
 0 -483 l 1,2,-1
 0 -293 l 1,3,-1
 1024 -293 l 1,0,-1
EndSplineSet
EndChar
StartChar: grave
Encoding: 96 96 67
Width: 1024
Flags: W
Fore
377 1638 m 1,0,-1
 659 1262 l 1,1,-1
 463 1262 l 1,2,-1
 94 1638 l 1,3,-1
 377 1638 l 1,0,-1
EndSplineSet
EndChar
StartChar: a
Encoding: 97 97 68
Width: 1382
Flags: W
Fore
674 504 m 2,0,1
 562 504 562 504 505.5 466 c 128,-1,2
 449 428 449 428 449 354 c 0,3,4
 449 286 449 286 494.5 247.5 c 128,-1,5
 540 209 540 209 621 209 c 0,6,7
 722 209 722 209 791 281.5 c 128,-1,8
 860 354 860 354 860 463 c 2,9,-1
 860 504 l 1,10,-1
 674 504 l 2,0,1
1221 639 m 2,11,-1
 1221 0 l 1,12,-1
 860 0 l 1,13,-1
 860 166 l 1,14,15
 788 64 788 64 698 17.5 c 128,-1,16
 608 -29 608 -29 479 -29 c 0,17,18
 305 -29 305 -29 196.5 72.5 c 128,-1,19
 88 174 88 174 88 336 c 0,20,21
 88 533 88 533 223.5 625 c 128,-1,22
 359 717 359 717 649 717 c 2,23,-1
 860 717 l 1,24,-1
 860 745 l 2,25,26
 860 830 860 830 793 869.5 c 128,-1,27
 726 909 726 909 584 909 c 0,28,29
 469 909 469 909 370 886 c 128,-1,30
 271 863 271 863 186 817 c 1,31,-1
 186 1090 l 1,32,33
 301 1118 301 1118 417 1132.5 c 128,-1,34
 533 1147 533 1147 649 1147 c 0,35,36
 952 1147 952 1147 1086.5 1027.5 c 128,-1,37
 1221 908 1221 908 1221 639 c 2,11,-1
EndSplineSet
KernsSLIF: 253 -63 0 0 255 -63 0 0 121 -63 0 0
EndChar
StartChar: b
Encoding: 98 98 69
Width: 1466
Flags: W
Fore
768 231 m 0,0,1
 883 231 883 231 943.5 315 c 128,-1,2
 1004 399 1004 399 1004 559 c 0,3,4
 1004 719 1004 719 943.5 803 c 128,-1,5
 883 887 883 887 768 887 c 0,6,7
 653 887 653 887 591.5 802.5 c 128,-1,8
 530 718 530 718 530 559 c 0,9,10
 530 400 530 400 591.5 315.5 c 128,-1,11
 653 231 653 231 768 231 c 0,0,1
530 956 m 1,12,13
 604 1054 604 1054 694 1100.5 c 128,-1,14
 784 1147 784 1147 901 1147 c 0,15,16
 1108 1147 1108 1147 1241 982.5 c 128,-1,17
 1374 818 1374 818 1374 559 c 0,18,19
 1374 300 1374 300 1241 135.5 c 128,-1,20
 1108 -29 1108 -29 901 -29 c 0,21,22
 784 -29 784 -29 694 17.5 c 128,-1,23
 604 64 604 64 530 162 c 1,24,-1
 530 0 l 1,25,-1
 172 0 l 1,26,-1
 172 1556 l 1,27,-1
 530 1556 l 1,28,-1
 530 956 l 1,12,13
EndSplineSet
EndChar
StartChar: c
Encoding: 99 99 70
Width: 1214
Flags: W
Fore
1077 1085 m 1,0,-1
 1077 793 l 1,1,2
 1004 843 1004 843 930.5 867 c 128,-1,3
 857 891 857 891 778 891 c 0,4,5
 628 891 628 891 544.5 803.5 c 128,-1,6
 461 716 461 716 461 559 c 0,7,8
 461 402 461 402 544.5 314.5 c 128,-1,9
 628 227 628 227 778 227 c 0,10,11
 862 227 862 227 937.5 252 c 128,-1,12
 1013 277 1013 277 1077 326 c 1,13,-1
 1077 33 l 1,14,15
 993 2 993 2 906.5 -13.5 c 128,-1,16
 820 -29 820 -29 733 -29 c 0,17,18
 430 -29 430 -29 259 126.5 c 128,-1,19
 88 282 88 282 88 559 c 0,20,21
 88 836 88 836 259 991.5 c 128,-1,22
 430 1147 430 1147 733 1147 c 0,23,24
 821 1147 821 1147 906.5 1131.5 c 128,-1,25
 992 1116 992 1116 1077 1085 c 1,0,-1
EndSplineSet
EndChar
StartChar: d
Encoding: 100 100 71
Width: 1466
Flags: W
Fore
934 956 m 1,0,-1
 934 1556 l 1,1,-1
 1294 1556 l 1,2,-1
 1294 0 l 1,3,-1
 934 0 l 1,4,-1
 934 162 l 1,5,6
 860 63 860 63 771 17 c 128,-1,7
 682 -29 682 -29 565 -29 c 0,8,9
 358 -29 358 -29 225 135.5 c 128,-1,10
 92 300 92 300 92 559 c 0,11,12
 92 818 92 818 225 982.5 c 128,-1,13
 358 1147 358 1147 565 1147 c 0,14,15
 681 1147 681 1147 770.5 1100.5 c 128,-1,16
 860 1054 860 1054 934 956 c 1,0,-1
698 231 m 0,17,18
 813 231 813 231 873.5 315 c 128,-1,19
 934 399 934 399 934 559 c 0,20,21
 934 719 934 719 873.5 803 c 128,-1,22
 813 887 813 887 698 887 c 0,23,24
 584 887 584 887 523.5 803 c 128,-1,25
 463 719 463 719 463 559 c 0,26,27
 463 399 463 399 523.5 315 c 128,-1,28
 584 231 584 231 698 231 c 0,17,18
EndSplineSet
EndChar
StartChar: e
Encoding: 101 101 72
Width: 1389
Flags: W
Fore
1290 563 m 2,0,-1
 1290 461 l 1,1,-1
 453 461 l 1,2,3
 466 335 466 335 544 272 c 128,-1,4
 622 209 622 209 762 209 c 0,5,6
 875 209 875 209 993.5 242.5 c 128,-1,7
 1112 276 1112 276 1237 344 c 1,8,-1
 1237 68 l 1,9,10
 1110 20 1110 20 983 -4.5 c 128,-1,11
 856 -29 856 -29 729 -29 c 0,12,13
 425 -29 425 -29 256.5 125.5 c 128,-1,14
 88 280 88 280 88 559 c 0,15,16
 88 833 88 833 253.5 990 c 128,-1,17
 419 1147 419 1147 709 1147 c 0,18,19
 973 1147 973 1147 1131.5 988 c 128,-1,20
 1290 829 1290 829 1290 563 c 2,0,-1
922 682 m 1,21,22
 922 784 922 784 862.5 846.5 c 128,-1,23
 803 909 803 909 707 909 c 0,24,25
 603 909 603 909 538 850.5 c 128,-1,26
 473 792 473 792 457 682 c 1,27,-1
 922 682 l 1,21,22
EndSplineSet
EndChar
StartChar: f
Encoding: 102 102 73
Width: 891
Flags: W
Fore
909 1556 m 1,0,-1
 909 1321 l 1,1,-1
 711 1321 l 2,2,3
 635 1321 635 1321 605 1293.5 c 128,-1,4
 575 1266 575 1266 575 1198 c 2,5,-1
 575 1120 l 1,6,-1
 881 1120 l 1,7,-1
 881 864 l 1,8,-1
 575 864 l 1,9,-1
 575 0 l 1,10,-1
 217 0 l 1,11,-1
 217 864 l 1,12,-1
 39 864 l 1,13,-1
 39 1120 l 1,14,-1
 217 1120 l 1,15,-1
 217 1198 l 2,16,17
 217 1381 217 1381 319 1468.5 c 128,-1,18
 421 1556 421 1556 635 1556 c 2,19,-1
 909 1556 l 1,0,-1
EndSplineSet
KernsSLIF: 8217 141 0 0 8221 86 0 0 46 -112 0 0 45 -36 0 0 44 -112 0 0
EndChar
StartChar: g
Encoding: 103 103 74
Width: 1466
Flags: W
Fore
934 190 m 1,0,1
 860 92 860 92 771 46 c 128,-1,2
 682 0 682 0 565 0 c 0,3,4
 360 0 360 0 226 161.5 c 128,-1,5
 92 323 92 323 92 573 c 0,6,7
 92 824 92 824 226 984.5 c 128,-1,8
 360 1145 360 1145 565 1145 c 0,9,10
 682 1145 682 1145 771 1099 c 128,-1,11
 860 1053 860 1053 934 954 c 1,12,-1
 934 1120 l 1,13,-1
 1294 1120 l 1,14,-1
 1294 113 l 2,15,16
 1294 -157 1294 -157 1123.5 -299.5 c 128,-1,17
 953 -442 953 -442 629 -442 c 0,18,19
 524 -442 524 -442 426 -426 c 128,-1,20
 328 -410 328 -410 229 -377 c 1,21,-1
 229 -98 l 1,22,23
 323 -152 323 -152 413 -178.5 c 128,-1,24
 503 -205 503 -205 594 -205 c 0,25,26
 770 -205 770 -205 852 -128 c 128,-1,27
 934 -51 934 -51 934 113 c 2,28,-1
 934 190 l 1,0,1
698 887 m 0,29,30
 587 887 587 887 525 805 c 128,-1,31
 463 723 463 723 463 573 c 0,32,33
 463 419 463 419 523 339.5 c 128,-1,34
 583 260 583 260 698 260 c 0,35,36
 810 260 810 260 872 342 c 128,-1,37
 934 424 934 424 934 573 c 0,38,39
 934 723 934 723 872 805 c 128,-1,40
 810 887 810 887 698 887 c 0,29,30
EndSplineSet
EndChar
StartChar: h
Encoding: 104 104 75
Width: 1458
Flags: W
Fore
1298 682 m 2,0,-1
 1298 0 l 1,1,-1
 938 0 l 1,2,-1
 938 111 l 1,3,-1
 938 520 l 2,4,5
 938 667 938 667 931.5 722 c 128,-1,6
 925 777 925 777 909 803 c 0,7,8
 888 838 888 838 852 857.5 c 128,-1,9
 816 877 816 877 770 877 c 0,10,11
 658 877 658 877 594 790.5 c 128,-1,12
 530 704 530 704 530 551 c 2,13,-1
 530 0 l 1,14,-1
 172 0 l 1,15,-1
 172 1556 l 1,16,-1
 530 1556 l 1,17,-1
 530 956 l 1,18,19
 611 1054 611 1054 702 1100.5 c 128,-1,20
 793 1147 793 1147 903 1147 c 0,21,22
 1097 1147 1097 1147 1197.5 1028 c 128,-1,23
 1298 909 1298 909 1298 682 c 2,0,-1
EndSplineSet
EndChar
StartChar: i
Encoding: 105 105 76
Width: 702
Flags: W
Fore
172 1120 m 1,0,-1
 530 1120 l 1,1,-1
 530 0 l 1,2,-1
 172 0 l 1,3,-1
 172 1120 l 1,0,-1
172 1556 m 1,4,-1
 530 1556 l 1,5,-1
 530 1264 l 1,6,-1
 172 1264 l 1,7,-1
 172 1556 l 1,4,-1
EndSplineSet
EndChar
StartChar: j
Encoding: 106 106 77
Width: 702
Flags: W
Fore
172 1120 m 1,0,-1
 530 1120 l 1,1,-1
 530 20 l 2,2,3
 530 -205 530 -205 422 -323.5 c 128,-1,4
 314 -442 314 -442 109 -442 c 2,5,-1
 -68 -442 l 1,6,-1
 -68 -207 l 1,7,-1
 -6 -207 l 2,8,9
 96 -207 96 -207 134 -161 c 128,-1,10
 172 -115 172 -115 172 20 c 2,11,-1
 172 1120 l 1,0,-1
172 1556 m 1,12,-1
 530 1556 l 1,13,-1
 530 1264 l 1,14,-1
 172 1264 l 1,15,-1
 172 1556 l 1,12,-1
EndSplineSet
EndChar
StartChar: k
Encoding: 107 107 78
Width: 1362
Flags: W
Fore
172 1556 m 1,0,-1
 530 1556 l 1,1,-1
 530 709 l 1,2,-1
 942 1120 l 1,3,-1
 1358 1120 l 1,4,-1
 811 606 l 1,5,-1
 1401 0 l 1,6,-1
 967 0 l 1,7,-1
 530 467 l 1,8,-1
 530 0 l 1,9,-1
 172 0 l 1,10,-1
 172 1556 l 1,0,-1
EndSplineSet
KernsSLIF: 283 -55 0 0 339 -55 0 0 248 -45 0 0 245 -55 0 0 246 -55 0 0 244 -55 0 0 242 -55 0 0 243 -55 0 0 235 -55 0 0 234 -55 0 0 232 -55 0 0 233 -55 0 0 111 -55 0 0 101 -55 0 0
EndChar
StartChar: l
Encoding: 108 108 79
Width: 702
Flags: W
Fore
172 1556 m 1,0,-1
 530 1556 l 1,1,-1
 530 0 l 1,2,-1
 172 0 l 1,3,-1
 172 1556 l 1,0,-1
EndSplineSet
EndChar
StartChar: m
Encoding: 109 109 80
Width: 2134
Flags: W
Fore
1210 934 m 1,0,1
 1278 1038 1278 1038 1371.5 1092.5 c 128,-1,2
 1465 1147 1465 1147 1577 1147 c 0,3,4
 1770 1147 1770 1147 1871 1028 c 128,-1,5
 1972 909 1972 909 1972 682 c 2,6,-1
 1972 0 l 1,7,-1
 1612 0 l 1,8,-1
 1612 584 l 1,9,10
 1613 597 1613 597 1613.5 611 c 128,-1,11
 1614 625 1614 625 1614 651 c 0,12,13
 1614 770 1614 770 1579 823.5 c 128,-1,14
 1544 877 1544 877 1466 877 c 0,15,16
 1364 877 1364 877 1308.5 793 c 128,-1,17
 1253 709 1253 709 1251 550 c 1,18,-1
 1251 0 l 1,19,-1
 891 0 l 1,20,-1
 891 584 l 2,21,22
 891 770 891 770 859 823.5 c 128,-1,23
 827 877 827 877 745 877 c 0,24,25
 642 877 642 877 586 792.5 c 128,-1,26
 530 708 530 708 530 551 c 2,27,-1
 530 0 l 1,28,-1
 170 0 l 1,29,-1
 170 1120 l 1,30,-1
 530 1120 l 1,31,-1
 530 956 l 1,32,33
 596 1051 596 1051 681.5 1099 c 128,-1,34
 767 1147 767 1147 870 1147 c 0,35,36
 986 1147 986 1147 1075 1091 c 128,-1,37
 1164 1035 1164 1035 1210 934 c 1,0,1
EndSplineSet
EndChar
StartChar: n
Encoding: 110 110 81
Width: 1458
Flags: W
Fore
1298 682 m 2,0,-1
 1298 0 l 1,1,-1
 938 0 l 1,2,-1
 938 111 l 1,3,-1
 938 522 l 2,4,5
 938 667 938 667 931.5 722 c 128,-1,6
 925 777 925 777 909 803 c 0,7,8
 888 838 888 838 852 857.5 c 128,-1,9
 816 877 816 877 770 877 c 0,10,11
 658 877 658 877 594 790.5 c 128,-1,12
 530 704 530 704 530 551 c 2,13,-1
 530 0 l 1,14,-1
 172 0 l 1,15,-1
 172 1120 l 1,16,-1
 530 1120 l 1,17,-1
 530 956 l 1,18,19
 611 1054 611 1054 702 1100.5 c 128,-1,20
 793 1147 793 1147 903 1147 c 0,21,22
 1097 1147 1097 1147 1197.5 1028 c 128,-1,23
 1298 909 1298 909 1298 682 c 2,0,-1
EndSplineSet
EndChar
StartChar: o
Encoding: 111 111 82
Width: 1407
Flags: W
Fore
705 891 m 0,0,1
 586 891 586 891 523.5 805.5 c 128,-1,2
 461 720 461 720 461 559 c 0,3,4
 461 398 461 398 523.5 312.5 c 128,-1,5
 586 227 586 227 705 227 c 0,6,7
 822 227 822 227 884 312.5 c 128,-1,8
 946 398 946 398 946 559 c 0,9,10
 946 720 946 720 884 805.5 c 128,-1,11
 822 891 822 891 705 891 c 0,0,1
705 1147 m 0,12,13
 994 1147 994 1147 1156.5 991 c 128,-1,14
 1319 835 1319 835 1319 559 c 0,15,16
 1319 283 1319 283 1156.5 127 c 128,-1,17
 994 -29 994 -29 705 -29 c 0,18,19
 415 -29 415 -29 251.5 127 c 128,-1,20
 88 283 88 283 88 559 c 0,21,22
 88 835 88 835 251.5 991 c 128,-1,23
 415 1147 415 1147 705 1147 c 0,12,13
EndSplineSet
EndChar
StartChar: p
Encoding: 112 112 83
Width: 1466
Flags: W
Fore
530 162 m 1,0,-1
 530 -426 l 1,1,-1
 172 -426 l 1,2,-1
 172 1120 l 1,3,-1
 530 1120 l 1,4,-1
 530 956 l 1,5,6
 604 1054 604 1054 694 1100.5 c 128,-1,7
 784 1147 784 1147 901 1147 c 0,8,9
 1108 1147 1108 1147 1241 982.5 c 128,-1,10
 1374 818 1374 818 1374 559 c 0,11,12
 1374 300 1374 300 1241 135.5 c 128,-1,13
 1108 -29 1108 -29 901 -29 c 0,14,15
 784 -29 784 -29 694 17.5 c 128,-1,16
 604 64 604 64 530 162 c 1,0,-1
768 887 m 0,17,18
 653 887 653 887 591.5 802.5 c 128,-1,19
 530 718 530 718 530 559 c 0,20,21
 530 400 530 400 591.5 315.5 c 128,-1,22
 653 231 653 231 768 231 c 0,23,24
 883 231 883 231 943.5 315 c 128,-1,25
 1004 399 1004 399 1004 559 c 0,26,27
 1004 719 1004 719 943.5 803 c 128,-1,28
 883 887 883 887 768 887 c 0,17,18
EndSplineSet
EndChar
StartChar: q
Encoding: 113 113 84
Width: 1466
Flags: W
Fore
698 887 m 0,0,1
 584 887 584 887 523.5 803 c 128,-1,2
 463 719 463 719 463 559 c 0,3,4
 463 399 463 399 523.5 315 c 128,-1,5
 584 231 584 231 698 231 c 0,6,7
 813 231 813 231 873.5 315 c 128,-1,8
 934 399 934 399 934 559 c 0,9,10
 934 719 934 719 873.5 803 c 128,-1,11
 813 887 813 887 698 887 c 0,0,1
934 162 m 1,12,13
 860 63 860 63 771 17 c 128,-1,14
 682 -29 682 -29 565 -29 c 0,15,16
 358 -29 358 -29 225 135.5 c 128,-1,17
 92 300 92 300 92 559 c 0,18,19
 92 818 92 818 225 981.5 c 128,-1,20
 358 1145 358 1145 565 1145 c 0,21,22
 682 1145 682 1145 771 1099 c 128,-1,23
 860 1053 860 1053 934 954 c 1,24,-1
 934 1120 l 1,25,-1
 1294 1120 l 1,26,-1
 1294 -426 l 1,27,-1
 934 -426 l 1,28,-1
 934 162 l 1,12,13
EndSplineSet
EndChar
StartChar: r
Encoding: 114 114 85
Width: 1010
Flags: W
Fore
1004 815 m 1,0,1
 957 837 957 837 910.5 847.5 c 128,-1,2
 864 858 864 858 817 858 c 0,3,4
 679 858 679 858 604.5 769.5 c 128,-1,5
 530 681 530 681 530 516 c 2,6,-1
 530 0 l 1,7,-1
 172 0 l 1,8,-1
 172 1120 l 1,9,-1
 530 1120 l 1,10,-1
 530 936 l 1,11,12
 599 1046 599 1046 688.5 1096.5 c 128,-1,13
 778 1147 778 1147 903 1147 c 0,14,15
 921 1147 921 1147 942 1145.5 c 128,-1,16
 963 1144 963 1144 1003 1139 c 1,17,-1
 1004 815 l 1,0,1
EndSplineSet
KernsSLIF: 8217 86 0 0 8221 38 0 0 46 -292 0 0 44 -301 0 0
EndChar
StartChar: s
Encoding: 115 115 86
Width: 1219
Flags: W
Fore
1047 1085 m 1,0,-1
 1047 813 l 1,1,2
 932 861 932 861 825 885 c 128,-1,3
 718 909 718 909 623 909 c 0,4,5
 521 909 521 909 471.5 883.5 c 128,-1,6
 422 858 422 858 422 805 c 0,7,8
 422 762 422 762 459.5 739 c 128,-1,9
 497 716 497 716 594 705 c 1,10,-1
 657 696 l 2,11,12
 932 661 932 661 1027 581 c 128,-1,13
 1122 501 1122 501 1122 330 c 0,14,15
 1122 151 1122 151 990 61 c 128,-1,16
 858 -29 858 -29 596 -29 c 0,17,18
 485 -29 485 -29 366.5 -11.5 c 128,-1,19
 248 6 248 6 123 41 c 1,20,-1
 123 313 l 1,21,22
 230 261 230 261 342.5 235 c 128,-1,23
 455 209 455 209 571 209 c 0,24,25
 676 209 676 209 729 238 c 128,-1,26
 782 267 782 267 782 324 c 0,27,28
 782 372 782 372 745.5 395.5 c 128,-1,29
 709 419 709 419 600 432 c 2,30,-1
 537 440 l 2,31,32
 298 470 298 470 202 551 c 128,-1,33
 106 632 106 632 106 797 c 0,34,35
 106 975 106 975 228 1061 c 128,-1,36
 350 1147 350 1147 602 1147 c 0,37,38
 701 1147 701 1147 810 1132 c 128,-1,39
 919 1117 919 1117 1047 1085 c 1,0,-1
EndSplineSet
EndChar
StartChar: t
Encoding: 116 116 87
Width: 979
Flags: W
Fore
563 1438 m 1,0,-1
 563 1120 l 1,1,-1
 932 1120 l 1,2,-1
 932 864 l 1,3,-1
 563 864 l 1,4,-1
 563 389 l 2,5,6
 563 311 563 311 594 283.5 c 128,-1,7
 625 256 625 256 717 256 c 2,8,-1
 901 256 l 1,9,-1
 901 0 l 1,10,-1
 594 0 l 2,11,12
 382 0 382 0 293.5 88.5 c 128,-1,13
 205 177 205 177 205 389 c 2,14,-1
 205 864 l 1,15,-1
 27 864 l 1,16,-1
 27 1120 l 1,17,-1
 205 1120 l 1,18,-1
 205 1438 l 1,19,-1
 563 1438 l 1,0,-1
EndSplineSet
EndChar
StartChar: u
Encoding: 117 117 88
Width: 1458
Flags: W
Fore
160 436 m 2,0,-1
 160 1120 l 1,1,-1
 520 1120 l 1,2,-1
 520 1008 l 2,3,4
 520 917 520 917 519 779.5 c 128,-1,5
 518 642 518 642 518 596 c 0,6,7
 518 461 518 461 525 401.5 c 128,-1,8
 532 342 532 342 549 315 c 0,9,10
 571 280 571 280 606.5 261 c 128,-1,11
 642 242 642 242 688 242 c 0,12,13
 800 242 800 242 864 328 c 128,-1,14
 928 414 928 414 928 567 c 2,15,-1
 928 1120 l 1,16,-1
 1286 1120 l 1,17,-1
 1286 0 l 1,18,-1
 928 0 l 1,19,-1
 928 162 l 1,20,21
 847 64 847 64 756.5 17.5 c 128,-1,22
 666 -29 666 -29 557 -29 c 0,23,24
 363 -29 363 -29 261.5 90 c 128,-1,25
 160 209 160 209 160 436 c 2,0,-1
EndSplineSet
EndChar
StartChar: v
Encoding: 118 118 89
Width: 1335
Flags: W
Fore
31 1120 m 1,0,-1
 389 1120 l 1,1,-1
 668 346 l 1,2,-1
 946 1120 l 1,3,-1
 1305 1120 l 1,4,-1
 864 0 l 1,5,-1
 471 0 l 1,6,-1
 31 1120 l 1,0,-1
EndSplineSet
KernsSLIF: 46 -167 0 0 44 -167 0 0
EndChar
StartChar: w
Encoding: 119 119 90
Width: 1892
Flags: W
Fore
72 1120 m 1,0,-1
 420 1120 l 1,1,-1
 608 348 l 1,2,-1
 797 1120 l 1,3,-1
 1096 1120 l 1,4,-1
 1284 356 l 1,5,-1
 1473 1120 l 1,6,-1
 1821 1120 l 1,7,-1
 1526 0 l 1,8,-1
 1135 0 l 1,9,-1
 946 770 l 1,10,-1
 758 0 l 1,11,-1
 367 0 l 1,12,-1
 72 1120 l 1,0,-1
EndSplineSet
KernsSLIF: 46 -131 0 0 44 -131 0 0
EndChar
StartChar: x
Encoding: 120 120 91
Width: 1321
Flags: W
Fore
455 573 m 1,0,-1
 51 1120 l 1,1,-1
 430 1120 l 1,2,-1
 659 788 l 1,3,-1
 891 1120 l 1,4,-1
 1270 1120 l 1,5,-1
 866 575 l 1,6,-1
 1290 0 l 1,7,-1
 911 0 l 1,8,-1
 659 354 l 1,9,-1
 410 0 l 1,10,-1
 31 0 l 1,11,-1
 455 573 l 1,0,-1
EndSplineSet
EndChar
StartChar: y
Encoding: 121 121 92
Width: 1335
Flags: W
Fore
25 1120 m 1,0,-1
 383 1120 l 1,1,-1
 684 360 l 1,2,-1
 940 1120 l 1,3,-1
 1298 1120 l 1,4,-1
 827 -106 l 1,5,6
 756 -293 756 -293 661.5 -367.5 c 128,-1,7
 567 -442 567 -442 412 -442 c 2,8,-1
 205 -442 l 1,9,-1
 205 -207 l 1,10,-1
 317 -207 l 2,11,12
 408 -207 408 -207 449.5 -178 c 128,-1,13
 491 -149 491 -149 514 -74 c 1,14,-1
 524 -43 l 1,15,-1
 25 1120 l 1,0,-1
EndSplineSet
KernsSLIF: 46 -188 0 0 44 -159 0 0
EndChar
StartChar: z
Encoding: 122 122 93
Width: 1192
Flags: W
Fore
117 1120 m 1,0,-1
 1094 1120 l 1,1,-1
 1094 870 l 1,2,-1
 504 256 l 1,3,-1
 1094 256 l 1,4,-1
 1094 0 l 1,5,-1
 92 0 l 1,6,-1
 92 250 l 1,7,-1
 682 864 l 1,8,-1
 117 864 l 1,9,-1
 117 1120 l 1,0,-1
EndSplineSet
EndChar
StartChar: braceleft
Encoding: 123 123 94
Width: 1458
Flags: W
Fore
1202 -109 m 1,0,-1
 1202 -334 l 1,1,-1
 985 -334 l 2,2,3
 767 -334 767 -334 667 -246 c 128,-1,4
 567 -158 567 -158 567 35 c 2,5,-1
 567 227 l 2,6,7
 567 377 567 377 513 435.5 c 128,-1,8
 459 494 459 494 317 494 c 2,9,-1
 256 494 l 1,10,-1
 256 717 l 1,11,-1
 317 717 l 2,12,13
 459 717 459 717 513 775 c 128,-1,14
 567 833 567 833 567 983 c 2,15,-1
 567 1188 l 2,16,17
 567 1381 567 1381 667 1468.5 c 128,-1,18
 767 1556 767 1556 985 1556 c 2,19,-1
 1202 1556 l 1,20,-1
 1202 1331 l 1,21,-1
 1133 1331 l 2,22,23
 992 1331 992 1331 949.5 1287.5 c 128,-1,24
 907 1244 907 1244 907 1102 c 2,25,-1
 907 936 l 2,26,27
 907 779 907 779 862 708 c 128,-1,28
 817 637 817 637 707 612 c 1,29,30
 818 585 818 585 862.5 514 c 128,-1,31
 907 443 907 443 907 287 c 2,32,-1
 907 121 l 2,33,34
 907 -22 907 -22 949.5 -65.5 c 128,-1,35
 992 -109 992 -109 1133 -109 c 2,36,-1
 1202 -109 l 1,0,-1
EndSplineSet
EndChar
StartChar: bar
Encoding: 124 124 95
Width: 748
Flags: W
Fore
487 1565 m 1,0,-1
 487 -483 l 1,1,-1
 260 -483 l 1,2,-1
 260 1565 l 1,3,-1
 487 1565 l 1,0,-1
EndSplineSet
EndChar
StartChar: braceright
Encoding: 125 125 96
Width: 1458
Flags: W
Fore
256 -109 m 1,0,-1
 326 -109 l 2,1,2
 466 -109 466 -109 508.5 -65.5 c 128,-1,3
 551 -22 551 -22 551 121 c 2,4,-1
 551 287 l 2,5,6
 551 443 551 443 596 514 c 128,-1,7
 641 585 641 585 752 612 c 1,8,9
 641 637 641 637 596 708 c 128,-1,10
 551 779 551 779 551 936 c 2,11,-1
 551 1102 l 2,12,13
 551 1244 551 1244 508.5 1287.5 c 128,-1,14
 466 1331 466 1331 326 1331 c 2,15,-1
 256 1331 l 1,16,-1
 256 1556 l 1,17,-1
 473 1556 l 2,18,19
 691 1556 691 1556 791 1468.5 c 128,-1,20
 891 1381 891 1381 891 1188 c 2,21,-1
 891 983 l 2,22,23
 891 833 891 833 945 775 c 128,-1,24
 999 717 999 717 1141 717 c 2,25,-1
 1202 717 l 1,26,-1
 1202 494 l 1,27,-1
 1141 494 l 2,28,29
 999 494 999 494 945 435.5 c 128,-1,30
 891 377 891 377 891 227 c 2,31,-1
 891 35 l 2,32,33
 891 -158 891 -158 791 -246 c 128,-1,34
 691 -334 691 -334 473 -334 c 2,35,-1
 256 -334 l 1,36,-1
 256 -109 l 1,0,-1
EndSplineSet
EndChar
StartChar: asciitilde
Encoding: 126 126 97
Width: 1716
Flags: W
Fore
1499 850 m 1,0,-1
 1499 606 l 1,1,2
 1393 526 1393 526 1303.5 491.5 c 128,-1,3
 1214 457 1214 457 1118 457 c 0,4,5
 1011 457 1011 457 868 515 c 0,6,7
 854 521 854 521 846 524 c 0,8,9
 839 527 839 527 824 533 c 0,10,11
 669 594 669 594 575 594 c 0,12,13
 487 594 487 594 401 555.5 c 128,-1,14
 315 517 315 517 217 434 c 1,15,-1
 217 678 l 1,16,17
 324 758 324 758 413 792.5 c 128,-1,18
 502 827 502 827 598 827 c 0,19,20
 705 827 705 827 848 769 c 0,21,22
 863 763 863 763 870 760 c 0,23,24
 877 757 877 757 892 751 c 0,25,26
 1047 690 1047 690 1141 690 c 0,27,28
 1227 690 1227 690 1311.5 727.5 c 128,-1,29
 1396 765 1396 765 1499 850 c 1,0,-1
EndSplineSet
EndChar
StartChar: exclamdown
Encoding: 161 161 163
Width: 934
Flags: W
Fore
287 0 m 1,0,-1
 287 573 l 1,1,-1
 338 991 l 1,2,-1
 596 991 l 1,3,-1
 647 573 l 1,4,-1
 647 0 l 1,5,-1
 287 0 l 1,0,-1
287 1137 m 1,6,-1
 287 1493 l 1,7,-1
 647 1493 l 1,8,-1
 647 1137 l 1,9,-1
 287 1137 l 1,6,-1
EndSplineSet
EndChar
StartChar: cent
Encoding: 162 162 132
Width: 1425
Flags: W
Fore
702 858 m 1,0,1
 624 814 624 814 585.5 740.5 c 128,-1,2
 547 667 547 667 547 559 c 0,3,4
 547 450 547 450 585.5 376 c 128,-1,5
 624 302 624 302 702 260 c 1,6,-1
 702 858 l 1,0,1
1161 1085 m 1,7,-1
 1161 793 l 1,8,9
 1087 841 1087 841 1015.5 866 c 128,-1,10
 944 891 944 891 879 891 c 2,11,-1
 864 891 l 1,12,-1
 864 228 l 1,13,14
 953 229 953 229 1028.5 254 c 128,-1,15
 1104 279 1104 279 1161 326 c 1,16,-1
 1161 33 l 1,17,18
 1078 3 1078 3 1005 -13 c 128,-1,19
 932 -29 932 -29 874 -29 c 2,20,-1
 864 -29 l 1,21,-1
 864 -313 l 1,22,-1
 702 -313 l 1,23,-1
 702 -25 l 1,24,25
 440 15 440 15 307 166 c 128,-1,26
 174 317 174 317 174 575 c 0,27,28
 174 819 174 819 309 964.5 c 128,-1,29
 444 1110 444 1110 702 1145 c 1,30,-1
 702 1432 l 1,31,-1
 864 1432 l 1,32,-1
 865 1145 l 1,33,34
 936 1142 936 1142 1009.5 1127.5 c 128,-1,35
 1083 1113 1083 1113 1161 1085 c 1,7,-1
EndSplineSet
EndChar
StartChar: sterling
Encoding: 163 163 133
Width: 1425
Flags: W
Fore
1243 1466 m 1,0,-1
 1243 1180 l 1,1,2
 1173 1219 1173 1219 1099 1238 c 128,-1,3
 1025 1257 1025 1257 948 1257 c 0,4,5
 830 1257 830 1257 773.5 1194.5 c 128,-1,6
 717 1132 717 1132 717 1001 c 2,7,-1
 717 831 l 1,8,-1
 1090 831 l 1,9,-1
 1090 592 l 1,10,-1
 717 592 l 1,11,-1
 717 266 l 1,12,-1
 1255 266 l 1,13,-1
 1255 0 l 1,14,-1
 125 0 l 1,15,-1
 125 266 l 1,16,-1
 352 266 l 1,17,-1
 352 592 l 1,18,-1
 158 592 l 1,19,-1
 158 831 l 1,20,-1
 352 831 l 1,21,-1
 352 1001 l 2,22,23
 352 1272 352 1272 479 1396 c 128,-1,24
 606 1520 606 1520 881 1520 c 0,25,26
 973 1520 973 1520 1063.5 1506.5 c 128,-1,27
 1154 1493 1154 1493 1243 1466 c 1,0,-1
EndSplineSet
EndChar
StartChar: currency
Encoding: 164 164 189
Width: 1303
Flags: W
Fore
434 268 m 1,0,-1
 227 61 l 1,1,-1
 74 215 l 1,2,-1
 281 422 l 1,3,4
 253 471 253 471 239 524.5 c 128,-1,5
 225 578 225 578 225 641 c 0,6,7
 225 704 225 704 240 758 c 128,-1,8
 255 812 255 812 285 858 c 1,9,-1
 76 1063 l 1,10,-1
 229 1217 l 1,11,-1
 436 1010 l 1,12,13
 484 1040 484 1040 538 1054.5 c 128,-1,14
 592 1069 592 1069 653 1069 c 0,15,16
 707 1069 707 1069 761 1055.5 c 128,-1,17
 815 1042 815 1042 872 1014 c 1,18,-1
 1079 1221 l 1,19,-1
 1231 1067 l 1,20,-1
 1024 860 l 1,21,22
 1053 805 1053 805 1067 750 c 128,-1,23
 1081 695 1081 695 1081 641 c 0,24,25
 1081 578 1081 578 1066.5 525.5 c 128,-1,26
 1052 473 1052 473 1022 426 c 1,27,-1
 1229 219 l 1,28,-1
 1075 66 l 1,29,-1
 868 272 l 1,30,31
 822 242 822 242 769 227.5 c 128,-1,32
 716 213 716 213 653 213 c 0,33,34
 595 213 595 213 541 226.5 c 128,-1,35
 487 240 487 240 434 268 c 1,0,-1
653 422 m 0,36,37
 744 422 744 422 808 485.5 c 128,-1,38
 872 549 872 549 872 641 c 0,39,40
 872 733 872 733 808.5 796.5 c 128,-1,41
 745 860 745 860 653 860 c 0,42,43
 562 860 562 860 498 796.5 c 128,-1,44
 434 733 434 733 434 641 c 0,45,46
 434 548 434 548 497 485 c 128,-1,47
 560 422 560 422 653 422 c 0,36,37
EndSplineSet
EndChar
StartChar: yen
Encoding: 165 165 150
Width: 1425
Flags: W
Fore
1358 416 m 1,0,-1
 903 416 l 1,1,-1
 903 0 l 1,2,-1
 522 0 l 1,3,-1
 522 416 l 1,4,-1
 68 416 l 1,5,-1
 68 610 l 1,6,-1
 522 610 l 1,7,-1
 522 676 l 1,8,-1
 473 762 l 1,9,-1
 68 762 l 1,10,-1
 68 954 l 1,11,-1
 360 954 l 1,12,-1
 25 1493 l 1,13,-1
 424 1493 l 1,14,-1
 713 1032 l 1,15,-1
 1001 1493 l 1,16,-1
 1401 1493 l 1,17,-1
 1065 954 l 1,18,-1
 1358 954 l 1,19,-1
 1358 762 l 1,20,-1
 952 762 l 1,21,-1
 903 676 l 1,22,-1
 903 610 l 1,23,-1
 1358 610 l 1,24,-1
 1358 416 l 1,0,-1
EndSplineSet
EndChar
StartChar: brokenbar
Encoding: 166 166 231
Width: 748
Flags: W
Fore
487 1432 m 1,0,-1
 487 674 l 1,1,-1
 260 674 l 1,2,-1
 260 1432 l 1,3,-1
 487 1432 l 1,0,-1
487 408 m 1,4,-1
 487 -350 l 1,5,-1
 260 -350 l 1,6,-1
 260 408 l 1,7,-1
 487 408 l 1,4,-1
EndSplineSet
EndChar
StartChar: section
Encoding: 167 167 134
Width: 1024
Flags: W
Fore
885 1462 m 1,0,-1
 885 1235 l 1,1,2
 786 1274 786 1274 707 1293.5 c 128,-1,3
 628 1313 628 1313 571 1313 c 0,4,5
 496 1313 496 1313 458 1288.5 c 128,-1,6
 420 1264 420 1264 420 1217 c 0,7,8
 420 1150 420 1150 608 1071 c 0,9,10
 634 1060 634 1060 647 1055 c 0,11,12
 857 966 857 966 936.5 879.5 c 128,-1,13
 1016 793 1016 793 1016 668 c 0,14,15
 1016 551 1016 551 959.5 471.5 c 128,-1,16
 903 392 903 392 786 344 c 1,17,18
 863 303 863 303 900.5 246.5 c 128,-1,19
 938 190 938 190 938 117 c 0,20,21
 938 -28 938 -28 817 -111.5 c 128,-1,22
 696 -195 696 -195 483 -195 c 0,23,24
 398 -195 398 -195 307.5 -180.5 c 128,-1,25
 217 -166 217 -166 115 -137 c 1,26,-1
 115 100 l 1,27,28
 230 59 230 59 321 37.5 c 128,-1,29
 412 16 412 16 469 16 c 0,30,31
 534 16 534 16 573 41 c 128,-1,32
 612 66 612 66 612 106 c 0,33,34
 612 176 612 176 432 250 c 0,35,36
 396 264 396 264 377 272 c 0,37,38
 174 359 174 359 94 448.5 c 128,-1,39
 14 538 14 538 14 668 c 0,40,41
 14 772 14 772 69.5 849 c 128,-1,42
 125 926 125 926 238 977 c 1,43,44
 163 1028 163 1028 130.5 1083.5 c 128,-1,45
 98 1139 98 1139 98 1214 c 0,46,47
 98 1358 98 1358 212.5 1439 c 128,-1,48
 327 1520 327 1520 528 1520 c 0,49,50
 612 1520 612 1520 702 1505.5 c 128,-1,51
 792 1491 792 1491 885 1462 c 1,0,-1
434 856 m 1,52,53
 366 828 366 828 332.5 790 c 128,-1,54
 299 752 299 752 299 702 c 0,55,56
 299 635 299 635 360.5 586 c 128,-1,57
 422 537 422 537 604 471 c 1,58,59
 669 494 669 494 704 533.5 c 128,-1,60
 739 573 739 573 739 625 c 0,61,62
 739 692 739 692 670 745 c 128,-1,63
 601 798 601 798 434 856 c 1,52,53
EndSplineSet
EndChar
StartChar: dieresis
Encoding: 168 168 142
Width: 1024
Flags: W
Fore
197 1585 m 1,0,-1
 432 1585 l 1,1,-1
 432 1339 l 1,2,-1
 197 1339 l 1,3,-1
 197 1585 l 1,0,-1
592 1585 m 1,4,-1
 827 1585 l 1,5,-1
 827 1339 l 1,6,-1
 592 1339 l 1,7,-1
 592 1585 l 1,4,-1
EndSplineSet
Ligature: 0 1 'liga' space uni0308
EndChar
StartChar: copyright
Encoding: 169 169 139
Width: 2048
Flags: W
Fore
1323 1126 m 1,0,-1
 1323 911 l 1,1,2
 1266 948 1266 948 1210.5 965.5 c 128,-1,3
 1155 983 1155 983 1098 983 c 0,4,5
 985 983 985 983 921.5 919 c 128,-1,6
 858 855 858 855 858 741 c 0,7,8
 858 626 858 626 921 563 c 128,-1,9
 984 500 984 500 1098 500 c 0,10,11
 1162 500 1162 500 1219.5 518 c 128,-1,12
 1277 536 1277 536 1323 571 c 1,13,-1
 1323 358 l 1,14,15
 1258 336 1258 336 1192.5 324.5 c 128,-1,16
 1127 313 1127 313 1065 313 c 0,17,18
 854 313 854 313 727 430 c 128,-1,19
 600 547 600 547 600 741 c 0,20,21
 600 936 600 936 727 1052.5 c 128,-1,22
 854 1169 854 1169 1065 1169 c 0,23,24
 1134 1169 1134 1169 1198 1158.5 c 128,-1,25
 1262 1148 1262 1148 1323 1126 c 1,0,-1
1024 1331 m 0,26,27
 903 1331 903 1331 799 1287.5 c 128,-1,28
 695 1244 695 1244 608 1157 c 0,29,30
 521 1070 521 1070 477.5 966.5 c 128,-1,31
 434 863 434 863 434 741 c 0,32,33
 434 620 434 620 477.5 516.5 c 128,-1,34
 521 413 521 413 608 326 c 0,35,36
 694 240 694 240 798.5 197 c 128,-1,37
 903 154 903 154 1024 154 c 0,38,39
 1147 154 1147 154 1250 196.5 c 128,-1,40
 1353 239 1353 239 1440 326 c 0,41,42
 1527 413 1527 413 1570.5 516.5 c 128,-1,43
 1614 620 1614 620 1614 741 c 0,44,45
 1614 863 1614 863 1570.5 966.5 c 128,-1,46
 1527 1070 1527 1070 1440 1157 c 0,47,48
 1352 1245 1352 1245 1248.5 1288 c 128,-1,49
 1145 1331 1145 1331 1024 1331 c 0,26,27
1024 1485 m 0,50,51
 1176 1485 1176 1485 1307.5 1430 c 128,-1,52
 1439 1375 1439 1375 1548 1266 c 0,53,54
 1657 1157 1657 1157 1711 1026 c 128,-1,55
 1765 895 1765 895 1765 741 c 0,56,57
 1765 589 1765 589 1711 458.5 c 128,-1,58
 1657 328 1657 328 1548 219 c 0,59,60
 1439 110 1439 110 1307.5 55 c 128,-1,61
 1176 0 1176 0 1024 0 c 0,62,63
 872 0 872 0 740.5 55 c 128,-1,64
 609 110 609 110 500 219 c 0,65,66
 391 328 391 328 337 458.5 c 128,-1,67
 283 589 283 589 283 741 c 0,68,69
 283 895 283 895 337 1026 c 128,-1,70
 391 1157 391 1157 500 1266 c 0,71,72
 609 1375 609 1375 740.5 1430 c 128,-1,73
 872 1485 872 1485 1024 1485 c 0,50,51
EndSplineSet
EndChar
StartChar: ordfeminine
Encoding: 170 170 157
Width: 1155
Flags: W
Fore
176 573 m 1,0,-1
 989 573 l 1,1,-1
 989 373 l 1,2,-1
 176 373 l 1,3,-1
 176 573 l 1,0,-1
643 1081 m 2,4,5
 510 1081 510 1081 458 1055 c 128,-1,6
 406 1029 406 1029 406 967 c 0,7,8
 406 916 406 916 439 887 c 128,-1,9
 472 858 472 858 530 858 c 0,10,11
 619 858 619 858 676 915 c 128,-1,12
 733 972 733 972 733 1059 c 2,13,-1
 733 1081 l 1,14,-1
 643 1081 l 2,4,5
1001 1165 m 2,15,-1
 1001 717 l 1,16,-1
 756 717 l 1,17,-1
 756 844 l 1,18,19
 701 768 701 768 631 732 c 128,-1,20
 561 696 561 696 467 696 c 0,21,22
 322 696 322 696 240 763 c 128,-1,23
 158 830 158 830 158 946 c 0,24,25
 158 1087 158 1087 263 1153 c 128,-1,26
 368 1219 368 1219 594 1219 c 2,27,-1
 731 1219 l 1,28,-1
 731 1239 l 2,29,30
 731 1295 731 1295 686.5 1324.5 c 128,-1,31
 642 1354 642 1354 557 1354 c 0,32,33
 470 1354 470 1354 387 1336.5 c 128,-1,34
 304 1319 304 1319 225 1284 c 1,35,-1
 225 1464 l 1,36,37
 317 1492 317 1492 401.5 1506 c 128,-1,38
 486 1520 486 1520 561 1520 c 0,39,40
 785 1520 785 1520 893 1432.5 c 128,-1,41
 1001 1345 1001 1345 1001 1165 c 2,15,-1
EndSplineSet
EndChar
StartChar: guillemotleft
Encoding: 171 171 169
Width: 1323
Flags: W
Fore
651 1063 m 1,0,-1
 651 821 l 1,1,-1
 358 600 l 1,2,-1
 651 379 l 1,3,-1
 651 137 l 1,4,-1
 158 506 l 1,5,-1
 158 692 l 1,6,-1
 651 1063 l 1,0,-1
1130 1063 m 1,7,-1
 1130 821 l 1,8,-1
 838 600 l 1,9,-1
 1130 379 l 1,10,-1
 1130 137 l 1,11,-1
 637 506 l 1,12,-1
 637 692 l 1,13,-1
 1130 1063 l 1,7,-1
EndSplineSet
EndChar
StartChar: logicalnot
Encoding: 172 172 164
Width: 1716
Flags: W
Fore
217 909 m 1,0,-1
 1499 909 l 1,1,-1
 1499 287 l 1,2,-1
 1264 287 l 1,3,-1
 1264 672 l 1,4,-1
 217 672 l 1,5,-1
 217 909 l 1,0,-1
EndSplineSet
EndChar
StartChar: sfthyphen
Encoding: 173 173 256
Width: 850
Flags: W
Fore
111 735 m 1,0,-1
 739 735 l 1,1,-1
 739 444 l 1,2,-1
 111 444 l 1,3,-1
 111 735 l 1,0,-1
EndSplineSet
EndChar
StartChar: registered
Encoding: 174 174 138
Width: 2048
Flags: W
Fore
1024 1331 m 0,0,1
 903 1331 903 1331 799 1287.5 c 128,-1,2
 695 1244 695 1244 608 1157 c 0,3,4
 521 1070 521 1070 477.5 966.5 c 128,-1,5
 434 863 434 863 434 741 c 0,6,7
 434 620 434 620 477.5 516.5 c 128,-1,8
 521 413 521 413 608 326 c 0,9,10
 694 240 694 240 798.5 197 c 128,-1,11
 903 154 903 154 1024 154 c 0,12,13
 1147 154 1147 154 1250 196.5 c 128,-1,14
 1353 239 1353 239 1440 326 c 0,15,16
 1527 413 1527 413 1570.5 516.5 c 128,-1,17
 1614 620 1614 620 1614 741 c 0,18,19
 1614 863 1614 863 1570.5 966.5 c 128,-1,20
 1527 1070 1527 1070 1440 1157 c 0,21,22
 1352 1245 1352 1245 1248.5 1288 c 128,-1,23
 1145 1331 1145 1331 1024 1331 c 0,0,1
967 1036 m 2,24,-1
 932 1036 l 1,25,-1
 932 829 l 1,26,-1
 967 829 l 2,27,28
 1045 829 1045 829 1084.5 855.5 c 128,-1,29
 1124 882 1124 882 1124 934 c 0,30,31
 1124 986 1124 986 1085.5 1011 c 128,-1,32
 1047 1036 1047 1036 967 1036 c 2,24,-1
1004 1174 m 2,33,34
 1180 1174 1180 1174 1267 1114.5 c 128,-1,35
 1354 1055 1354 1055 1354 934 c 0,36,37
 1354 848 1354 848 1301.5 792 c 128,-1,38
 1249 736 1249 736 1153 719 c 1,39,40
 1194 697 1194 697 1229.5 657 c 128,-1,41
 1265 617 1265 617 1294 559 c 2,42,-1
 1405 338 l 1,43,-1
 1176 338 l 1,44,-1
 1069 551 l 1,45,46
 1031 629 1031 629 1002 661.5 c 128,-1,47
 973 694 973 694 944 694 c 2,48,-1
 932 694 l 1,49,-1
 932 338 l 1,50,-1
 719 338 l 1,51,-1
 719 1174 l 1,52,-1
 1004 1174 l 2,33,34
1024 1485 m 0,53,54
 1176 1485 1176 1485 1307.5 1430 c 128,-1,55
 1439 1375 1439 1375 1548 1266 c 0,56,57
 1657 1157 1657 1157 1711 1026 c 128,-1,58
 1765 895 1765 895 1765 741 c 0,59,60
 1765 589 1765 589 1711 458.5 c 128,-1,61
 1657 328 1657 328 1548 219 c 0,62,63
 1439 110 1439 110 1307.5 55 c 128,-1,64
 1176 0 1176 0 1024 0 c 0,65,66
 872 0 872 0 740.5 55 c 128,-1,67
 609 110 609 110 500 219 c 0,68,69
 391 328 391 328 337 458.5 c 128,-1,70
 283 589 283 589 283 741 c 0,71,72
 283 895 283 895 337 1026 c 128,-1,73
 391 1157 391 1157 500 1266 c 0,74,75
 609 1375 609 1375 740.5 1430 c 128,-1,76
 872 1485 872 1485 1024 1485 c 0,53,54
EndSplineSet
EndChar
StartChar: macron
Encoding: 175 175 217
Width: 1024
Flags: W
Fore
197 1556 m 1,0,-1
 827 1556 l 1,1,-1
 827 1368 l 1,2,-1
 197 1368 l 1,3,-1
 197 1556 l 1,0,-1
EndSplineSet
Ligature: 0 1 'liga' space uni0304
EndChar
StartChar: degree
Encoding: 176 176 131
Width: 1024
Flags: W
Fore
512 1372 m 0,0,1
 440 1372 440 1372 390 1322 c 128,-1,2
 340 1272 340 1272 340 1200 c 0,3,4
 340 1128 340 1128 389.5 1079 c 128,-1,5
 439 1030 439 1030 512 1030 c 0,6,7
 584 1030 584 1030 634 1079.5 c 128,-1,8
 684 1129 684 1129 684 1200 c 0,9,10
 684 1272 684 1272 633.5 1322 c 128,-1,11
 583 1372 583 1372 512 1372 c 0,0,1
512 1534 m 0,12,13
 578 1534 578 1534 639 1508.5 c 128,-1,14
 700 1483 700 1483 748 1436 c 1,15,16
 795 1388 795 1388 819.5 1328 c 128,-1,17
 844 1268 844 1268 844 1200 c 0,18,19
 844 1133 844 1133 819.5 1072.5 c 128,-1,20
 795 1012 795 1012 750 967 c 0,21,22
 702 919 702 919 640 893.5 c 128,-1,23
 578 868 578 868 510 868 c 0,24,25
 369 868 369 868 273.5 963.5 c 128,-1,26
 178 1059 178 1059 178 1200 c 0,27,28
 178 1341 178 1341 274.5 1437.5 c 128,-1,29
 371 1534 371 1534 512 1534 c 0,12,13
EndSplineSet
EndChar
StartChar: plusminus
Encoding: 177 177 147
Width: 1716
Flags: W
Fore
977 1284 m 1,0,-1
 977 930 l 1,1,-1
 1499 930 l 1,2,-1
 1499 694 l 1,3,-1
 977 694 l 1,4,-1
 977 340 l 1,5,-1
 739 340 l 1,6,-1
 739 694 l 1,7,-1
 217 694 l 1,8,-1
 217 930 l 1,9,-1
 739 930 l 1,10,-1
 739 1284 l 1,11,-1
 977 1284 l 1,0,-1
217 238 m 1,12,-1
 1499 238 l 1,13,-1
 1499 0 l 1,14,-1
 217 0 l 1,15,-1
 217 238 l 1,12,-1
EndSplineSet
EndChar
StartChar: twosuperior
Encoding: 178 178 241
Width: 897
Flags: W
Fore
412 836 m 1,0,-1
 782 836 l 1,1,-1
 782 668 l 1,2,-1
 109 668 l 1,3,-1
 109 821 l 1,4,-1
 422 1087 l 2,5,6
 483 1140 483 1140 509 1180 c 128,-1,7
 535 1220 535 1220 535 1260 c 0,8,9
 535 1310 535 1310 498.5 1341 c 128,-1,10
 462 1372 462 1372 403 1372 c 0,11,12
 341 1372 341 1372 270 1349.5 c 128,-1,13
 199 1327 199 1327 115 1280 c 1,14,-1
 115 1466 l 1,15,16
 202 1493 202 1493 283.5 1506.5 c 128,-1,17
 365 1520 365 1520 440 1520 c 0,18,19
 598 1520 598 1520 688 1455.5 c 128,-1,20
 778 1391 778 1391 778 1280 c 0,21,22
 778 1208 778 1208 742.5 1147.5 c 128,-1,23
 707 1087 707 1087 606 1001 c 2,24,-1
 412 836 l 1,0,-1
EndSplineSet
EndChar
StartChar: threesuperior
Encoding: 179 179 242
Width: 897
Flags: W
Fore
592 1120 m 1,0,1
 684 1102 684 1102 735 1047 c 128,-1,2
 786 992 786 992 786 911 c 0,3,4
 786 782 786 782 687 717.5 c 128,-1,5
 588 653 588 653 387 653 c 0,6,7
 306 653 306 653 232 664.5 c 128,-1,8
 158 676 158 676 90 698 c 1,9,-1
 90 872 l 1,10,11
 156 836 156 836 220 817.5 c 128,-1,12
 284 799 284 799 344 799 c 0,13,14
 439 799 439 799 491 831 c 128,-1,15
 543 863 543 863 543 922 c 0,16,17
 543 986 543 986 489.5 1016.5 c 128,-1,18
 436 1047 436 1047 322 1047 c 2,19,-1
 248 1047 l 1,20,-1
 248 1184 l 1,21,-1
 332 1184 l 2,22,23
 430 1184 430 1184 475 1207.5 c 128,-1,24
 520 1231 520 1231 520 1282 c 0,25,26
 520 1327 520 1327 481 1349.5 c 128,-1,27
 442 1372 442 1372 362 1372 c 0,28,29
 310 1372 310 1372 248.5 1359 c 128,-1,30
 187 1346 187 1346 117 1319 c 1,31,-1
 117 1485 l 1,32,33
 182 1502 182 1502 257.5 1511 c 128,-1,34
 333 1520 333 1520 420 1520 c 0,35,36
 587 1520 587 1520 675.5 1464 c 128,-1,37
 764 1408 764 1408 764 1303 c 0,38,39
 764 1234 764 1234 719 1186 c 128,-1,40
 674 1138 674 1138 592 1120 c 1,0,1
EndSplineSet
EndChar
StartChar: acute
Encoding: 180 180 141
Width: 1024
Flags: W
Fore
647 1638 m 1,0,-1
 930 1638 l 1,1,-1
 561 1262 l 1,2,-1
 365 1262 l 1,3,-1
 647 1638 l 1,0,-1
EndSplineSet
LCarets: 0 65535 '    ' 1 0 
Ligature: 0 1 'liga' space acutecomb
EndChar
StartChar: mu
Encoding: 181 181 151
Width: 1507
Flags: W
Fore
174 -428 m 1,0,-1
 174 1120 l 1,1,-1
 535 1120 l 1,2,-1
 535 469 l 2,3,4
 535 353 535 353 585 296.5 c 128,-1,5
 635 240 635 240 737 240 c 0,6,7
 840 240 840 240 890 296.5 c 128,-1,8
 940 353 940 353 940 469 c 2,9,-1
 940 1120 l 1,10,-1
 1300 1120 l 1,11,-1
 1300 371 l 2,12,13
 1300 300 1300 300 1316.5 272 c 128,-1,14
 1333 244 1333 244 1372 244 c 0,15,16
 1390 244 1390 244 1406.5 249 c 128,-1,17
 1423 254 1423 254 1442 266 c 1,18,-1
 1442 16 l 1,19,20
 1389 -7 1389 -7 1342.5 -18 c 128,-1,21
 1296 -29 1296 -29 1251 -29 c 0,22,23
 1162 -29 1162 -29 1105.5 8.5 c 128,-1,24
 1049 46 1049 46 1014 129 c 1,25,26
 967 50 967 50 899.5 10.5 c 128,-1,27
 832 -29 832 -29 743 -29 c 0,28,29
 669 -29 669 -29 617 -5.5 c 128,-1,30
 565 18 565 18 535 66 c 1,31,-1
 535 -428 l 1,32,-1
 174 -428 l 1,0,-1
EndSplineSet
EndChar
StartChar: paragraph
Encoding: 182 182 136
Width: 1303
Flags: W
Fore
604 1493 m 2,0,-1
 1124 1493 l 1,1,-1
 1124 -197 l 1,2,-1
 934 -197 l 1,3,-1
 934 1346 l 1,4,-1
 745 1346 l 1,5,-1
 745 -197 l 1,6,-1
 555 -197 l 1,7,-1
 555 649 l 1,8,9
 351 674 351 674 240 783.5 c 128,-1,10
 129 893 129 893 129 1071 c 0,11,12
 129 1261 129 1261 259 1377 c 128,-1,13
 389 1493 389 1493 604 1493 c 2,0,-1
EndSplineSet
EndChar
StartChar: periodcentered
Encoding: 183 183 195
Width: 778
Flags: W
Fore
209 905 m 1,0,-1
 569 905 l 1,1,-1
 569 518 l 1,2,-1
 209 518 l 1,3,-1
 209 905 l 1,0,-1
EndSplineSet
EndChar
StartChar: cedilla
Encoding: 184 184 221
Width: 1024
Flags: W
Fore
602 0 m 1,0,1
 660 -62 660 -62 687.5 -115 c 128,-1,2
 715 -168 715 -168 715 -215 c 0,3,4
 715 -310 715 -310 653.5 -355.5 c 128,-1,5
 592 -401 592 -401 465 -401 c 0,6,7
 417 -401 417 -401 366 -394.5 c 128,-1,8
 315 -388 315 -388 263 -375 c 1,9,-1
 262 -223 l 1,10,11
 312 -239 312 -239 353.5 -246.5 c 128,-1,12
 395 -254 395 -254 428 -254 c 0,13,14
 486 -254 486 -254 518.5 -231 c 128,-1,15
 551 -208 551 -208 551 -168 c 0,16,17
 551 -142 551 -142 529.5 -101 c 128,-1,18
 508 -60 508 -60 463 0 c 1,19,-1
 602 0 l 1,0,1
EndSplineSet
Ligature: 0 1 'liga' space uni0327
EndChar
StartChar: onesuperior
Encoding: 185 185 240
Width: 897
Flags: W
Fore
141 825 m 1,0,-1
 348 825 l 1,1,-1
 348 1346 l 1,2,-1
 123 1294 l 1,3,-1
 123 1454 l 1,4,-1
 352 1503 l 1,5,-1
 578 1503 l 1,6,-1
 578 825 l 1,7,-1
 782 825 l 1,8,-1
 782 668 l 1,9,-1
 141 668 l 1,10,-1
 141 825 l 1,0,-1
EndSplineSet
EndChar
StartChar: ordmasculine
Encoding: 186 186 158
Width: 1155
Flags: W
Fore
578 1520 m 0,0,1
 791 1520 791 1520 914.5 1409 c 128,-1,2
 1038 1298 1038 1298 1038 1108 c 0,3,4
 1038 918 1038 918 915 808 c 128,-1,5
 792 698 792 698 578 698 c 0,6,7
 364 698 364 698 240.5 808 c 128,-1,8
 117 918 117 918 117 1108 c 0,9,10
 117 1298 117 1298 240.5 1409 c 128,-1,11
 364 1520 364 1520 578 1520 c 0,0,1
166 573 m 1,12,-1
 989 573 l 1,13,-1
 989 373 l 1,14,-1
 166 373 l 1,15,-1
 166 573 l 1,12,-1
578 1350 m 0,16,17
 494 1350 494 1350 448.5 1287 c 128,-1,18
 403 1224 403 1224 403 1108 c 0,19,20
 403 992 403 992 448.5 930 c 128,-1,21
 494 868 494 868 578 868 c 0,22,23
 661 868 661 868 706.5 930 c 128,-1,24
 752 992 752 992 752 1108 c 0,25,26
 752 1224 752 1224 706.5 1287 c 128,-1,27
 661 1350 661 1350 578 1350 c 0,16,17
EndSplineSet
EndChar
StartChar: guillemotright
Encoding: 187 187 170
Width: 1323
Flags: W
Fore
672 1063 m 1,0,-1
 1165 692 l 1,1,-1
 1165 506 l 1,2,-1
 672 137 l 1,3,-1
 672 379 l 1,4,-1
 965 600 l 1,5,-1
 672 821 l 1,6,-1
 672 1063 l 1,0,-1
193 1063 m 1,7,-1
 684 692 l 1,8,-1
 684 506 l 1,9,-1
 193 137 l 1,10,-1
 193 379 l 1,11,-1
 485 600 l 1,12,-1
 193 821 l 1,13,-1
 193 1063 l 1,7,-1
EndSplineSet
EndChar
StartChar: onequarter
Encoding: 188 188 243
Width: 2120
Flags: W
Fore
1593 641 m 1,0,-1
 1354 317 l 1,1,-1
 1593 317 l 1,2,-1
 1593 641 l 1,0,-1
1575 836 m 1,3,-1
 1823 836 l 1,4,-1
 1823 317 l 1,5,-1
 1960 317 l 1,6,-1
 1960 162 l 1,7,-1
 1823 162 l 1,8,-1
 1823 0 l 1,9,-1
 1593 0 l 1,10,-1
 1593 162 l 1,11,-1
 1202 162 l 1,12,-1
 1202 330 l 1,13,-1
 1575 836 l 1,3,-1
733 -29 m 1,14,-1
 510 -29 l 1,15,-1
 1444 1520 l 1,16,-1
 1667 1520 l 1,17,-1
 733 -29 l 1,14,-1
119 825 m 1,18,-1
 324 825 l 1,19,-1
 324 1346 l 1,20,-1
 100 1294 l 1,21,-1
 100 1454 l 1,22,-1
 330 1503 l 1,23,-1
 553 1503 l 1,24,-1
 553 825 l 1,25,-1
 758 825 l 1,26,-1
 758 668 l 1,27,-1
 119 668 l 1,28,-1
 119 825 l 1,18,-1
EndSplineSet
Ligature: 0 1 'frac' one slash four
Ligature: 0 1 'frac' one fraction four
EndChar
StartChar: onehalf
Encoding: 189 189 244
Width: 2120
Flags: W
Fore
1649 168 m 1,0,-1
 2021 168 l 1,1,-1
 2021 0 l 1,2,-1
 1346 0 l 1,3,-1
 1346 154 l 1,4,-1
 1661 422 l 2,5,6
 1723 475 1723 475 1748.5 514 c 128,-1,7
 1774 553 1774 553 1774 592 c 0,8,9
 1774 642 1774 642 1737 673.5 c 128,-1,10
 1700 705 1700 705 1640 705 c 0,11,12
 1578 705 1578 705 1508.5 682.5 c 128,-1,13
 1439 660 1439 660 1354 612 c 1,14,-1
 1354 799 l 1,15,16
 1442 826 1442 826 1522.5 839 c 128,-1,17
 1603 852 1603 852 1677 852 c 0,18,19
 1836 852 1836 852 1925.5 788.5 c 128,-1,20
 2015 725 2015 725 2015 614 c 0,21,22
 2015 542 2015 542 1978.5 480 c 128,-1,23
 1942 418 1942 418 1843 334 c 2,24,-1
 1649 168 l 1,0,-1
733 -29 m 1,25,-1
 510 -29 l 1,26,-1
 1444 1520 l 1,27,-1
 1667 1520 l 1,28,-1
 733 -29 l 1,25,-1
119 825 m 1,29,-1
 324 825 l 1,30,-1
 324 1346 l 1,31,-1
 100 1294 l 1,32,-1
 100 1454 l 1,33,-1
 330 1503 l 1,34,-1
 553 1503 l 1,35,-1
 553 825 l 1,36,-1
 758 825 l 1,37,-1
 758 668 l 1,38,-1
 119 668 l 1,39,-1
 119 825 l 1,29,-1
EndSplineSet
Ligature: 0 1 'frac' one slash two
Ligature: 0 1 'frac' one fraction two
EndChar
StartChar: threequarters
Encoding: 190 190 245
Width: 2120
Flags: W
Fore
1575 836 m 1,0,-1
 1823 836 l 1,1,-1
 1823 317 l 1,2,-1
 1960 317 l 1,3,-1
 1960 162 l 1,4,-1
 1823 162 l 1,5,-1
 1823 0 l 1,6,-1
 1593 0 l 1,7,-1
 1593 162 l 1,8,-1
 1202 162 l 1,9,-1
 1202 330 l 1,10,-1
 1575 836 l 1,0,-1
1593 641 m 1,11,-1
 1354 317 l 1,12,-1
 1593 317 l 1,13,-1
 1593 641 l 1,11,-1
606 1120 m 1,14,15
 699 1102 699 1102 750 1047 c 128,-1,16
 801 992 801 992 801 911 c 0,17,18
 801 782 801 782 701.5 717.5 c 128,-1,19
 602 653 602 653 401 653 c 0,20,21
 320 653 320 653 246 664.5 c 128,-1,22
 172 676 172 676 104 698 c 1,23,-1
 104 872 l 1,24,25
 170 836 170 836 234 817.5 c 128,-1,26
 298 799 298 799 358 799 c 0,27,28
 453 799 453 799 505 831 c 128,-1,29
 557 863 557 863 557 922 c 0,30,31
 557 986 557 986 504 1016.5 c 128,-1,32
 451 1047 451 1047 336 1047 c 2,33,-1
 262 1047 l 1,34,-1
 262 1184 l 1,35,-1
 346 1184 l 2,36,37
 444 1184 444 1184 489.5 1207.5 c 128,-1,38
 535 1231 535 1231 535 1282 c 0,39,40
 535 1327 535 1327 495.5 1349.5 c 128,-1,41
 456 1372 456 1372 377 1372 c 0,42,43
 324 1372 324 1372 263 1359 c 128,-1,44
 202 1346 202 1346 131 1319 c 1,45,-1
 131 1485 l 1,46,47
 196 1502 196 1502 272 1511 c 128,-1,48
 348 1520 348 1520 434 1520 c 0,49,50
 601 1520 601 1520 689.5 1464 c 128,-1,51
 778 1408 778 1408 778 1303 c 0,52,53
 778 1234 778 1234 733 1186 c 128,-1,54
 688 1138 688 1138 606 1120 c 1,14,15
733 -29 m 1,55,-1
 510 -29 l 1,56,-1
 1444 1520 l 1,57,-1
 1667 1520 l 1,58,-1
 733 -29 l 1,55,-1
EndSplineSet
Ligature: 0 1 'frac' three slash four
Ligature: 0 1 'frac' three fraction four
EndChar
StartChar: questiondown
Encoding: 191 191 162
Width: 1188
Flags: W
Fore
487 987 m 1,0,-1
 848 987 l 1,1,-1
 848 938 l 2,2,3
 848 857 848 857 815.5 794 c 128,-1,4
 783 731 783 731 674 631 c 2,5,-1
 610 573 l 2,6,7
 554 522 554 522 528 476 c 128,-1,8
 502 430 502 430 502 383 c 0,9,10
 502 313 502 313 550 273 c 128,-1,11
 598 233 598 233 684 233 c 0,12,13
 765 233 765 233 859.5 267 c 128,-1,14
 954 301 954 301 1055 367 c 1,15,-1
 1055 53 l 1,16,17
 936 11 936 11 834.5 -9 c 128,-1,18
 733 -29 733 -29 641 -29 c 0,19,20
 397 -29 397 -29 269 70.5 c 128,-1,21
 141 170 141 170 141 360 c 0,22,23
 141 459 141 459 180 536.5 c 128,-1,24
 219 614 219 614 313 702 c 1,25,-1
 377 760 l 2,26,27
 445 821 445 821 466 859 c 128,-1,28
 487 897 487 897 487 942 c 2,29,-1
 487 987 l 1,0,-1
848 1137 m 1,30,-1
 487 1137 l 1,31,-1
 487 1493 l 1,32,-1
 848 1493 l 1,33,-1
 848 1137 l 1,30,-1
EndSplineSet
EndChar
StartChar: Aring
Encoding: 197 197 99
Width: 1585
Flags: W
Fore
1032 1464 m 1,0,-1
 1575 0 l 1,1,-1
 1188 0 l 1,2,-1
 1094 272 l 1,3,-1
 492 272 l 1,4,-1
 397 0 l 1,5,-1
 10 0 l 1,6,-1
 553 1464 l 1,7,8
 530 1498 530 1498 519 1535.5 c 128,-1,9
 508 1573 508 1573 508 1616 c 0,10,11
 508 1733 508 1733 591.5 1817 c 128,-1,12
 675 1901 675 1901 793 1901 c 0,13,14
 909 1901 909 1901 993 1817 c 128,-1,15
 1077 1733 1077 1733 1077 1616 c 0,16,17
 1077 1569 1077 1569 1066 1531 c 128,-1,18
 1055 1493 1055 1493 1032 1464 c 1,0,-1
662 1616 m 0,19,20
 662 1562 662 1562 700.5 1523.5 c 128,-1,21
 739 1485 739 1485 793 1485 c 0,22,23
 847 1485 847 1485 885.5 1523.5 c 128,-1,24
 924 1562 924 1562 924 1616 c 0,25,26
 924 1670 924 1670 885 1708.5 c 128,-1,27
 846 1747 846 1747 793 1747 c 0,28,29
 739 1747 739 1747 700.5 1708.5 c 128,-1,30
 662 1670 662 1670 662 1616 c 0,19,20
588 549 m 1,31,-1
 997 549 l 1,32,-1
 793 1143 l 1,33,-1
 588 549 l 1,31,-1
EndSplineSet
Ligature: 0 0 'liga' A uni030A
EndChar
StartChar: AE
Encoding: 198 198 144
Width: 2222
Flags: W
Fore
891 1237 m 1,0,-1
 635 627 l 1,1,-1
 1012 627 l 1,2,-1
 1012 1237 l 1,3,-1
 891 1237 l 1,0,-1
625 1493 m 1,4,-1
 2050 1493 l 1,5,-1
 2050 1202 l 1,6,-1
 1397 1202 l 1,7,-1
 1397 924 l 1,8,-1
 2011 924 l 1,9,-1
 2011 633 l 1,10,-1
 1397 633 l 1,11,-1
 1397 291 l 1,12,-1
 2073 291 l 1,13,-1
 2073 0 l 1,14,-1
 1012 0 l 1,15,-1
 1012 350 l 1,16,-1
 518 350 l 1,17,-1
 371 0 l 1,18,-1
 0 0 l 1,19,-1
 625 1493 l 1,4,-1
EndSplineSet
KernsSLIF: 45 -36 0 0
EndChar
StartChar: Eth
Encoding: 208 208 232
Width: 1716
Flags: W
Fore
592 1202 m 1,0,-1
 592 881 l 1,1,-1
 827 881 l 1,2,-1
 827 621 l 1,3,-1
 592 621 l 1,4,-1
 592 291 l 1,5,-1
 729 291 l 2,6,7
 965 291 965 291 1089.5 408 c 128,-1,8
 1214 525 1214 525 1214 748 c 0,9,10
 1214 970 1214 970 1090 1086 c 128,-1,11
 966 1202 966 1202 729 1202 c 2,12,-1
 592 1202 l 1,0,-1
207 1493 m 1,13,-1
 612 1493 l 2,14,15
 953 1493 953 1493 1119 1444.5 c 128,-1,16
 1285 1396 1285 1396 1405 1280 c 0,17,18
 1509 1179 1509 1179 1560.5 1047 c 128,-1,19
 1612 915 1612 915 1612 748 c 0,20,21
 1612 579 1612 579 1560.5 446.5 c 128,-1,22
 1509 314 1509 314 1405 213 c 0,23,24
 1284 97 1284 97 1116 48.5 c 128,-1,25
 948 0 948 0 612 0 c 2,26,-1
 207 0 l 1,27,-1
 207 621 l 1,28,-1
 33 621 l 1,29,-1
 33 881 l 1,30,-1
 207 881 l 1,31,-1
 207 1493 l 1,13,-1
EndSplineSet
KernsSLIF: 221 -149 0 0 8222 -36 0 0 8218 -36 0 0 376 -149 0 0 89 -149 0 0 45 38 0 0
EndChar
StartChar: multiply
Encoding: 215 215 239
Width: 1716
Flags: W
Fore
1460 1075 m 1,0,-1
 1026 641 l 1,1,-1
 1460 209 l 1,2,-1
 1292 41 l 1,3,-1
 858 473 l 1,4,-1
 424 41 l 1,5,-1
 256 209 l 1,6,-1
 690 641 l 1,7,-1
 256 1075 l 1,8,-1
 424 1243 l 1,9,-1
 858 809 l 1,10,-1
 1292 1243 l 1,11,-1
 1460 1075 l 1,0,-1
EndSplineSet
EndChar
StartChar: Oslash
Encoding: 216 216 145
Width: 1741
Flags: W
Fore
604 371 m 1,0,1
 656 309 656 309 721.5 279.5 c 128,-1,2
 787 250 787 250 870 250 c 0,3,4
 1047 250 1047 250 1144 380 c 128,-1,5
 1241 510 1241 510 1241 745 c 0,6,7
 1241 813 1241 813 1233.5 871.5 c 128,-1,8
 1226 930 1226 930 1210 979 c 1,9,-1
 604 371 l 1,0,1
1133 1126 m 1,10,11
 1082 1184 1082 1184 1017 1212.5 c 128,-1,12
 952 1241 952 1241 870 1241 c 0,13,14
 694 1241 694 1241 597 1111 c 128,-1,15
 500 981 500 981 500 745 c 0,16,17
 500 681 500 681 507 624.5 c 128,-1,18
 514 568 514 568 528 522 c 1,19,-1
 1133 1126 l 1,10,11
250 244 m 1,20,21
 176 344 176 344 139 469 c 128,-1,22
 102 594 102 594 102 745 c 0,23,24
 102 1108 102 1108 306.5 1314 c 128,-1,25
 511 1520 511 1520 870 1520 c 0,26,27
 1024 1520 1024 1520 1148 1482.5 c 128,-1,28
 1272 1445 1272 1445 1374 1368 c 1,29,-1
 1573 1567 l 1,30,-1
 1686 1452 l 1,31,-1
 1485 1253 l 1,32,33
 1562 1154 1562 1154 1600 1026.5 c 128,-1,34
 1638 899 1638 899 1638 745 c 0,35,36
 1638 383 1638 383 1434 177 c 128,-1,37
 1230 -29 1230 -29 870 -29 c 0,38,39
 717 -29 717 -29 589.5 10.5 c 128,-1,40
 462 50 462 50 360 129 c 1,41,-1
 158 -74 l 1,42,-1
 45 39 l 1,43,-1
 250 244 l 1,20,21
EndSplineSet
KernsSLIF: 221 -36 0 0 193 -36 0 0 194 -36 0 0 376 -36 0 0 195 -36 0 0 192 -36 0 0 196 -36 0 0 89 -36 0 0 88 -73 0 0 86 -36 0 0 65 -36 0 0 46 -45 0 0 45 38 0 0 44 -45 0 0
EndChar
StartChar: Thorn
Encoding: 222 222 236
Width: 1511
Flags: W
Fore
573 258 m 1,0,-1
 573 0 l 1,1,-1
 188 0 l 1,2,-1
 188 1493 l 1,3,-1
 573 1493 l 1,4,-1
 573 1233 l 1,5,-1
 827 1233 l 2,6,7
 1112 1233 1112 1233 1264.5 1106.5 c 128,-1,8
 1417 980 1417 980 1417 745 c 0,9,10
 1417 511 1417 511 1264.5 384.5 c 128,-1,11
 1112 258 1112 258 827 258 c 2,12,-1
 573 258 l 1,0,-1
573 956 m 1,13,-1
 573 537 l 1,14,-1
 786 537 l 2,15,16
 898 537 898 537 959 591.5 c 128,-1,17
 1020 646 1020 646 1020 745 c 0,18,19
 1020 846 1020 846 959 901 c 128,-1,20
 898 956 898 956 786 956 c 2,21,-1
 573 956 l 1,13,-1
EndSplineSet
EndChar
StartChar: germandbls
Encoding: 223 223 137
Width: 1473
Flags: W
Fore
172 1114 m 2,0,1
 172 1336 172 1336 307 1446 c 128,-1,2
 442 1556 442 1556 715 1556 c 0,3,4
 977 1556 977 1556 1111 1444 c 128,-1,5
 1245 1332 1245 1332 1245 1114 c 2,6,-1
 1245 1043 l 1,7,8
 1094 1033 1094 1033 1022 994 c 128,-1,9
 950 955 950 955 950 881 c 0,10,11
 950 844 950 844 974.5 815.5 c 128,-1,12
 999 787 999 787 1092 735 c 2,13,-1
 1161 698 l 2,14,15
 1277 634 1277 634 1330.5 549.5 c 128,-1,16
 1384 465 1384 465 1384 348 c 0,17,18
 1384 159 1384 159 1269.5 65 c 128,-1,19
 1155 -29 1155 -29 924 -29 c 0,20,21
 859 -29 859 -29 790 -16.5 c 128,-1,22
 721 -4 721 -4 647 20 c 1,23,-1
 647 264 l 1,24,25
 703 237 703 237 760.5 223 c 128,-1,26
 818 209 818 209 872 209 c 0,27,28
 944 209 944 209 988 245 c 128,-1,29
 1032 281 1032 281 1032 338 c 0,30,31
 1032 385 1032 385 1004.5 419 c 128,-1,32
 977 453 977 453 879 508 c 2,33,-1
 809 547 l 2,34,35
 721 596 721 596 679 663.5 c 128,-1,36
 637 731 637 731 637 821 c 0,37,38
 637 937 637 937 706.5 1016 c 128,-1,39
 776 1095 776 1095 921 1145 c 1,40,41
 920 1230 920 1230 872 1274.5 c 128,-1,42
 824 1319 824 1319 733 1319 c 0,43,44
 632 1319 632 1319 581 1264 c 128,-1,45
 530 1209 530 1209 530 1100 c 2,46,-1
 530 0 l 1,47,-1
 172 0 l 1,48,-1
 172 1114 l 2,0,1
EndSplineSet
EndChar
StartChar: ae
Encoding: 230 230 160
Width: 2146
Flags: W
Fore
1679 682 m 1,0,1
 1679 784 1679 784 1619.5 846.5 c 128,-1,2
 1560 909 1560 909 1464 909 c 0,3,4
 1361 909 1361 909 1297 850.5 c 128,-1,5
 1233 792 1233 792 1217 682 c 1,6,-1
 1679 682 l 1,0,1
674 504 m 2,7,8
 562 504 562 504 505.5 466 c 128,-1,9
 449 428 449 428 449 354 c 0,10,11
 449 286 449 286 494.5 247.5 c 128,-1,12
 540 209 540 209 621 209 c 0,13,14
 722 209 722 209 791 281.5 c 128,-1,15
 860 354 860 354 860 463 c 2,16,-1
 860 504 l 1,17,-1
 674 504 l 2,7,8
186 1090 m 1,18,19
 305 1118 305 1118 416.5 1132.5 c 128,-1,20
 528 1147 528 1147 625 1147 c 0,21,22
 775 1147 775 1147 883.5 1108.5 c 128,-1,23
 992 1070 992 1070 1063 991 c 1,24,25
 1140 1068 1140 1068 1242 1107.5 c 128,-1,26
 1344 1147 1344 1147 1466 1147 c 0,27,28
 1731 1147 1731 1147 1889.5 988 c 128,-1,29
 2048 829 2048 829 2048 563 c 2,30,-1
 2048 461 l 1,31,-1
 1210 461 l 1,32,33
 1224 335 1224 335 1301.5 272 c 128,-1,34
 1379 209 1379 209 1520 209 c 0,35,36
 1633 209 1633 209 1751.5 242.5 c 128,-1,37
 1870 276 1870 276 1995 344 c 1,38,-1
 1995 68 l 1,39,40
 1868 20 1868 20 1740.5 -4.5 c 128,-1,41
 1613 -29 1613 -29 1487 -29 c 0,42,43
 1308 -29 1308 -29 1175.5 24.5 c 128,-1,44
 1043 78 1043 78 971 178 c 1,45,46
 870 71 870 71 758.5 21 c 128,-1,47
 647 -29 647 -29 508 -29 c 0,48,49
 314 -29 314 -29 201 69.5 c 128,-1,50
 88 168 88 168 88 336 c 0,51,52
 88 533 88 533 223.5 625 c 128,-1,53
 359 717 359 717 649 717 c 2,54,-1
 860 717 l 1,55,-1
 860 745 l 2,56,57
 860 830 860 830 793 869.5 c 128,-1,58
 726 909 726 909 584 909 c 0,59,60
 469 909 469 909 370 886 c 128,-1,61
 271 863 271 863 186 817 c 1,62,-1
 186 1090 l 1,18,19
EndSplineSet
EndChar
StartChar: eth
Encoding: 240 240 233
Width: 1407
Flags: W
Fore
920 743 m 1,0,1
 865 770 865 770 811 783.5 c 128,-1,2
 757 797 757 797 705 797 c 0,3,4
 588 797 588 797 524.5 730.5 c 128,-1,5
 461 664 461 664 461 543 c 0,6,7
 461 395 461 395 526 311 c 128,-1,8
 591 227 591 227 705 227 c 0,9,10
 822 227 822 227 884 312.5 c 128,-1,11
 946 398 946 398 946 559 c 0,12,13
 946 604 946 604 939.5 650 c 128,-1,14
 933 696 933 696 920 743 c 1,0,1
1096 1100 m 1,15,16
 1213 964 1213 964 1266 835.5 c 128,-1,17
 1319 707 1319 707 1319 559 c 0,18,19
 1319 283 1319 283 1156.5 127 c 128,-1,20
 994 -29 994 -29 705 -29 c 0,21,22
 415 -29 415 -29 251.5 127 c 128,-1,23
 88 283 88 283 88 559 c 0,24,25
 88 790 88 790 238.5 922.5 c 128,-1,26
 389 1055 389 1055 653 1055 c 0,27,28
 699 1055 699 1055 738 1048.5 c 128,-1,29
 777 1042 777 1042 813 1028 c 1,30,-1
 623 1247 l 1,31,-1
 250 1128 l 1,32,-1
 213 1257 l 1,33,-1
 520 1354 l 1,34,-1
 332 1556 l 1,35,-1
 684 1556 l 1,36,-1
 795 1440 l 1,37,-1
 1171 1554 l 1,38,-1
 1206 1425 l 1,39,-1
 891 1329 l 1,40,-1
 1096 1100 l 1,15,16
EndSplineSet
EndChar
StartChar: divide
Encoding: 247 247 184
Width: 1716
Flags: W
Fore
705 395 m 1,0,-1
 1012 395 l 1,1,-1
 1012 86 l 1,2,-1
 705 86 l 1,3,-1
 705 395 l 1,0,-1
705 1198 m 1,4,-1
 1012 1198 l 1,5,-1
 1012 889 l 1,6,-1
 705 889 l 1,7,-1
 705 1198 l 1,4,-1
217 760 m 1,8,-1
 1499 760 l 1,9,-1
 1499 524 l 1,10,-1
 217 524 l 1,11,-1
 217 760 l 1,8,-1
EndSplineSet
EndChar
StartChar: oslash
Encoding: 248 248 161
Width: 1407
Flags: W
Fore
856 836 m 1,0,1
 827 864 827 864 789.5 877.5 c 128,-1,2
 752 891 752 891 705 891 c 0,3,4
 586 891 586 891 523.5 805.5 c 128,-1,5
 461 720 461 720 461 559 c 0,6,7
 461 518 461 518 464.5 485.5 c 128,-1,8
 468 453 468 453 475 426 c 1,9,-1
 856 836 l 1,0,1
547 287 m 1,10,11
 578 257 578 257 617.5 242 c 128,-1,12
 657 227 657 227 705 227 c 0,13,14
 822 227 822 227 884 312.5 c 128,-1,15
 946 398 946 398 946 559 c 0,16,17
 946 602 946 602 942.5 635.5 c 128,-1,18
 939 669 939 669 932 698 c 1,19,-1
 547 287 l 1,10,11
223 158 m 1,20,21
 156 236 156 236 122 336 c 128,-1,22
 88 436 88 436 88 559 c 0,23,24
 88 835 88 835 251.5 991 c 128,-1,25
 415 1147 415 1147 705 1147 c 0,26,27
 811 1147 811 1147 900.5 1125 c 128,-1,28
 990 1103 990 1103 1065 1059 c 1,29,-1
 1212 1217 l 1,30,-1
 1321 1116 l 1,31,-1
 1180 967 l 1,32,33
 1250 887 1250 887 1284.5 786 c 128,-1,34
 1319 685 1319 685 1319 559 c 0,35,36
 1319 283 1319 283 1156.5 127 c 128,-1,37
 994 -29 994 -29 705 -29 c 0,38,39
 597 -29 597 -29 506 -6.5 c 128,-1,40
 415 16 415 16 338 61 c 1,41,-1
 190 -94 l 1,42,-1
 78 0 l 1,43,-1
 223 158 l 1,20,21
EndSplineSet
EndChar
StartChar: thorn
Encoding: 254 254 237
Width: 1466
Flags: W
Fore
530 162 m 1,0,-1
 530 -426 l 1,1,-1
 172 -426 l 1,2,-1
 172 1556 l 1,3,-1
 530 1556 l 1,4,-1
 530 956 l 1,5,6
 604 1054 604 1054 694 1100.5 c 128,-1,7
 784 1147 784 1147 901 1147 c 0,8,9
 1108 1147 1108 1147 1241 982.5 c 128,-1,10
 1374 818 1374 818 1374 559 c 0,11,12
 1374 300 1374 300 1241 135.5 c 128,-1,13
 1108 -29 1108 -29 901 -29 c 0,14,15
 784 -29 784 -29 694 17.5 c 128,-1,16
 604 64 604 64 530 162 c 1,0,-1
768 887 m 0,17,18
 653 887 653 887 591.5 802.5 c 128,-1,19
 530 718 530 718 530 559 c 0,20,21
 530 400 530 400 591.5 315.5 c 128,-1,22
 653 231 653 231 768 231 c 0,23,24
 883 231 883 231 943.5 315 c 128,-1,25
 1004 399 1004 399 1004 559 c 0,26,27
 1004 719 1004 719 943.5 803 c 128,-1,28
 883 887 883 887 768 887 c 0,17,18
EndSplineSet
EndChar
StartChar: Dcroat
Encoding: 272 272 257
Width: 1716
Flags: HW
Fore
592 1202 m 1,0,-1
 592 881 l 1,1,-1
 827 881 l 1,2,-1
 827 621 l 1,3,-1
 592 621 l 1,4,-1
 592 291 l 1,5,-1
 729 291 l 2,6,7
 965 291 965 291 1089.5 408 c 128,-1,8
 1214 525 1214 525 1214 748 c 0,9,10
 1214 970 1214 970 1090 1086 c 128,-1,11
 966 1202 966 1202 729 1202 c 2,12,-1
 592 1202 l 1,0,-1
207 1493 m 1,13,-1
 612 1493 l 2,14,15
 953 1493 953 1493 1119 1444.5 c 128,-1,16
 1285 1396 1285 1396 1405 1280 c 0,17,18
 1509 1179 1509 1179 1560.5 1047 c 128,-1,19
 1612 915 1612 915 1612 748 c 0,20,21
 1612 579 1612 579 1560.5 446.5 c 128,-1,22
 1509 314 1509 314 1405 213 c 0,23,24
 1284 97 1284 97 1116 48.5 c 128,-1,25
 948 0 948 0 612 0 c 2,26,-1
 207 0 l 1,27,-1
 207 621 l 1,28,-1
 33 621 l 1,29,-1
 33 881 l 1,30,-1
 207 881 l 1,31,-1
 207 1493 l 1,13,-1
EndSplineSet
EndChar
StartChar: dcroat
Encoding: 273 273 255
Width: 1466
Flags: W
Fore
934 956 m 1,0,-1
 934 1237 l 1,1,-1
 608 1237 l 1,2,-1
 608 1442 l 1,3,-1
 934 1442 l 1,4,-1
 934 1556 l 1,5,-1
 1294 1556 l 1,6,-1
 1294 1442 l 1,7,-1
 1448 1442 l 1,8,-1
 1448 1237 l 1,9,-1
 1294 1237 l 1,10,-1
 1294 0 l 1,11,-1
 934 0 l 1,12,-1
 934 162 l 1,13,14
 860 63 860 63 771 17 c 128,-1,15
 682 -29 682 -29 565 -29 c 0,16,17
 358 -29 358 -29 225 135.5 c 128,-1,18
 92 300 92 300 92 559 c 0,19,20
 92 818 92 818 225 982.5 c 128,-1,21
 358 1147 358 1147 565 1147 c 0,22,23
 681 1147 681 1147 770.5 1100.5 c 128,-1,24
 860 1054 860 1054 934 956 c 1,0,-1
698 231 m 0,25,26
 813 231 813 231 873.5 315 c 128,-1,27
 934 399 934 399 934 559 c 0,28,29
 934 719 934 719 873.5 803 c 128,-1,30
 813 887 813 887 698 887 c 0,31,32
 584 887 584 887 523.5 803 c 128,-1,33
 463 719 463 719 463 559 c 0,34,35
 463 399 463 399 523.5 315 c 128,-1,36
 584 231 584 231 698 231 c 0,25,26
EndSplineSet
EndChar
StartChar: dotlessi
Encoding: 305 305 214
Width: 702
Flags: W
Fore
172 1120 m 1,0,-1
 530 1120 l 1,1,-1
 530 0 l 1,2,-1
 172 0 l 1,3,-1
 172 1120 l 1,0,-1
EndSplineSet
EndChar
StartChar: Lslash
Encoding: 321 321 225
Width: 1315
Flags: W
Fore
199 1493 m 1,0,-1
 584 1493 l 1,1,-1
 584 1077 l 1,2,-1
 838 1262 l 1,3,-1
 981 1069 l 1,4,-1
 584 797 l 1,5,-1
 584 291 l 1,6,-1
 1260 291 l 1,7,-1
 1260 0 l 1,8,-1
 199 0 l 1,9,-1
 199 524 l 1,10,-1
 51 418 l 1,11,-1
 -92 608 l 1,12,-1
 199 805 l 1,13,-1
 199 1493 l 1,0,-1
EndSplineSet
KernsSLIF: 366 -73 0 0 356 -339 0 0 253 -139 0 0 221 -319 0 0 217 -73 0 0 219 -73 0 0 218 -73 0 0 210 -73 0 0 212 -73 0 0 211 -73 0 0 376 -319 0 0 255 -139 0 0 8217 -339 0 0 8221 -376 0 0 338 -73 0 0 213 -73 0 0 216 -73 0 0 220 -73 0 0 214 -73 0 0 121 -139 0 0 89 -319 0 0 87 -159 0 0 86 -282 0 0 85 -73 0 0 84 -339 0 0 79 -73 0 0
EndChar
StartChar: lslash
Encoding: 322 322 226
Width: 760
Flags: W
Fore
199 1556 m 1,0,-1
 559 1556 l 1,1,-1
 559 1055 l 1,2,-1
 688 1143 l 1,3,-1
 799 989 l 1,4,-1
 559 825 l 1,5,-1
 559 0 l 1,6,-1
 199 0 l 1,7,-1
 199 641 l 1,8,-1
 74 555 l 1,9,-1
 -37 709 l 1,10,-1
 199 872 l 1,11,-1
 199 1556 l 1,0,-1
EndSplineSet
EndChar
StartChar: OE
Encoding: 338 338 176
Width: 2390
Flags: W
Fore
1180 1202 m 1,0,-1
 1075 1202 l 2,1,2
 786 1202 786 1202 643 1089 c 128,-1,3
 500 976 500 976 500 748 c 0,4,5
 500 519 500 519 643.5 405 c 128,-1,6
 787 291 787 291 1075 291 c 2,7,-1
 1180 291 l 1,8,-1
 1180 1202 l 1,0,-1
1090 1493 m 2,9,-1
 2218 1493 l 1,10,-1
 2218 1202 l 1,11,-1
 1565 1202 l 1,12,-1
 1565 924 l 1,13,-1
 2179 924 l 1,14,-1
 2179 633 l 1,15,-1
 1565 633 l 1,16,-1
 1565 291 l 1,17,-1
 2241 291 l 1,18,-1
 2241 0 l 1,19,-1
 1090 0 l 2,20,21
 1077 0 1077 0 1053.5 -1 c 128,-1,22
 1030 -2 1030 -2 1018 -2 c 0,23,24
 576 -2 576 -2 339 192.5 c 128,-1,25
 102 387 102 387 102 748 c 0,26,27
 102 1108 102 1108 339 1301.5 c 128,-1,28
 576 1495 576 1495 1018 1495 c 0,29,30
 1029 1495 1029 1495 1053 1494 c 128,-1,31
 1077 1493 1077 1493 1090 1493 c 2,9,-1
EndSplineSet
EndChar
StartChar: oe
Encoding: 339 339 177
Width: 2241
Flags: W
Fore
1774 682 m 1,0,1
 1774 784 1774 784 1714.5 846.5 c 128,-1,2
 1655 909 1655 909 1559 909 c 0,3,4
 1455 909 1455 909 1390 850.5 c 128,-1,5
 1325 792 1325 792 1309 682 c 1,6,-1
 1774 682 l 1,0,1
2142 563 m 2,7,-1
 2142 461 l 1,8,-1
 1305 461 l 1,9,10
 1318 335 1318 335 1396 272 c 128,-1,11
 1474 209 1474 209 1614 209 c 0,12,13
 1727 209 1727 209 1845.5 242.5 c 128,-1,14
 1964 276 1964 276 2089 344 c 1,15,-1
 2089 68 l 1,16,17
 1963 20 1963 20 1835 -4.5 c 128,-1,18
 1707 -29 1707 -29 1581 -29 c 0,19,20
 1416 -29 1416 -29 1309 11.5 c 128,-1,21
 1202 52 1202 52 1130 139 c 1,22,23
 1048 55 1048 55 941.5 13 c 128,-1,24
 835 -29 835 -29 705 -29 c 0,25,26
 415 -29 415 -29 251.5 127 c 128,-1,27
 88 283 88 283 88 559 c 0,28,29
 88 835 88 835 251.5 991 c 128,-1,30
 415 1147 415 1147 705 1147 c 0,31,32
 839 1147 839 1147 942 1106 c 128,-1,33
 1045 1065 1045 1065 1126 979 c 1,34,35
 1208 1066 1208 1066 1307.5 1106.5 c 128,-1,36
 1407 1147 1407 1147 1542 1147 c 0,37,38
 1820 1147 1820 1147 1981 990 c 128,-1,39
 2142 833 2142 833 2142 563 c 2,7,-1
705 891 m 0,40,41
 586 891 586 891 523.5 805.5 c 128,-1,42
 461 720 461 720 461 559 c 0,43,44
 461 398 461 398 523.5 312.5 c 128,-1,45
 586 227 586 227 705 227 c 0,46,47
 822 227 822 227 884 312.5 c 128,-1,48
 946 398 946 398 946 559 c 0,49,50
 946 720 946 720 884 805.5 c 128,-1,51
 822 891 822 891 705 891 c 0,40,41
EndSplineSet
EndChar
StartChar: florin
Encoding: 402 402 166
Width: 1425
Flags: W
Fore
1335 1516 m 1,0,-1
 1335 1262 l 1,1,2
 1289 1291 1289 1291 1247 1305 c 128,-1,3
 1205 1319 1205 1319 1163 1319 c 0,4,5
 1073 1319 1073 1319 1023 1261.5 c 128,-1,6
 973 1204 973 1204 946 1063 c 1,7,-1
 913 895 l 1,8,-1
 1198 895 l 1,9,-1
 1198 657 l 1,10,-1
 866 657 l 1,11,-1
 733 -16 l 1,12,13
 692 -222 692 -222 577.5 -324 c 128,-1,14
 463 -426 463 -426 272 -426 c 0,15,16
 207 -426 207 -426 140.5 -416 c 128,-1,17
 74 -406 74 -406 6 -385 c 1,18,-1
 6 -131 l 1,19,20
 52 -160 52 -160 94.5 -174 c 128,-1,21
 137 -188 137 -188 178 -188 c 0,22,23
 267 -188 267 -188 316.5 -130.5 c 128,-1,24
 366 -73 366 -73 395 68 c 1,25,-1
 512 657 l 1,26,-1
 270 657 l 1,27,-1
 270 895 l 1,28,-1
 559 895 l 1,29,-1
 610 1147 l 2,30,31
 652 1353 652 1353 765.5 1454.5 c 128,-1,32
 879 1556 879 1556 1069 1556 c 0,33,34
 1135 1556 1135 1556 1201 1546 c 128,-1,35
 1267 1536 1267 1536 1335 1516 c 1,0,-1
EndSplineSet
EndChar
StartChar: uni0237
Encoding: 567 567 218
Width: 702
Flags: HW
Fore
172 1120 m 1,0,-1
 530 1120 l 1,1,-1
 530 20 l 2,2,3
 530 -205 530 -205 422 -323.5 c 128,-1,4
 314 -442 314 -442 109 -442 c 2,5,-1
 -68 -442 l 1,6,-1
 -68 -207 l 1,7,-1
 -6 -207 l 2,8,9
 96 -207 96 -207 134 -161 c 128,-1,10
 172 -115 172 -115 172 20 c 2,11,-1
 172 1120 l 1,0,-1
EndSplineSet
EndChar
StartChar: uni02BB
Encoding: 699 699 173
Width: 778
Flags: W
Fore
551 856 m 1,0,-1
 211 856 l 1,1,-1
 211 1141 l 1,2,-1
 438 1493 l 1,3,-1
 651 1493 l 1,4,-1
 551 1141 l 1,5,-1
 551 856 l 1,0,-1
EndSplineSet
KernsSLIF: 221 75 0 0 193 -235 0 0 194 -235 0 0 376 75 0 0 195 -235 0 0 192 -235 0 0 198 -264 0 0 196 -235 0 0 89 75 0 0 86 38 0 0 74 -92 0 0 65 -235 0 0
EndChar
StartChar: circumflex
Encoding: 710 710 215
Width: 1024
Flags: W
Fore
391 1638 m 1,0,-1
 633 1638 l 1,1,-1
 889 1262 l 1,2,-1
 711 1262 l 1,3,-1
 512 1487 l 1,4,-1
 313 1262 l 1,5,-1
 135 1262 l 1,6,-1
 391 1638 l 1,0,-1
EndSplineSet
EndChar
StartChar: caron
Encoding: 711 711 224
Width: 1024
Flags: W
Fore
391 1262 m 1,0,-1
 135 1638 l 1,1,-1
 313 1638 l 1,2,-1
 512 1411 l 1,3,-1
 711 1638 l 1,4,-1
 889 1638 l 1,5,-1
 633 1262 l 1,6,-1
 391 1262 l 1,0,-1
EndSplineSet
EndChar
StartChar: breve
Encoding: 728 728 218
Width: 1024
Flags: W
Fore
176 1606 m 1,0,-1
 319 1606 l 1,1,2
 330 1536 330 1536 379.5 1499 c 128,-1,3
 429 1462 429 1462 512 1462 c 0,4,5
 595 1462 595 1462 644.5 1499 c 128,-1,6
 694 1536 694 1536 705 1606 c 1,7,-1
 848 1606 l 1,8,9
 842 1462 842 1462 755 1385.5 c 128,-1,10
 668 1309 668 1309 512 1309 c 0,11,12
 356 1309 356 1309 269 1385.5 c 128,-1,13
 182 1462 182 1462 176 1606 c 1,0,-1
EndSplineSet
Ligature: 0 1 'liga' space uni0306
EndChar
StartChar: dotaccent
Encoding: 729 729 219
Width: 1024
Flags: W
Fore
375 1585 m 1,0,-1
 649 1585 l 1,1,-1
 649 1339 l 1,2,-1
 375 1339 l 1,3,-1
 375 1585 l 1,0,-1
EndSplineSet
Ligature: 0 1 'liga' space uni0307
EndChar
StartChar: ring
Encoding: 730 730 220
Width: 1024
Flags: W
Fore
381 1534 m 0,0,1
 381 1479 381 1479 419.5 1441 c 128,-1,2
 458 1403 458 1403 512 1403 c 0,3,4
 567 1403 567 1403 605 1441.5 c 128,-1,5
 643 1480 643 1480 643 1534 c 0,6,7
 643 1588 643 1588 604.5 1626.5 c 128,-1,8
 566 1665 566 1665 512 1665 c 0,9,10
 457 1665 457 1665 419 1626.5 c 128,-1,11
 381 1588 381 1588 381 1534 c 0,0,1
227 1534 m 0,12,13
 227 1652 227 1652 310.5 1735.5 c 128,-1,14
 394 1819 394 1819 512 1819 c 0,15,16
 630 1819 630 1819 713.5 1735.5 c 128,-1,17
 797 1652 797 1652 797 1534 c 0,18,19
 797 1416 797 1416 713.5 1332.5 c 128,-1,20
 630 1249 630 1249 512 1249 c 0,21,22
 394 1249 394 1249 310.5 1332.5 c 128,-1,23
 227 1416 227 1416 227 1534 c 0,12,13
EndSplineSet
LCarets: 0 65535 '    ' 1 0 
Ligature: 0 1 'liga' space uni030A
EndChar
StartChar: ogonek
Encoding: 731 731 223
Width: 1024
Flags: W
Fore
453 0 m 1,0,-1
 594 0 l 1,1,2
 544 -67 544 -67 525 -103.5 c 128,-1,3
 506 -140 506 -140 506 -166 c 0,4,5
 506 -205 506 -205 535.5 -229.5 c 128,-1,6
 565 -254 565 -254 614 -254 c 0,7,8
 653 -254 653 -254 691.5 -246.5 c 128,-1,9
 730 -239 730 -239 770 -223 c 1,10,-1
 770 -379 l 1,11,12
 715 -390 715 -390 668 -395.5 c 128,-1,13
 621 -401 621 -401 580 -401 c 0,14,15
 465 -401 465 -401 403.5 -355 c 128,-1,16
 342 -309 342 -309 342 -223 c 0,17,18
 342 -170 342 -170 369 -115.5 c 128,-1,19
 396 -61 396 -61 453 0 c 1,0,-1
EndSplineSet
Ligature: 0 1 'liga' space uni0328
EndChar
StartChar: tilde
Encoding: 732 732 216
Width: 1024
Flags: W
Fore
514 1364 m 2,0,-1
 459 1401 l 2,1,2
 455 1403 455 1403 449 1407 c 0,3,4
 402 1438 402 1438 377 1438 c 0,5,6
 341 1438 341 1438 322 1407 c 128,-1,7
 303 1376 303 1376 303 1317 c 2,8,-1
 303 1309 l 1,9,-1
 164 1309 l 1,10,11
 164 1445 164 1445 215.5 1519 c 128,-1,12
 267 1593 267 1593 360 1593 c 0,13,14
 396 1593 396 1593 432.5 1579.5 c 128,-1,15
 469 1566 469 1566 510 1536 c 2,16,-1
 571 1493 l 2,17,18
 593 1478 593 1478 611.5 1470 c 128,-1,19
 630 1462 630 1462 645 1462 c 0,20,21
 681 1462 681 1462 701 1494 c 128,-1,22
 721 1526 721 1526 721 1583 c 2,23,-1
 721 1591 l 1,24,-1
 860 1591 l 1,25,26
 860 1455 860 1455 808.5 1381 c 128,-1,27
 757 1307 757 1307 664 1307 c 0,28,29
 628 1307 628 1307 594.5 1319 c 128,-1,30
 561 1331 561 1331 514 1364 c 2,0,-1
EndSplineSet
Ligature: 0 1 'liga' space tildecomb
EndChar
StartChar: hungarumlaut
Encoding: 733 733 222
Width: 1024
Flags: W
Fore
387 1638 m 1,0,-1
 604 1638 l 1,1,-1
 356 1262 l 1,2,-1
 193 1262 l 1,3,-1
 387 1638 l 1,0,-1
750 1638 m 1,4,-1
 981 1638 l 1,5,-1
 709 1262 l 1,6,-1
 535 1262 l 1,7,-1
 750 1638 l 1,4,-1
EndSplineSet
Ligature: 0 1 'liga' space uni030B
EndChar
StartChar: uni0326
Encoding: 806 806 223
Width: 1024
Flags: HW
Fore
443 -182 m 1,5,-1
 767 -182 l 1,2,-1
 545 -480 l 1,3,-1
 353 -480 l 1,4,-1
 443 -182 l 1,5,-1
EndSplineSet
EndChar
StartChar: Omega
Encoding: 937 937 159
Width: 1575
Flags: W
Fore
1227 256 m 1,0,-1
 1518 256 l 1,1,-1
 1518 0 l 1,2,-1
 909 0 l 1,3,-1
 909 291 l 1,4,5
 1035 377 1035 377 1101 508.5 c 128,-1,6
 1167 640 1167 640 1167 805 c 0,7,8
 1167 1008 1167 1008 1065.5 1124.5 c 128,-1,9
 964 1241 964 1241 786 1241 c 0,10,11
 609 1241 609 1241 507.5 1124.5 c 128,-1,12
 406 1008 406 1008 406 805 c 0,13,14
 406 641 406 641 472 508.5 c 128,-1,15
 538 376 538 376 664 291 c 1,16,-1
 664 0 l 1,17,-1
 55 0 l 1,18,-1
 55 256 l 1,19,-1
 346 256 l 1,20,21
 220 377 220 377 159 516 c 128,-1,22
 98 655 98 655 98 819 c 0,23,24
 98 1132 98 1132 286 1320.5 c 128,-1,25
 474 1509 474 1509 786 1509 c 0,26,27
 1099 1509 1099 1509 1287 1320.5 c 128,-1,28
 1475 1132 1475 1132 1475 819 c 0,29,30
 1475 655 1475 655 1414 516 c 128,-1,31
 1353 377 1353 377 1227 256 c 1,0,-1
EndSplineSet
EndChar
StartChar: pi
Encoding: 960 960 155
Width: 1319
Flags: W
Fore
1354 1092 m 1,0,-1
 1315 868 l 1,1,-1
 1139 868 l 1,2,-1
 985 0 l 1,3,-1
 698 0 l 1,4,-1
 850 868 l 1,5,-1
 612 868 l 1,6,-1
 461 0 l 1,7,-1
 174 0 l 1,8,-1
 326 868 l 1,9,-1
 301 868 l 2,10,11
 246 868 246 868 217 837 c 128,-1,12
 188 806 188 806 178 738 c 1,13,-1
 -35 737 l 1,14,15
 -6 936 -6 936 88 1014 c 128,-1,16
 182 1092 182 1092 399 1092 c 2,17,-1
 1354 1092 l 1,0,-1
EndSplineSet
EndChar
StartChar: afii10051
Encoding: 1026 1026 158
Width: 1799
Flags: HW
HStem: 0 21G<332 717> 633 291<717 1099> 1202 291<10 332 10 1212>
VStem: 332 385<0 633 0 1202> 1249 385<145 359>
Fore
1634 145 m 18,0,1
 1634 -134 1634 -134 1482 -272 c 0,2,3
 1331 -410 1331 -410 1024 -410 c 2,4,-1
 946 -410 l 1,5,-1
 946 -119 l 1,6,-1
 1006 -119 l 2,7,8
 1126 -119 1126 -119 1188 -52 c 0,9,10
 1249 15 1249 15 1249 145 c 2,11,-1
 1249 276 l 2,12,13
 1249 423 1249 423 1242 478 c 0,14,15
 1236 533 1236 533 1220 559 c 0,16,17
 1199 594 1199 594 1163 614 c 0,18,19
 1127 633 1127 633 1081 633 c 2,20,-1
 717 633 l 9,21,-1
 717 0 l 1,22,-1
 332 0 l 1,23,-1
 332 1202 l 1,24,-1
 10 1202 l 1,25,-1
 10 1493 l 1,26,-1
 1212 1493 l 1,27,-1
 1212 1202 l 1,28,-1
 717 1202 l 1,29,-1
 717 924 l 17,30,-1
 1239 924 l 2,31,32
 1431 924 1431 924 1533 805 c 0,33,34
 1634 688 1634 688 1634 459 c 10,35,-1
 1634 145 l 18,0,1
EndSplineSet
EndChar
StartChar: afii10053
Encoding: 1028 1028 160
Width: 1503
Flags: HW
HStem: -29 279<909 951> 633 291<521 1188> 1241 279<909 951>
Fore
508 633 m 0,0,1
 530 480 530 480 618 382 c 0,2,3
 738 250 738 250 942 250 c 0,4,5
 1057 250 1057 250 1161 284 c 128,-1,6
 1265 318 1265 318 1372 391 c 1,7,-1
 1372 82 l 1,8,9
 1266 27 1266 27 1151 -1 c 128,-1,10
 1036 -29 1036 -29 911 -29 c 0,11,12
 538 -29 538 -29 320 180 c 0,13,14
 102 388 102 388 102 745 c 0,15,16
 102 1103 102 1103 320 1312 c 0,17,18
 538 1520 538 1520 911 1520 c 0,19,20
 1036 1520 1036 1520 1151 1492 c 128,-1,21
 1266 1464 1266 1464 1372 1409 c 1,22,-1
 1372 1100 l 1,23,24
 1265 1173 1265 1173 1161 1207 c 128,-1,25
 1057 1241 1057 1241 942 1241 c 0,26,27
 736 1241 736 1241 618 1109 c 0,28,29
 550 1033 550 1033 521 924 c 0,30,-1
 1188 924 l 1,31,-1
 1188 633 l 1,32,-1
 508 633 l 0,0,1
EndSplineSet
EndChar
StartChar: afii10058
Encoding: 1033 1033 165
Width: 2364
Flags: HW
HStem: 0 21G<1128 1667> 1203 290<450 1128>
VStem: 450 385<1063.37 1203> 1128 385<0 633 0 1493> 1872 385<435 470>
Fore
1639 262 m 2,0,1
 1760 262 1760 262 1814 307 c 0,2,3
 1872 356 1872 356 1872 449 c 0,4,5
 1872 540 1872 540 1814 588 c 0,6,7
 1761 633 1761 633 1639 633 c 2,8,-1
 1513 633 l 1,9,-1
 1513 262 l 1,10,-1
 1639 262 l 2,0,1
1667 0 m 10,11,-1
 1128 0 l 17,12,-1
 1128 1203 l 1,13,-1
 835 1203 l 1,14,-1
 835 1111 l 2,15,16
 835 654 835 654 711 315 c 0,17,18
 592 -9 592 -9 54 -28 c 9,19,-1
 54 250 l 17,20,21
 295 295 295 295 363 468 c 0,22,23
 450 689 450 689 450 1211 c 2,24,-1
 450 1493 l 1,25,-1
 1513 1493 l 1,26,-1
 1513 924 l 1,27,-1
 1667 924 l 2,28,29
 1950 924 1950 924 2111 807 c 0,30,31
 2257 701 2257 701 2257 461 c 24,32,33
 2257 223 2257 223 2111 117 c 0,34,35
 1950 0 1950 0 1667 0 c 10,11,-1
EndSplineSet
EndChar
StartChar: afii10059
Encoding: 1034 1034 166
Width: 2314
Flags: HW
HStem: 633 291<573 1041 1426 1582> 1473 20G<188 573 1041 1426>
VStem: 188 385<0 633 0 1493> 1041 385<0 633 924 1493> 1785 385<431 465>
Fore
1552 262 m 2,0,1
 1673 262 1673 262 1727 307 c 0,2,3
 1785 356 1785 356 1785 449 c 0,4,5
 1785 540 1785 540 1727 588 c 0,6,7
 1674 633 1674 633 1552 633 c 2,8,-1
 1426 633 l 1,9,-1
 1426 262 l 1,10,-1
 1552 262 l 2,0,1
1580 0 m 10,11,-1
 1041 0 l 17,12,-1
 1041 633 l 1,13,-1
 573 633 l 1,14,-1
 573 0 l 1,15,-1
 188 0 l 1,16,-1
 188 1493 l 1,17,-1
 573 1493 l 1,18,-1
 573 924 l 1,19,-1
 1041 924 l 1,20,-1
 1041 1493 l 1,21,-1
 1426 1493 l 1,22,-1
 1426 924 l 1,23,-1
 1580 924 l 2,24,25
 1863 924 1863 924 2024 807 c 0,26,27
 2170 701 2170 701 2170 461 c 24,28,29
 2170 223 2170 223 2024 117 c 0,30,31
 1863 0 1863 0 1580 0 c 10,11,-1
EndSplineSet
EndChar
StartChar: afii10060
Encoding: 1035 1035 167
Width: 1799
Flags: HW
HStem: 0 21G<332 717 1249 1634> 633 291<717 1099> 1202 291<10 332 10 1212>
VStem: 332 385<0 633 0 1202> 1249 385<0 459>
Fore
1239 924 m 2,0,1
 1431 924 1431 924 1533 805 c 0,2,3
 1634 688 1634 688 1634 459 c 2,4,-1
 1634 0 l 1,5,-1
 1249 0 l 1,6,-1
 1249 111 l 1,7,-1
 1249 276 l 2,8,9
 1249 423 1249 423 1242 478 c 0,10,11
 1236 533 1236 533 1220 559 c 0,12,13
 1199 594 1199 594 1163 614 c 0,14,15
 1127 633 1127 633 1081 633 c 2,16,-1
 717 633 l 9,17,-1
 717 0 l 1,18,-1
 332 0 l 1,19,-1
 332 1202 l 1,20,-1
 10 1202 l 1,21,-1
 10 1493 l 1,22,-1
 1212 1493 l 1,23,-1
 1212 1202 l 1,24,-1
 717 1202 l 1,25,-1
 717 924 l 17,26,-1
 1239 924 l 2,0,1
EndSplineSet
EndChar
StartChar: afii10145
Encoding: 1039 1039 171
Width: 1714
Flags: HW
HStem: -426 21G<665 1049> 0 291<572 665 573 1526> 1473 20G<188 573 1141 1526>
VStem: 188 385<0 1493> 665 384<-426 0> 1141 385<291 1493>
Fore
1049 0 m 25,0,-1
 1049 -426 l 25,1,-1
 665 -426 l 25,2,-1
 665 0 l 25,3,-1
 188 0 l 1,4,-1
 188 1493 l 1,5,-1
 573 1493 l 1,6,-1
 573 291 l 1,7,-1
 1141 291 l 1,8,-1
 1141 1493 l 1,9,-1
 1526 1493 l 1,10,-1
 1526 0 l 1,11,-1
 1049 0 l 25,0,-1
EndSplineSet
EndChar
StartChar: afii10018
Encoding: 1041 1041 173
Width: 1561
Flags: HW
HStem: 0 21G<188 827> 1202 291<188 1217>
VStem: 188 385<0 633 0 1202> 1032 385<431 465>
Fore
799 262 m 2,0,1
 919.816 262 919.816 262 974 307 c 0,2,3
 1032 356 1032 356 1032 449 c 0,4,5
 1032 540 1032 540 974 588 c 0,6,7
 920.735 633 920.735 633 799 633 c 2,8,-1
 573 633 l 1,9,-1
 573 262 l 1,10,-1
 799 262 l 2,0,1
827 0 m 10,11,-1
 188 0 l 17,12,-1
 188 1493 l 1,13,-1
 1217 1493 l 25,14,-1
 1217 1202 l 25,15,-1
 573 1202 l 25,16,-1
 573 924 l 1,17,-1
 827 924 l 2,18,19
 1110 924 1110 924 1271 807 c 0,20,21
 1417 701 1417 701 1417 461 c 24,22,23
 1417 223 1417 223 1271 117 c 0,24,25
 1110 0 1110 0 827 0 c 10,11,-1
EndSplineSet
EndChar
StartChar: afii10020
Encoding: 1043 1043 175
Width: 1305
Flags: HW
Fore
188 0 m 1,0,-1
 573 0 l 1,1,-1
 573 1202 l 1,2,-1
 1249 1202 l 1,3,-1
 1249 1493 l 1,4,-1
 188 1493 l 1,5,-1
 188 0 l 1,0,-1
EndSplineSet
EndChar
StartChar: afii10021
Encoding: 1044 1044 176
Width: 1954
Flags: HW
HStem: 0 291<759 1520> 1202 291<507 1185>
VStem: 50 384<-426 0> 507 385<1065.72 1202> 1185 385<291 1493> 1520 384<-426 291>
Fore
434 0 m 25,0,-1
 434 -426 l 25,1,-1
 50 -426 l 17,2,-1
 50 291 l 17,3,-1
 245 291 l 17,4,5
 374 349 374 349 420 468 c 0,6,7
 507 695 507 695 507 1211 c 2,8,-1
 507 1493 l 1,9,-1
 1570 1493 l 17,10,-1
 1570 291 l 1,11,-1
 1904 291 l 25,12,-1
 1904 -426 l 25,13,-1
 1520 -426 l 17,14,-1
 1520 0 l 25,15,-1
 434 0 l 25,0,-1
759 292 m 25,0,0
 1185 291 l 1,16,-1
 1185 1202 l 1,17,-1
 892 1202 l 1,18,-1
 892 1111 l 2,19,20
 892 640.182 892 640.182 759 292 c 25,0,0
EndSplineSet
EndChar
StartChar: afii10024
Encoding: 1046 1046 178
Width: 2076
Flags: HW
HStem: 0 21G<47 385 844 1229 1688 2026> 1473 20G<97 435 844 1229 1638 1976>
VStem: 844 385<0 633 924 1493>
Fore
1229 924 m 0,0,-1
 1352 924 l 9,1,-1
 1638 1493 l 17,2,-1
 1976 1493 l 1,3,-1
 1626 796 l 1,4,-1
 2026 0 l 1,5,-1
 1688 0 l 9,6,-1
 1370 633 l 17,7,-1
 1229 633 l 0,8,-1
 1229 0 l 1,9,-1
 844 0 l 1,10,-1
 844 633 l 0,11,-1
 703 633 l 9,12,-1
 385 0 l 17,13,-1
 47 0 l 1,14,-1
 447 796 l 1,15,-1
 97 1493 l 1,16,-1
 435 1493 l 9,17,-1
 721 924 l 17,18,-1
 844 924 l 0,19,-1
 844 1493 l 1,20,-1
 1229 1493 l 1,21,-1
 1229 924 l 0,0,-1
EndSplineSet
EndChar
StartChar: afii10026
Encoding: 1048 1048 180
Width: 1714
Flags: HW
HStem: 0 21G<188 618 1161 1526> 1473 20G<188 553 1096 1526>
VStem: 188 365<469 1493> 1161 365<0 1024>
Fore
1526 1493 m 1,0,-1
 1096 1493 l 1,1,-1
 553 469 l 1,2,-1
 553 1493 l 1,3,-1
 188 1493 l 1,4,-1
 188 0 l 1,5,-1
 618 0 l 1,6,-1
 1161 1024 l 1,7,-1
 1161 0 l 1,8,-1
 1526 0 l 1,9,-1
 1526 1493 l 1,0,-1
EndSplineSet
EndChar
StartChar: afii10029
Encoding: 1051 1051 183
Width: 1701
Flags: HW
HStem: 0 21G<1128 1513> 1202 291<450 1128>
VStem: 450 385<1064.28 1202> 1128 385<0 1493>
Fore
54 -28 m 9,0,-1
 54 250 l 17,1,2
 296.827 295.341 296.827 295.341 363 468 c 0,3,4
 450 695 450 695 450 1211 c 2,5,-1
 450 1493 l 1,6,-1
 1513 1493 l 17,7,-1
 1513 0 l 17,8,-1
 1128 0 l 1,9,-1
 1128 1202 l 1,10,-1
 835 1202 l 1,11,-1
 835 1111 l 2,12,13
 835 654 835 654 711 315 c 0,14,15
 592 -9 592 -9 54 -28 c 9,0,-1
EndSplineSet
EndChar
StartChar: afii10033
Encoding: 1055 1055 187
Width: 1714
Flags: HW
Fore
1526 1493 m 17,0,-1
 1526 0 l 1,1,-1
 1141 0 l 1,2,-1
 1141 1202 l 1,3,-1
 573 1202 l 1,4,-1
 573 0 l 1,5,-1
 188 0 l 1,6,-1
 188 1493 l 9,7,-1
 1526 1493 l 17,0,-1
EndSplineSet
EndChar
StartChar: afii10037
Encoding: 1059 1059 191
Width: 1579
Flags: HW
HStem: -29 21G<183 373> 1473 20G<59 461 1114 1518>
Fore
931 248 m 2,0,1
 891 163 891 163 832 109 c 0,2,3
 680 -29 680 -29 373 -29 c 2,4,-1
 183 -29 l 1,5,-1
 183 262 l 1,6,-1
 409 262 l 2,7,8
 497 262 497 262 571 354 c 0,9,10
 587 374 587 374 596 390 c 9,11,-1
 59 1493 l 1,12,-1
 461 1493 l 1,13,-1
 792 813 l 1,14,-1
 1114 1493 l 1,15,-1
 1518 1493 l 1,16,-1
 931 248 l 2,0,1
EndSplineSet
EndChar
StartChar: afii10038
Encoding: 1060 1060 192
Width: 1741
Flags: HW
HStem: 0 21G<678 1063> 1473 20G<678 1063>
VStem: 102 398<745 769> 678 385<0 162 463 1028 1328 1493> 1241 397<745 769>
Fore
1063 463 m 0,0,1
 1110 482 1110 482 1144 512 c 0,2,3
 1241 603 1241 603 1241 745 c 0,4,5
 1241 892 1241 892 1144 979 c 0,6,7
 1111 1009 1111 1009 1063 1028 c 0,8,-1
 1063 463 l 0,0,1
678 463 m 0,9,-1
 678 1028 l 0,10,11
 632 1009 632 1009 597 979 c 0,12,13
 500 896 500 896 500 745 c 0,14,15
 500 591 500 591 597 512 c 0,16,17
 631 482 631 482 678 463 c 0,9,-1
1063 162 m 0,18,-1
 1063 0 l 1,19,-1
 678 0 l 1,20,-1
 678 162 l 0,21,22
 453 194 453 194 306 308 c 0,23,24
 102 466 102 466 102 745 c 0,25,26
 102 1025 102 1025 306 1183 c 0,27,28
 453 1297 453 1297 678 1329 c 0,29,-1
 678 1493 l 1,30,-1
 1063 1493 l 1,31,-1
 1063 1329 l 0,32,33
 1288 1297 1288 1297 1434 1183 c 0,34,35
 1638 1025 1638 1025 1638 745 c 0,36,37
 1638 466 1638 466 1434 308 c 0,38,39
 1288 195 1288 195 1063 162 c 0,18,-1
EndSplineSet
EndChar
StartChar: afii10040
Encoding: 1062 1062 194
Width: 1960
Flags: HW
HStem: -426 21G<1526 1910> 0 291<572 1526> 1473 20G<188 573 1141 1526>
VStem: 188 385<0 1493> 1141 385<291 1493> 1526 384<-426 291>
Fore
1910 291 m 25,0,-1
 1910 -426 l 25,1,-1
 1526 -426 l 17,2,-1
 1526 0 l 25,3,-1
 188 0 l 1,4,-1
 188 1493 l 1,5,-1
 573 1493 l 1,6,-1
 573 291 l 1,7,-1
 1141 291 l 1,8,-1
 1141 1493 l 1,9,-1
 1526 1493 l 1,10,-1
 1526 291 l 1,11,-1
 1910 291 l 25,0,-1
EndSplineSet
EndChar
StartChar: afii10041
Encoding: 1063 1063 195
Width: 1655
Flags: HW
HStem: 0 21G<1082 1467> 633 291<560 1082> 1473 20G<165 550 1082 1467>
VStem: 165 385<1162.35 1493> 1082 385<0 633 0 1493>
Fore
1082 0 m 9,0,-1
 1467 0 l 17,1,-1
 1467 1493 l 1,2,-1
 1082 1493 l 1,3,-1
 1082 924 l 17,4,-1
 718 924 l 2,5,6
 672 924 672 924 636 943 c 0,7,8
 600 963 600 963 579 998 c 0,9,10
 563 1024 563 1024 557 1079 c 0,11,12
 550 1143 550 1143 550 1281 c 2,13,-1
 550 1382 l 1,14,-1
 550 1493 l 1,15,-1
 165 1493 l 1,16,-1
 165 1098 l 2,17,18
 165 867 165 867 266 752 c 0,19,20
 370 633 370 633 560 633 c 2,21,-1
 1082 633 l 9,22,-1
 1082 0 l 9,0,-1
EndSplineSet
EndChar
StartChar: afii10042
Encoding: 1064 1064 196
Width: 2390
Flags: HW
HStem: 0 291<572 2201> 1473 20G<188 573 1816 2201>
VStem: 188 385<0 1493> 1002 385<291 1415> 1816 385<291 1493>
Fore
1387 291 m 9,0,-1
 1816 291 l 1,1,-1
 1816 1493 l 1,2,-1
 2201 1493 l 1,3,-1
 2201 0 l 1,4,-1
 188 0 l 1,5,-1
 188 1493 l 1,6,-1
 573 1493 l 1,7,-1
 573 291 l 1,8,-1
 1002 291 l 1,9,-1
 1002 1415 l 1,10,-1
 1387 1415 l 1,11,-1
 1387 291 l 9,0,-1
EndSplineSet
EndChar
StartChar: afii10043
Encoding: 1065 1065 197
Width: 2635
Flags: HW
HStem: 0 291<572 2201> 1473 20G<188 573 1816 2201>
VStem: 188 385<0 1493> 1002 385<291 1415> 1816 385<291 1493> 2201 384<-426 291>
Fore
2201 291 m 17,0,-1
 2585 291 l 25,1,-1
 2585 -426 l 25,2,-1
 2201 -426 l 17,3,-1
 2201 0 l 17,4,-1
 188 0 l 1,5,-1
 188 1493 l 1,6,-1
 573 1493 l 1,7,-1
 573 291 l 1,8,-1
 1002 291 l 1,9,-1
 1002 1415 l 1,10,-1
 1387 1415 l 1,11,-1
 1387 291 l 9,12,-1
 1816 291 l 1,13,-1
 1816 1493 l 1,14,-1
 2201 1493 l 9,15,-1
 2201 291 l 17,0,-1
EndSplineSet
EndChar
StartChar: afii10044
Encoding: 1066 1066 198
Width: 1924
Flags: HW
HStem: 0 21G<593 1232> 1202 291<50 593>
VStem: 593 385<0 633 0 1493> 1437 385<431 465>
Fore
1204 262 m 2,0,1
 1324.82 262 1324.82 262 1379 307 c 0,2,3
 1437 356 1437 356 1437 449 c 0,4,5
 1437 540 1437 540 1379 588 c 0,6,7
 1325.73 633 1325.73 633 1204 633 c 2,8,-1
 978 633 l 1,9,-1
 978 262 l 1,10,-1
 1204 262 l 2,0,1
593 1202 m 25,11,-1
 50 1202 l 17,12,-1
 50 1493 l 1,13,-1
 978 1493 l 1,14,-1
 978 924 l 1,15,-1
 1232 924 l 2,16,17
 1515 924 1515 924 1676 807 c 0,18,19
 1822 701 1822 701 1822 461 c 24,20,21
 1822 223 1822 223 1676 117 c 0,22,23
 1515 0 1515 0 1232 0 c 2,24,-1
 593 0 l 1,25,-1
 593 1202 l 25,11,-1
EndSplineSet
EndChar
StartChar: afii10045
Encoding: 1067 1067 199
Width: 2122
Flags: HW
Fore
1934 0 m 1,0,-1
 1549 0 l 1,1,-1
EndSplineSet
Ref: 1030 1030 N 1 0 0 1 1361 0
Ref: 1068 1068 N 1 0 0 1 0 0
EndChar
StartChar: afii10046
Encoding: 1068 1068 200
Width: 1561
Flags: HW
HStem: 0 21G<188 827> 1473 20G<188 573>
VStem: 188 385<0 633 0 1493> 1032 385<431 465>
Fore
799 262 m 2,0,1
 919.816 262 919.816 262 974 307 c 0,2,3
 1032 356 1032 356 1032 449 c 0,4,5
 1032 540 1032 540 974 588 c 0,6,7
 920.735 633 920.735 633 799 633 c 2,8,-1
 573 633 l 1,9,-1
 573 262 l 1,10,-1
 799 262 l 2,0,1
1417 461 m 24,11,12
 1417 223 1417 223 1271 117 c 0,13,14
 1110 0 1110 0 827 0 c 2,15,-1
 188 0 l 1,16,-1
 188 1493 l 1,17,-1
 573 1493 l 1,18,-1
 573 924 l 1,19,-1
 827 924 l 2,20,21
 1110 924 1110 924 1271 807 c 0,22,23
 1417 701 1417 701 1417 461 c 24,11,12
EndSplineSet
EndChar
StartChar: afii10047
Encoding: 1069 1069 201
Width: 1503
Flags: HW
HStem: -29 279<546 596> 633 291<315 982> 1241 279<546 596>
Fore
995 633 m 0,0,1
 973 480 973 480 885 382 c 0,2,3
 765 250 765 250 561 250 c 0,4,5
 446 250 446 250 342 284 c 128,-1,6
 238 318 238 318 131 391 c 1,7,-1
 131 82 l 1,8,9
 237 27 237 27 352 -1 c 128,-1,10
 467 -29 467 -29 592 -29 c 0,11,12
 965 -29 965 -29 1183 180 c 0,13,14
 1401 388 1401 388 1401 745 c 0,15,16
 1401 1103 1401 1103 1183 1312 c 0,17,18
 965 1520 965 1520 592 1520 c 0,19,20
 467 1520 467 1520 352 1492 c 128,-1,21
 237 1464 237 1464 131 1409 c 1,22,-1
 131 1100 l 1,23,24
 238 1173 238 1173 342 1207 c 128,-1,25
 446 1241 446 1241 561 1241 c 0,26,27
 767 1241 767 1241 885 1109 c 0,28,29
 953 1033 953 1033 982 924 c 0,30,-1
 315 924 l 1,31,-1
 315 633 l 1,32,-1
 995 633 l 0,0,1
EndSplineSet
EndChar
StartChar: afii10048
Encoding: 1070 1070 202
Width: 2324
Flags: HW
HStem: -29 279<1443 1469> 1241 279<1443 1469>
VStem: 188 385<0 633 0 1493> 1814 397<745 788>
Fore
689 924 m 1,0,1
 728 1162 728 1162 880 1314 c 0,2,3
 1084 1520 1084 1520 1443 1520 c 0,4,5
 1803 1520 1803 1520 2007 1314 c 128,-1,6
 2211 1108 2211 1108 2211 745 c 0,7,8
 2211 383 2211 383 2007 177 c 128,-1,9
 1803 -29 1803 -29 1443 -29 c 0,10,11
 1084 -29 1084 -29 880 177 c 0,12,13
 708 350 708 350 680 633 c 1,14,-1
 573 633 l 9,15,-1
 573 0 l 1,16,-1
 188 0 l 1,17,-1
 188 1493 l 1,18,-1
 573 1493 l 1,19,-1
 573 924 l 17,20,-1
 689 924 l 1,0,1
1443 1241 m 0,21,22
 1267 1241 1267 1241 1170 1111 c 128,-1,23
 1073 981 1073 981 1073 745 c 0,24,25
 1073 510 1073 510 1170 380 c 128,-1,26
 1267 250 1267 250 1443 250 c 0,27,28
 1620 250 1620 250 1717 380 c 128,-1,29
 1814 510 1814 510 1814 745 c 0,30,31
 1814 981 1814 981 1717 1111 c 128,-1,32
 1620 1241 1620 1241 1443 1241 c 0,21,22
EndSplineSet
EndChar
StartChar: afii10049
Encoding: 1071 1071 203
Width: 1577
Flags: HW
HStem: 0 21G<41 451 1004 1389> 565 266<872 1004> 1214 279<808 1389>
VStem: 231 385<1024 1081> 1004 385<0 565 0 1214>
Fore
842 831 m 2,0,1
 721 831 721 831 668.5 876 c 128,-1,2
 616 921 616 921 616 1024 c 0,3,4
 616 1126 616 1126 668.5 1170 c 128,-1,5
 721 1214 721 1214 842 1214 c 2,6,-1
 1004 1214 l 1,7,-1
 1004 831 l 1,8,-1
 842 831 l 2,0,1
1004 565 m 1,9,-1
 1004 0 l 1,10,-1
 1389 0 l 1,11,-1
 1389 1493 l 1,12,-1
 801 1493 l 2,13,14
 506 1493 506 1493 368.5 1394 c 128,-1,15
 231 1295 231 1295 231 1081 c 0,16,17
 231 933 231 933 302.5 838 c 128,-1,18
 374 743 374 743 518 698 c 1,19,20
 439 680 439 680 376.5 616.5 c 128,-1,21
 314 553 314 553 250 424 c 2,22,-1
 41 0 l 1,23,-1
 451 0 l 1,24,-1
 633 371 l 2,25,26
 688 483 688 483 744.5 524 c 128,-1,27
 801 565 801 565 895 565 c 2,28,-1
 1004 565 l 1,9,-1
EndSplineSet
EndChar
StartChar: afii10066
Encoding: 1073 1073 205
Width: 1407
Flags: HW
HStem: -29 254<705 714> 1282 238<748 810>
VStem: 89 370<530 580> 220 325<1209 1248> 949 371<514 580>
Fore
1156 1212 m 17,0,1
 1034 1282 1034 1282 748 1282 c 0,2,3
 545 1282 545 1282 545 1209 c 24,4,5
 545 1143 545 1143 761 1110 c 0,6,7
 1010 1073 1010 1073 1150 961 c 0,8,9
 1320 826 1320 826 1320 549 c 0,10,11
 1320 284 1320 284 1156 128 c 0,12,13
 992 -29 992 -29 705 -29 c 0,14,15
 419 -29 419 -29 253 128 c 0,16,17
 89 284 89 284 89 559 c 0,18,19
 89 764 89 764 253 928 c 0,20,21
 304 978 304 978 368 1010 c 1,22,23
 220 1089 220 1089 220 1248 c 8,24,25
 220 1520 220 1520 748 1520 c 0,26,27
 1013 1520 1013 1520 1156 1450 c 9,28,-1
 1156 1212 l 17,0,1
620 880 m 1,29,30
 567 858 567 858 525 802 c 0,31,32
 459 715 459 715 459 558 c 128,-1,33
 459 401 459 401 525 313 c 0,34,35
 590 225 590 225 705 225 c 0,36,37
 817 225 817 225 883 314 c 0,38,39
 949 404 949 404 949 550 c 0,40,41
 949 703 949 703 879 777 c 0,42,43
 807 854 807 854 708 865 c 0,44,45
 662 870 662 870 620 880 c 1,29,30
EndSplineSet
EndChar
StartChar: afii10067
Encoding: 1074 1074 206
Width: 1246
Flags: HW
HStem: 0 21G<172 684> 899 221<172 669>
VStem: 172 358<0 474 0 899> 775 332<798 824> 820 336<321 350>
Fore
649 698 m 2,0,1
 711 698 711 698 743 723 c 0,2,3
 775 749 775 749 775 799 c 128,-1,4
 775 849 775 849 743 874 c 128,-1,5
 711 899 711 899 649 899 c 2,6,-1
 530 899 l 1,7,-1
 530 698 l 1,8,-1
 649 698 l 2,0,1
661 224 m 2,9,10
 740 224 740 224 780 256 c 0,11,12
 820 287 820 287 820 350 c 0,13,14
 820 409.18 820 409.18 780 442 c 0,15,16
 741 474 741 474 661 474 c 2,17,-1
 530 474 l 1,18,-1
 530 224 l 1,19,-1
 661 224 l 2,9,10
948 599 m 1,20,21
 1047 572 1047 572 1101 500 c 0,22,23
 1156 427 1156 427 1156 321 c 0,24,25
 1156 159 1156 159 1039 80 c 0,26,27
 922 0 922 0 684 0 c 2,28,-1
 172 0 l 1,29,-1
 172 1120 l 1,30,-1
 635 1120 l 2,31,32
 884 1120 884 1120 995 1049 c 0,33,34
 1107 979 1107 979 1107 824 c 0,35,36
 1107 742 1107 742 1066 684 c 0,37,38
 1025 627 1025 627 948 599 c 1,20,21
EndSplineSet
EndChar
StartChar: afii10068
Encoding: 1075 1075 207
Width: 1070
Flags: HW
HStem: 0 21G<172 530> 899 221<530 1021>
VStem: 172 358<0 1120>
Fore
172 0 m 1,0,-1
 530 0 l 1,1,-1
 530 899 l 1,2,-1
 1021 899 l 1,3,-1
 1021 1120 l 1,4,-1
 172 1120 l 1,5,-1
 172 0 l 1,0,-1
EndSplineSet
EndChar
StartChar: afii10069
Encoding: 1076 1076 208
Width: 1678
Flags: HW
HStem: 0 221<709 1284> 899 221<454 976>
VStem: 50 358<-426 0> 454 358<797.004 899> 976 358<221 1120> 1284 358<-426 221>
Fore
204 221 m 17,0,1
 333 257 333 257 384 380 c 0,2,3
 454 550 454 550 454 908 c 2,4,-1
 454 1120 l 1,5,-1
 1334 1120 l 17,6,-1
 1334 221 l 1,7,-1
 1642 221 l 25,8,-1
 1642 -426 l 25,9,-1
 1284 -426 l 17,10,-1
 1284 0 l 25,11,-1
 408 0 l 25,12,-1
 408 -426 l 25,13,-1
 50 -426 l 17,14,-1
 50 221 l 17,15,-1
 204 221 l 17,0,1
976 899 m 17,16,-1
 812 899 l 1,17,-1
 812 833 l 2,18,19
 812 482 812 482 709 221 c 9,20,-1
 976 221 l 9,21,-1
 976 899 l 17,16,-1
EndSplineSet
EndChar
StartChar: afii10072
Encoding: 1078 1078 210
Width: 1681
Flags: HW
HStem: 0 21G<38 333 660 1018 1345 1641> 1100 20G<78 373 660 1018 1305 1601>
VStem: 660 358<0 473 694 1120>
Fore
1018 694 m 0,0,-1
 1077 694 l 9,1,-1
 1305 1120 l 17,2,-1
 1601 1120 l 1,3,-1
 1321 597 l 1,4,-1
 1641 0 l 1,5,-1
 1345 0 l 9,6,-1
 1091 473 l 17,7,-1
 1018 473 l 0,8,-1
 1018 0 l 1,9,-1
 660 0 l 1,10,-1
 660 473 l 0,11,-1
 587 473 l 9,12,-1
 333 0 l 17,13,-1
 38 0 l 1,14,-1
 358 597 l 1,15,-1
 78 1120 l 1,16,-1
 373 1120 l 9,17,-1
 602 694 l 17,18,-1
 660 694 l 0,19,-1
 660 1120 l 1,20,-1
 1018 1120 l 1,21,-1
 1018 694 l 0,0,-1
EndSplineSet
EndChar
StartChar: afii10073
Encoding: 1079 1079 211
Width: 1140
Flags: HW
HStem: -29 230<427 477> 919 228<450 518>
VStem: 656 326<806 853> 684 326<318 340>
Fore
763 604 m 1,0,1
 884 574 884 574 947 502 c 128,-1,2
 1010 430 1010 430 1010 318 c 0,3,4
 1010 145 1010 145 874 58 c 128,-1,5
 738 -29 738 -29 477 -29 c 0,6,7
 385 -29 385 -29 292 -15 c 0,8,9
 200 -1 200 -1 110 27 c 1,10,-1
 110 279 l 1,11,12
 181 243 181 243 275 221 c 0,13,14
 360 201 360 201 437 201 c 0,15,16
 553 201 553 201 618 240 c 0,17,18
 684 280 684 280 684 338 c 0,19,20
 684 398 684 398 617 437 c 0,21,22
 555 474 555 474 426 474 c 2,23,-1
 308 474 l 1,24,-1
 308 698 l 1,25,-1
 432 698 l 2,26,27
 549 698 549 698 599 728 c 0,28,29
 656 762 656 762 656 806 c 0,30,31
 656 848 656 848 600 884 c 0,32,33
 545 919 545 919 450 919 c 0,34,35
 391 919 391 919 306 903 c 128,-1,36
 221 887 221 887 161 860 c 1,37,-1
 161 1099 l 1,38,39
 252 1123 252 1123 342 1135 c 0,40,41
 431 1147 431 1147 518 1147 c 0,42,43
 750 1147 750 1147 866 1075 c 0,44,45
 982 1004 982 1004 982 853 c 0,46,47
 982 756 982 756 926 692 c 0,48,49
 871 629 871 629 763 604 c 1,0,1
EndSplineSet
EndChar
StartChar: afii10074
Encoding: 1080 1080 212
Width: 1415
Flags: HW
HStem: 0 21G<172 544 883 1243> 1100 20G<172 530 871 1243>
VStem: 172 358<0 1120> 883 360<0 1120>
Fore
1243 1120 m 1,0,-1
 1243 0 l 1,1,-1
 883 0 l 1,2,-1
 883 593 l 1,3,-1
 544 0 l 1,4,-1
 172 0 l 1,5,-1
 172 1120 l 1,6,-1
 530 1120 l 1,7,-1
 530 524 l 1,8,-1
 871 1120 l 1,9,-1
 1243 1120 l 1,0,-1
EndSplineSet
EndChar
StartChar: afii10076
Encoding: 1082 1082 214
Width: 1290
Flags: HW
Fore
172 1120 m 1,0,-1
 530 1120 l 1,1,-1
 530 799 l 1,2,-1
 884 1120 l 1,3,-1
 1282 1120 l 1,4,-1
 707 590 l 1,5,-1
 1341 0 l 1,6,-1
 916 0 l 1,7,-1
 530 353 l 1,8,-1
 530 0 l 1,9,-1
 172 0 l 1,10,-1
 172 1120 l 1,0,-1
EndSplineSet
EndChar
StartChar: afii10077
Encoding: 1083 1083 215
Width: 1418
Flags: HW
HStem: 0 21G<882 1240> 899 221<360 882>
VStem: 360 358<797.004 899> 882 358<0 1120>
Fore
43 -29 m 9,0,-1
 43 227 l 17,1,2
 241 261 241 261 290 380 c 0,3,4
 360 550 360 550 360 908 c 2,5,-1
 360 1120 l 1,6,-1
 1240 1120 l 17,7,-1
 1240 0 l 17,8,-1
 882 0 l 1,9,-1
 882 899 l 1,10,-1
 718 899 l 1,11,-1
 718 833 l 2,12,13
 718 507.354 718 507.354 609 231 c 0,14,15
 513.294 -12 513.294 -12 43 -29 c 9,0,-1
EndSplineSet
EndChar
StartChar: afii10078
Encoding: 1084 1084 216
Width: 1674
Flags: HW
HStem: 0 21G<172 530 1144 1501> 1100 20G<172 584 1088 1501>
VStem: 172 358<0 635> 1144 357<0 1120>
Fore
172 1120 m 1,0,-1
 584 1120 l 1,1,-1
 836 560 l 1,2,-1
 1088 1120 l 1,3,-1
 1501 1120 l 1,4,-1
 1501 0 l 1,5,-1
 1144 0 l 1,6,-1
 1144 635 l 1,7,-1
 955 215 l 1,8,-1
 720 215 l 1,9,-1
 530 635 l 1,10,-1
 530 0 l 1,11,-1
 172 0 l 1,12,-1
 172 1120 l 1,0,-1
EndSplineSet
EndChar
StartChar: afii10079
Encoding: 1085 1085 217
Width: 1415
Flags: HW
HStem: 473 221<530 885> 1100 20G<172 530 885 1243>
VStem: 172 358<0 473 0 1120> 885 358<0 1120>
Fore
172 1120 m 1,0,-1
 530 1120 l 1,1,-1
 530 694 l 1,2,-1
 885 694 l 1,3,-1
 885 1120 l 1,4,-1
 1243 1120 l 1,5,-1
 1243 0 l 1,6,-1
 885 0 l 1,7,-1
 885 473 l 1,8,-1
 530 473 l 1,9,-1
 530 0 l 1,10,-1
 172 0 l 1,11,-1
 172 1120 l 1,0,-1
EndSplineSet
EndChar
StartChar: afii10081
Encoding: 1087 1087 219
Width: 1415
Flags: HW
HStem: 0 21G<172 530 885 1243> 899 221<172 885>
VStem: 172 358<0 899> 885 358<0 1120>
Fore
1243 1120 m 17,0,-1
 1243 0 l 1,1,-1
 885 0 l 1,2,-1
 885 899 l 1,3,-1
 530 899 l 1,4,-1
 530 0 l 1,5,-1
 172 0 l 1,6,-1
 172 1120 l 9,7,-1
 1243 1120 l 17,0,-1
EndSplineSet
EndChar
StartChar: afii10084
Encoding: 1090 1090 222
Width: 1187
Flags: HW
HStem: 0 21G<415 772> 899 221<8 415 8 1178>
VStem: 415 357<0 899>
Fore
8 1120 m 1,0,-1
 1178 1120 l 1,1,-1
 1178 899 l 1,2,-1
 772 899 l 1,3,-1
 772 0 l 1,4,-1
 415 0 l 1,5,-1
 415 899 l 1,6,-1
 8 899 l 1,7,-1
 8 1120 l 1,0,-1
EndSplineSet
EndChar
StartChar: afii10086
Encoding: 1092 1092 224
Width: 1874
Flags: HW
HStem: -29 244<504 586 1288 1370> 907 240<494 586 1288 1380> 1473 20G<791 1083>
VStem: 90 293<533 599> 791 292<-426 158 561 599 952 1493> 1491 293<533 599>
Fore
383 561 m 0,0,1
 383 399 383 399 437 307 c 128,-1,2
 491 215 491 215 586 215 c 128,-1,3
 681 215 681 215 736 307 c 128,-1,4
 791 399 791 399 791 561 c 128,-1,5
 791 723 791 723 736 815 c 128,-1,6
 681 907 681 907 586 907 c 128,-1,7
 491 907 491 907 437 815 c 128,-1,8
 383 723 383 723 383 561 c 0,0,1
1083 -426 m 9,9,-1
 791 -426 l 17,10,-1
 791 158 l 1,11,12
 737 64 737 64 666 18 c 0,13,14
 594 -29 594 -29 504 -29 c 0,15,16
 305 -29 305 -29 198 123 c 0,17,18
 90 275 90 275 90 559 c 0,19,20
 90 839 90 839 196 993 c 128,-1,21
 302 1147 302 1147 494 1147 c 0,22,23
 595 1147 595 1147 670 1098 c 0,24,25
 744 1049 744 1049 791 952 c 1,26,-1
 791 1493 l 1,27,-1
 1083 1493 l 1,28,-1
 1083 952 l 1,29,30
 1129 1049 1129 1049 1204 1098 c 128,-1,31
 1279 1147 1279 1147 1380 1147 c 0,32,33
 1572 1147 1572 1147 1678 993 c 128,-1,34
 1784 839 1784 839 1784 559 c 0,35,36
 1784 275 1784 275 1676 123 c 0,37,38
 1569 -29 1569 -29 1370 -29 c 0,39,40
 1280 -29 1280 -29 1208 18 c 0,41,42
 1137 64 1137 64 1083 158 c 1,43,-1
 1083 -426 l 9,9,-1
1491 561 m 0,44,45
 1491 723 1491 723 1437 815 c 128,-1,46
 1383 907 1383 907 1288 907 c 128,-1,47
 1193 907 1193 907 1138 815 c 128,-1,48
 1083 723 1083 723 1083 561 c 128,-1,49
 1083 399 1083 399 1138 307 c 128,-1,50
 1193 215 1193 215 1288 215 c 128,-1,51
 1383 215 1383 215 1437 307 c 128,-1,52
 1491 399 1491 399 1491 561 c 0,44,45
EndSplineSet
EndChar
StartChar: afii10088
Encoding: 1094 1094 226
Width: 1652
Flags: HW
HStem: -426 21G<1243 1601> 0 221<529 1243> 1100 20G<172 530 885 1243>
VStem: 172 358<0 1120> 885 358<221 1120> 1243 358<-426 221>
Fore
1243 -426 m 9,0,-1
 1243 0 l 25,1,-1
 172 0 l 17,2,-1
 172 1120 l 1,3,-1
 530 1120 l 1,4,-1
 530 221 l 1,5,-1
 885 221 l 1,6,-1
 885 1120 l 1,7,-1
 1243 1120 l 1,8,-1
 1243 221 l 1,9,-1
 1601 221 l 1,10,-1
 1601 -426 l 1,11,-1
 1243 -426 l 9,0,-1
EndSplineSet
EndChar
StartChar: afii10089
Encoding: 1095 1095 227
Width: 1406
Flags: HW
HStem: 0 21G<816 1174> 473 221<448 816> 1100 20G<132 490 816 1174>
VStem: 132 358<865.906 1120> 816 358<0 473 0 1120>
Fore
816 0 m 9,0,-1
 1174 0 l 17,1,-1
 1174 1120 l 1,2,-1
 816 1120 l 1,3,-1
 816 694 l 17,4,-1
 624 694 l 2,5,6
 588 694 588 694 559 708 c 0,7,8
 529 723 529 723 513 748 c 0,9,10
 501.393 765.857 501.393 765.857 496 809 c 0,11,12
 490 857 490 857 490 961 c 2,13,-1
 490 1036 l 1,14,-1
 490 1120 l 1,15,-1
 132 1120 l 1,16,-1
 132 824 l 2,17,18
 132 650 132 650 213 564 c 0,19,20
 298 473 298 473 448 473 c 2,21,-1
 816 473 l 9,22,-1
 816 0 l 9,0,-1
EndSplineSet
EndChar
StartChar: afii10090
Encoding: 1096 1096 228
Width: 1968
Flags: HW
HStem: 0 221<527 1783> 1100 20G<172 528 1427 1783>
VStem: 172 356<0 1120> 800 355<221 1061> 1427 356<221 1120>
Fore
1155 221 m 9,0,-1
 1427 221 l 1,1,-1
 1427 1120 l 1,2,-1
 1783 1120 l 1,3,-1
 1783 0 l 1,4,-1
 172 0 l 1,5,-1
 172 1120 l 1,6,-1
 528 1120 l 1,7,-1
 528 221 l 1,8,-1
 800 221 l 1,9,-1
 800 1061 l 1,10,-1
 1155 1061 l 1,11,-1
 1155 221 l 9,0,-1
EndSplineSet
EndChar
StartChar: afii10091
Encoding: 1097 1097 229
Width: 2192
Flags: HW
HStem: -426 21G<1783 2142> 0 221<527 1783> 1100 20G<172 528 1427 1783>
VStem: 172 356<0 1120> 800 355<221 1061> 1427 356<221 1120> 1783 359<-426 221>
Fore
1427 1120 m 9,0,-1
 1783 1120 l 25,1,-1
 1783 221 l 17,2,-1
 2142 221 l 1,3,-1
 2142 -426 l 1,4,-1
 1783 -426 l 9,5,-1
 1783 0 l 17,6,-1
 172 0 l 1,7,-1
 172 1120 l 1,8,-1
 528 1120 l 1,9,-1
 528 221 l 1,10,-1
 800 221 l 1,11,-1
 800 1061 l 1,12,-1
 1155 1061 l 1,13,-1
 1155 221 l 9,14,-1
 1427 221 l 1,15,-1
 1427 1120 l 9,0,-1
EndSplineSet
EndChar
StartChar: afii10092
Encoding: 1098 1098 230
Width: 1539
Flags: HW
HStem: 0 21G<474 985> 899 221<40 474>
VStem: 474 358<0 474 0 1120> 1122 335<335 369>
Fore
963 224 m 2,0,1
 1042 224 1042 224 1082 256 c 0,2,3
 1122 287 1122 287 1122 350 c 0,4,5
 1122 409 1122 409 1082 442 c 0,6,7
 1043 474 1043 474 963 474 c 2,8,-1
 832 474 l 1,9,-1
 832 224 l 1,10,-1
 963 224 l 2,0,1
474 0 m 1,11,-1
 474 899 l 25,12,-1
 40 899 l 17,13,-1
 40 1120 l 1,14,-1
 832 1120 l 1,15,-1
 832 695 l 1,16,-1
 985 695 l 2,17,18
 1210 695 1210 695 1340 607 c 0,19,20
 1457 528 1457 528 1457 346 c 24,21,22
 1457 167 1457 167 1340 88 c 0,23,24
 1210 0 1210 0 985 0 c 2,25,-1
 474 0 l 1,11,-1
EndSplineSet
EndChar
StartChar: afii10094
Encoding: 1100 1100 232
Width: 1245
Flags: HW
HStem: 0 21G<172 683> 1100 20G<172 530>
VStem: 172 358<0 474 0 1120> 820 335<335 369>
Fore
661 224 m 2,0,1
 740 224 740 224 780 256 c 0,2,3
 820 287 820 287 820 350 c 0,4,5
 820 409 820 409 780 442 c 0,6,7
 741 474 741 474 661 474 c 2,8,-1
 530 474 l 1,9,-1
 530 224 l 1,10,-1
 661 224 l 2,0,1
1155 346 m 24,11,12
 1155 167 1155 167 1038 88 c 0,13,14
 910 0 910 0 683 0 c 2,15,-1
 172 0 l 1,16,-1
 172 1120 l 1,17,-1
 530 1120 l 1,18,-1
 530 695 l 1,19,-1
 683 695 l 2,20,21
 908 695 908 695 1038 607 c 0,22,23
 1155 528 1155 528 1155 346 c 24,11,12
EndSplineSet
EndChar
StartChar: afii10095
Encoding: 1101 1101 233
Width: 1320
Flags: HW
HStem: -29 238<521 568> 449 220<218 840> 909 238<521 568>
Fore
138 40 m 9,0,0
 138 303 l 17,0,0
 221 265 221 265 301 242 c 0,18,19
 415.891 209 415.891 209 533 209 c 0,16,17
 673.062 209 673.062 209 751 272 c 0,14,15
 829.007 335 829.007 335 840 449 c 1,12,13
 218 450 l 9,11,-1
 218 670 l 17,10,-1
 840 669 l 1,9,-1
 829.004 782 829.004 782 751 846 c 0,7,8
 675.287 909 675.287 909 533 909 c 0,5,6
 419.55 909 419.55 909 301 876 c 0,3,4
 238.75 858.163 238.75 858.163 218 848 c 1,1,2
 218 1101 l 1,0,-1
 218.022 1103.01 218.022 1103.01 312 1122 c 0,35,36
 435.75 1147 435.75 1147 566 1147 c 0,33,34
 870.021 1147 870.021 1147 1039 992 c 0,31,32
 1207 837.917 1207 837.917 1207 559 c 24,29,30
 1207 280 1207 280 1039 126 c 0,27,28
 870 -29 870 -29 566 -29 c 0,25,26
 435.087 -29 435.087 -29 312 -4 c 0,23,24
 205.38 17.6553 205.38 17.6553 138 40 c 9,0,0
139 40 m 1,0,0
EndSplineSet
EndChar
StartChar: afii10096
Encoding: 1102 1102 234
Width: 1881
Flags: HW
HStem: -29 256<1176 1197> 891 256<1176 1197>
VStem: 172 358<0 473 0 1120> 1417 373<559 596>
Fore
563 473 m 1,0,-1
 530 473 l 1,1,-1
 530 0 l 1,2,-1
 172 0 l 1,3,-1
 172 1120 l 1,4,-1
 530 1120 l 1,5,-1
 530 694 l 1,6,-1
 570 694 l 1,7,8
 601 875 601 875 722 991 c 0,9,10
 886 1147 886 1147 1176 1147 c 0,11,12
 1465 1147 1465 1147 1628 991 c 0,13,14
 1790 835 1790 835 1790 559 c 128,-1,15
 1790 283 1790 283 1628 127 c 0,16,17
 1465 -29 1465 -29 1176 -29 c 0,18,19
 886 -29 886 -29 722 127 c 0,20,21
 585 258 585 258 563 473 c 1,0,-1
1176 891 m 0,22,23
 1057 891 1057 891 994 806 c 0,24,25
 932 720 932 720 932 559 c 128,-1,26
 932 398 932 398 994 312 c 0,27,28
 1057 227 1057 227 1176 227 c 0,29,30
 1293 227 1293 227 1355 312 c 0,31,32
 1417 398 1417 398 1417 559 c 128,-1,33
 1417 720 1417 720 1355 806 c 0,34,35
 1293 891 1293 891 1176 891 c 0,22,23
EndSplineSet
EndChar
StartChar: afii10097
Encoding: 1103 1103 235
Width: 1315
Flags: HW
HStem: 0 21G<43 406 788 1146> 409 221<709 788> 901 219<651 788>
VStem: 195 344<767 811> 788 358<0 1120>
Fore
709 630 m 2,0,-1
 788 630 l 1,1,-1
 788 901 l 1,2,-1
 709 901 l 2,3,4
 618 901 618 901 579 871 c 0,5,6
 539 839 539 839 539 767 c 0,7,8
 539 694 539 694 579 662 c 0,9,10
 618 630 618 630 709 630 c 2,0,-1
788 409 m 1,11,-1
 751 409 l 2,12,13
 676 409 676 409 631 378 c 0,14,15
 588.05 349.033 588.05 349.033 551 278 c 2,16,-1
 406 0 l 1,17,-1
 43 0 l 1,18,-1
 210 318 l 2,19,20
 260.882 414.889 260.882 414.889 311 462 c 0,21,22
 361 510 361 510 424 524 c 1,23,24
 309 557 309 557 252 628 c 0,25,26
 195 700 195 700 195 811 c 0,27,28
 195 971 195 971 305 1046 c 0,29,30
 415 1120 415 1120 651 1120 c 2,31,-1
 1146 1120 l 1,32,-1
 1146 0 l 1,33,-1
 788 0 l 1,34,-1
 788 409 l 1,11,-1
EndSplineSet
EndChar
StartChar: afii10099
Encoding: 1106 1106 238
Width: 1458
Flags: HW
HStem: 0 21G<172 530> 794 270<770 903> 1237 205<18 172 530 856> 1536 20G<172 530>
VStem: 172 358<0 503 0 1237 1442 1556> 938 360<20 535>
Fore
1298 20 m 18,0,1
 1298 -205 1298 -205 1190 -324 c 0,2,3
 1082 -442 1082 -442 877 -442 c 2,4,-1
 698 -442 l 1,5,-1
 698 -207 l 1,6,-1
 760 -207 l 2,7,8
 862 -207 862 -207 900 -161 c 128,-1,9
 938 -115 938 -115 938 20 c 2,10,-1
 938 111 l 1,11,-1
 938 437 l 2,12,13
 938 584 938 584 932 639 c 0,14,15
 925 694 925 694 909 720 c 0,16,17
 888 755 888 755 852 774 c 0,18,19
 816 794 816 794 770 794 c 0,20,21
 658 794 658 794 594 708 c 0,22,23
 530 621 530 621 530 468 c 2,24,-1
 530 0 l 1,25,-1
 172 0 l 1,26,-1
 172 1237 l 1,27,-1
 18 1237 l 1,28,-1
 18 1442 l 1,29,-1
 172 1442 l 1,30,-1
 172 1556 l 1,31,-1
 530 1556 l 1,32,-1
 530 1442 l 1,33,-1
 856 1442 l 1,34,-1
 856 1237 l 1,35,-1
 530 1237 l 9,36,-1
 530 873 l 17,37,38
 611 971 611 971 702 1018 c 0,39,40
 793 1064 793 1064 903 1064 c 0,41,42
 1097 1064 1097 1064 1198 945 c 0,43,44
 1298 826 1298 826 1298 599 c 10,45,-1
 1298 20 l 18,0,1
EndSplineSet
EndChar
StartChar: afii10101
Encoding: 1108 1108 240
Width: 1320
Flags: HW
Fore
1157 40 m 9,0,0
 1157 303 l 17,0,0
 1074 265 1074 265 994 242 c 0,18,19
 879.109 209 879.109 209 762 209 c 0,16,17
 621.938 209 621.938 209 544 272 c 0,14,15
 465.993 335 465.993 335 455 449 c 1,12,13
 1077 450 l 9,11,-1
 1077 670 l 17,10,-1
 455 669 l 1,9,-1
 465.996 782 465.996 782 544 846 c 0,7,8
 619.713 909 619.713 909 762 909 c 0,5,6
 875.45 909 875.45 909 994 876 c 0,3,4
 1056.25 858.163 1056.25 858.163 1077 848 c 1,1,2
 1077 1101 l 1,0,-1
 1076.98 1103.01 1076.98 1103.01 983 1122 c 0,35,36
 859.25 1147 859.25 1147 729 1147 c 0,33,34
 424.979 1147 424.979 1147 256 992 c 0,31,32
 88 837.917 88 837.917 88 559 c 24,29,30
 88 280 88 280 256 126 c 0,27,28
 425 -29 425 -29 729 -29 c 0,25,26
 859.913 -29 859.913 -29 983 -4 c 0,23,24
 1089.62 17.6553 1089.62 17.6553 1157 40 c 9,0,0
1156 40 m 1,0,0
EndSplineSet
EndChar
StartChar: afii10106
Encoding: 1113 1113 245
Width: 1965
Flags: HW
HStem: 0 21G<882 1393> 898 222<360 882>
VStem: 360 358<797.004 898> 882 358<0 474 0 1120> 1530 335<338 356>
Fore
1371 224 m 2,0,1
 1450 224 1450 224 1490 256 c 0,2,3
 1530 287 1530 287 1530 350 c 0,4,5
 1530 409 1530 409 1490 442 c 0,6,7
 1451 474 1451 474 1371 474 c 2,8,-1
 1240 474 l 1,9,-1
 1240 224 l 1,10,-1
 1371 224 l 2,0,1
1393 0 m 10,11,-1
 882 0 l 17,12,-1
 882 898 l 1,13,-1
 718 898 l 1,14,-1
 718 833 l 2,15,16
 718 507.354 718 507.354 609 231 c 0,17,18
 513.294 -12 513.294 -12 43 -29 c 9,19,-1
 43 227 l 17,20,21
 241 261 241 261 290 380 c 0,22,23
 360 550 360 550 360 908 c 2,24,-1
 360 1120 l 1,25,-1
 1240 1120 l 1,26,-1
 1240 695 l 1,27,-1
 1393 695 l 2,28,29
 1618 695 1618 695 1748 607 c 0,30,31
 1865 528 1865 528 1865 346 c 24,32,33
 1865 167 1865 167 1748 88 c 0,34,35
 1620 0 1620 0 1393 0 c 10,11,-1
EndSplineSet
EndChar
StartChar: afii10107
Encoding: 1114 1114 246
Width: 1958
Flags: HW
HStem: 473 221<530 885 1243 1398> 1100 20G<172 530 885 1243>
VStem: 172 358<0 473 0 1120> 885 358<0 474 694 1120> 1533 335<335 369>
Fore
1374 224 m 2,0,1
 1453 224 1453 224 1493 256 c 0,2,3
 1533 287 1533 287 1533 350 c 0,4,5
 1533 409 1533 409 1493 442 c 0,6,7
 1454 474 1454 474 1374 474 c 2,8,-1
 1243 474 l 1,9,-1
 1243 224 l 1,10,-1
 1374 224 l 2,0,1
1396 0 m 10,11,-1
 885 0 l 17,12,-1
 885 473 l 1,13,-1
 530 473 l 1,14,-1
 530 0 l 1,15,-1
 172 0 l 1,16,-1
 172 1120 l 1,17,-1
 530 1120 l 1,18,-1
 530 694 l 1,19,-1
 885 694 l 1,20,-1
 885 1120 l 1,21,-1
 1243 1120 l 1,22,-1
 1243 695 l 1,23,-1
 1396 695 l 2,24,25
 1621 695 1621 695 1751 607 c 0,26,27
 1868 528 1868 528 1868 346 c 24,28,29
 1868 167 1868 167 1751 88 c 0,30,31
 1623 0 1623 0 1396 0 c 10,11,-1
EndSplineSet
EndChar
StartChar: afii10108
Encoding: 1115 1115 247
Width: 1458
Flags: HW
HStem: 0 21G<172 530 938 1298> 794 270<770 903> 1237 205<18 172 530 856> 1536 20G<172 530>
VStem: 172 358<0 497 0 1237 1442 1556> 938 360<0 599>
Fore
530 873 m 17,0,1
 611 971 611 971 702 1018 c 0,2,3
 793 1064 793 1064 903 1064 c 0,4,5
 1097 1064 1097 1064 1198 945 c 0,6,7
 1298 826 1298 826 1298 599 c 2,8,-1
 1298 0 l 1,9,-1
 938 0 l 1,10,-1
 938 111 l 1,11,-1
 938 437 l 2,12,13
 938 584 938 584 932 639 c 0,14,15
 925 694 925 694 909 720 c 0,16,17
 888 755 888 755 852 774 c 0,18,19
 816 794 816 794 770 794 c 0,20,21
 658 794 658 794 594 708 c 0,22,23
 530 621 530 621 530 468 c 2,24,-1
 530 0 l 1,25,-1
 172 0 l 1,26,-1
 172 1237 l 1,27,-1
 18 1237 l 1,28,-1
 18 1442 l 1,29,-1
 172 1442 l 1,30,-1
 172 1556 l 1,31,-1
 530 1556 l 1,32,-1
 530 1442 l 1,33,-1
 856 1442 l 1,34,-1
 856 1237 l 1,35,-1
 530 1237 l 9,36,-1
 530 873 l 17,0,1
EndSplineSet
EndChar
StartChar: afii10193
Encoding: 1119 1119 251
Width: 1415
Flags: HW
HStem: -20 20G<172 528> 1100 20G<172 530 885 1243>
VStem: 172 358<0 1120> 528 358<-426 0> 885 358<221 1120>
Fore
886 -426 m 17,0,-1
 528 -426 l 9,1,-1
 528 0 l 25,2,-1
 172 0 l 1,3,-1
 172 1120 l 1,4,-1
 530 1120 l 1,5,-1
 530 221 l 1,6,-1
 885 221 l 1,7,-1
 885 1120 l 1,8,-1
 1243 1120 l 1,9,-1
 1243 0 l 1,10,-1
 886 0 l 25,11,-1
 886 -426 l 17,0,-1
EndSplineSet
EndChar
StartChar: uni2010
Encoding: 8208 8208 237
Width: 850
Flags: W
Fore
111 735 m 1,0,-1
 739 735 l 1,1,-1
 739 444 l 1,2,-1
 111 444 l 1,3,-1
 111 735 l 1,0,-1
EndSplineSet
KernsSLIF: 356 -301 0 0 221 -301 0 0 376 -301 0 0 89 -301 0 0 88 -167 0 0 87 -92 0 0 86 -149 0 0 84 -301 0 0
EndChar
StartChar: figuredash
Encoding: 8210 8210 239
Width: 1024
Flags: W
Fore
0 690 m 1,0,-1
 1024 690 l 1,1,-1
 1024 432 l 1,2,-1
 0 432 l 1,3,-1
 0 690 l 1,0,-1
EndSplineSet
EndChar
StartChar: endash
Encoding: 8211 8211 178
Width: 1024
Flags: W
Fore
0 690 m 1,0,-1
 1024 690 l 1,1,-1
 1024 432 l 1,2,-1
 0 432 l 1,3,-1
 0 690 l 1,0,-1
EndSplineSet
EndChar
StartChar: emdash
Encoding: 8212 8212 179
Width: 2048
Flags: W
Fore
0 690 m 1,0,-1
 2048 690 l 1,1,-1
 2048 432 l 1,2,-1
 0 432 l 1,3,-1
 0 690 l 1,0,-1
EndSplineSet
EndChar
StartChar: afii00208
Encoding: 8213 8213 180
Width: 2048
Flags: W
Fore
0 690 m 1,0,-1
 2048 690 l 1,1,-1
 2048 432 l 1,2,-1
 0 432 l 1,3,-1
 0 690 l 1,0,-1
EndSplineSet
EndChar
StartChar: quoteleft
Encoding: 8216 8216 182
Width: 778
Flags: W
Fore
551 856 m 1,0,-1
 211 856 l 1,1,-1
 211 1141 l 1,2,-1
 438 1493 l 1,3,-1
 651 1493 l 1,4,-1
 551 1141 l 1,5,-1
 551 856 l 1,0,-1
EndSplineSet
KernsSLIF: 221 75 0 0 193 -235 0 0 194 -235 0 0 376 75 0 0 195 -235 0 0 192 -235 0 0 198 -264 0 0 196 -235 0 0 89 75 0 0 86 38 0 0 74 -92 0 0 65 -235 0 0
EndChar
StartChar: quoteright
Encoding: 8217 8217 183
Width: 778
Flags: W
Fore
229 1493 m 1,0,-1
 569 1493 l 1,1,-1
 569 1208 l 1,2,-1
 342 856 l 1,3,-1
 129 856 l 1,4,-1
 229 1208 l 1,5,-1
 229 1493 l 1,0,-1
EndSplineSet
EndChar
StartChar: quotesinglbase
Encoding: 8218 8218 196
Width: 778
Flags: W
Fore
248 387 m 1,0,-1
 588 387 l 1,1,-1
 588 102 l 1,2,-1
 358 -250 l 1,3,-1
 147 -250 l 1,4,-1
 248 102 l 1,5,-1
 248 387 l 1,0,-1
EndSplineSet
KernsSLIF: 356 -415 0 0 221 -358 0 0 376 -358 0 0 89 -358 0 0 87 -215 0 0 86 -282 0 0 84 -415 0 0
EndChar
StartChar: quotedblleft
Encoding: 8220 8220 180
Width: 1346
Flags: W
Fore
1057 856 m 1,0,-1
 717 856 l 1,1,-1
 717 1139 l 1,2,-1
 944 1493 l 1,3,-1
 1157 1493 l 1,4,-1
 1057 1139 l 1,5,-1
 1057 856 l 1,0,-1
551 856 m 1,6,-1
 211 856 l 1,7,-1
 211 1141 l 1,8,-1
 438 1493 l 1,9,-1
 651 1493 l 1,10,-1
 551 1141 l 1,11,-1
 551 856 l 1,6,-1
EndSplineSet
KernsSLIF: 221 38 0 0 193 -264 0 0 194 -264 0 0 376 38 0 0 195 -264 0 0 192 -264 0 0 198 -301 0 0 196 -264 0 0 89 38 0 0 74 -92 0 0 65 -264 0 0
EndChar
StartChar: quotedblright
Encoding: 8221 8221 181
Width: 1346
Flags: W
Fore
289 1493 m 1,0,-1
 629 1493 l 1,1,-1
 629 1208 l 1,2,-1
 401 856 l 1,3,-1
 188 856 l 1,4,-1
 289 1208 l 1,5,-1
 289 1493 l 1,0,-1
795 1493 m 1,6,-1
 1135 1493 l 1,7,-1
 1135 1206 l 1,8,-1
 907 856 l 1,9,-1
 694 856 l 1,10,-1
 795 1206 l 1,11,-1
 795 1493 l 1,6,-1
EndSplineSet
EndChar
StartChar: quotedblbase
Encoding: 8222 8222 197
Width: 1346
Flags: W
Fore
248 387 m 1,0,-1
 588 387 l 1,1,-1
 588 102 l 1,2,-1
 358 -250 l 1,3,-1
 147 -250 l 1,4,-1
 248 102 l 1,5,-1
 248 387 l 1,0,-1
754 387 m 1,6,-1
 1094 387 l 1,7,-1
 1094 100 l 1,8,-1
 866 -250 l 1,9,-1
 653 -250 l 1,10,-1
 754 100 l 1,11,-1
 754 387 l 1,6,-1
EndSplineSet
KernsSLIF: 356 -415 0 0 221 -358 0 0 376 -358 0 0 89 -358 0 0 87 -215 0 0 86 -282 0 0 84 -415 0 0
EndChar
StartChar: dagger
Encoding: 8224 8224 130
Width: 1024
Flags: W
Fore
342 1493 m 1,0,-1
 672 1493 l 1,1,-1
 672 1112 l 1,2,-1
 963 1112 l 1,3,-1
 963 874 l 1,4,-1
 672 874 l 1,5,-1
 672 -197 l 1,6,-1
 342 -197 l 1,7,-1
 342 874 l 1,8,-1
 53 874 l 1,9,-1
 53 1112 l 1,10,-1
 342 1112 l 1,11,-1
 342 1493 l 1,0,-1
EndSplineSet
EndChar
StartChar: daggerdbl
Encoding: 8225 8225 194
Width: 1024
Flags: W
Fore
342 1493 m 1,0,-1
 672 1493 l 1,1,-1
 672 1112 l 1,2,-1
 963 1112 l 1,3,-1
 963 874 l 1,4,-1
 672 874 l 1,5,-1
 672 422 l 1,6,-1
 963 422 l 1,7,-1
 963 184 l 1,8,-1
 672 184 l 1,9,-1
 672 -197 l 1,10,-1
 342 -197 l 1,11,-1
 342 184 l 1,12,-1
 51 184 l 1,13,-1
 51 422 l 1,14,-1
 342 422 l 1,15,-1
 342 874 l 1,16,-1
 53 874 l 1,17,-1
 53 1112 l 1,18,-1
 342 1112 l 1,19,-1
 342 1493 l 1,0,-1
EndSplineSet
EndChar
StartChar: bullet
Encoding: 8226 8226 135
Width: 1309
Flags: W
Fore
295 762 m 0,0,1
 295 836 295 836 321.5 901 c 128,-1,2
 348 966 348 966 399 1016 c 0,3,4
 452 1067 452 1067 517 1093.5 c 128,-1,5
 582 1120 582 1120 655 1120 c 0,6,7
 728 1120 728 1120 793.5 1093 c 128,-1,8
 859 1066 859 1066 909 1016 c 0,9,10
 961 964 961 964 987.5 899.5 c 128,-1,11
 1014 835 1014 835 1014 762 c 0,12,13
 1014 688 1014 688 987 622.5 c 128,-1,14
 960 557 960 557 909 506 c 0,15,16
 858 455 858 455 792.5 428 c 128,-1,17
 727 401 727 401 653 401 c 0,18,19
 580 401 580 401 515 428 c 128,-1,20
 450 455 450 455 399 506 c 0,21,22
 349 557 349 557 322 622.5 c 128,-1,23
 295 688 295 688 295 762 c 0,0,1
EndSplineSet
EndChar
StartChar: ellipsis
Encoding: 8230 8230 171
Width: 2048
Flags: W
Fore
1526 387 m 1,0,-1
 1886 387 l 1,1,-1
 1886 0 l 1,2,-1
 1526 0 l 1,3,-1
 1526 387 l 1,0,-1
162 387 m 1,4,-1
 522 387 l 1,5,-1
 522 0 l 1,6,-1
 162 0 l 1,7,-1
 162 387 l 1,4,-1
844 387 m 1,8,-1
 1204 387 l 1,9,-1
 1204 0 l 1,10,-1
 844 0 l 1,11,-1
 844 387 l 1,8,-1
EndSplineSet
Ligature: 0 1 'liga' period period period
EndChar
StartChar: perthousand
Encoding: 8240 8240 198
Width: 2949
Flags: W
Fore
2503 616 m 0,0,1
 2431 616 2431 616 2392 554.5 c 128,-1,2
 2353 493 2353 493 2353 379 c 0,3,4
 2353 264 2353 264 2392 202.5 c 128,-1,5
 2431 141 2431 141 2503 141 c 0,6,7
 2574 141 2574 141 2612 202.5 c 128,-1,8
 2650 264 2650 264 2650 379 c 0,9,10
 2650 493 2650 493 2612 554.5 c 128,-1,11
 2574 616 2574 616 2503 616 c 0,0,1
2503 784 m 0,12,13
 2689 784 2689 784 2795.5 676 c 128,-1,14
 2902 568 2902 568 2902 379 c 0,15,16
 2902 190 2902 190 2795 80.5 c 128,-1,17
 2688 -29 2688 -29 2503 -29 c 0,18,19
 2317 -29 2317 -29 2209 80.5 c 128,-1,20
 2101 190 2101 190 2101 379 c 0,21,22
 2101 567 2101 567 2208.5 675.5 c 128,-1,23
 2316 784 2316 784 2503 784 c 0,12,13
465 1352 m 0,24,25
 393 1352 393 1352 354 1290 c 128,-1,26
 315 1228 315 1228 315 1114 c 0,27,28
 315 999 315 999 354 936.5 c 128,-1,29
 393 874 393 874 465 874 c 0,30,31
 537 874 537 874 575.5 936.5 c 128,-1,32
 614 999 614 999 614 1114 c 0,33,34
 614 1228 614 1228 575 1290 c 128,-1,35
 536 1352 536 1352 465 1352 c 0,24,25
465 1520 m 0,36,37
 651 1520 651 1520 757.5 1411.5 c 128,-1,38
 864 1303 864 1303 864 1114 c 0,39,40
 864 925 864 925 757.5 816 c 128,-1,41
 651 707 651 707 465 707 c 0,42,43
 279 707 279 707 172.5 816 c 128,-1,44
 66 925 66 925 66 1114 c 0,45,46
 66 1303 66 1303 172.5 1411.5 c 128,-1,47
 279 1520 279 1520 465 1520 c 0,36,37
670 -29 m 1,48,-1
 449 -29 l 1,49,-1
 1382 1520 l 1,50,-1
 1604 1520 l 1,51,-1
 670 -29 l 1,48,-1
1587 784 m 0,52,53
 1773 784 1773 784 1880 676 c 128,-1,54
 1987 568 1987 568 1987 379 c 0,55,56
 1987 190 1987 190 1880 80.5 c 128,-1,57
 1773 -29 1773 -29 1587 -29 c 0,58,59
 1401 -29 1401 -29 1293.5 80.5 c 128,-1,60
 1186 190 1186 190 1186 379 c 0,61,62
 1186 567 1186 567 1293.5 675.5 c 128,-1,63
 1401 784 1401 784 1587 784 c 0,52,53
1587 616 m 0,64,65
 1516 616 1516 616 1477 554.5 c 128,-1,66
 1438 493 1438 493 1438 379 c 0,67,68
 1438 264 1438 264 1476.5 202.5 c 128,-1,69
 1515 141 1515 141 1587 141 c 0,70,71
 1659 141 1659 141 1697 202.5 c 128,-1,72
 1735 264 1735 264 1735 379 c 0,73,74
 1735 493 1735 493 1696.5 554.5 c 128,-1,75
 1658 616 1658 616 1587 616 c 0,64,65
EndSplineSet
EndChar
StartChar: guilsinglleft
Encoding: 8249 8249 190
Width: 844
Flags: W
Fore
651 1063 m 1,0,-1
 651 821 l 1,1,-1
 358 600 l 1,2,-1
 651 379 l 1,3,-1
 651 137 l 1,4,-1
 158 506 l 1,5,-1
 158 692 l 1,6,-1
 651 1063 l 1,0,-1
EndSplineSet
EndChar
StartChar: guilsinglright
Encoding: 8250 8250 191
Width: 844
Flags: W
Fore
193 1063 m 1,0,-1
 686 692 l 1,1,-1
 686 506 l 1,2,-1
 193 137 l 1,3,-1
 193 379 l 1,4,-1
 485 600 l 1,5,-1
 193 821 l 1,6,-1
 193 1063 l 1,0,-1
EndSplineSet
EndChar
StartChar: Euro
Encoding: 8364 8364 258
Width: 1425
Flags: W
Fore
1288 82 m 1,0,1
 1193 27 1193 27 1089.5 -1 c 128,-1,2
 986 -29 986 -29 874 -29 c 0,3,4
 612 -29 612 -29 432.5 101.5 c 128,-1,5
 253 232 253 232 178 477 c 1,6,-1
 -39 477 l 1,7,-1
 49 672 l 1,8,-1
 147 672 l 1,9,10
 146 686 146 686 145.5 701.5 c 128,-1,11
 145 717 145 717 145 745 c 0,12,13
 145 774 145 774 145.5 790 c 128,-1,14
 146 806 146 806 147 821 c 1,15,-1
 -39 821 l 1,16,-1
 49 1016 l 1,17,-1
 178 1016 l 1,18,19
 255 1262 255 1262 433.5 1391 c 128,-1,20
 612 1520 612 1520 874 1520 c 0,21,22
 986 1520 986 1520 1089.5 1492 c 128,-1,23
 1193 1464 1193 1464 1288 1409 c 1,24,-1
 1288 1100 l 1,25,26
 1207 1178 1207 1178 1115 1217.5 c 128,-1,27
 1023 1257 1023 1257 924 1257 c 0,28,29
 797 1257 797 1257 707.5 1195.5 c 128,-1,30
 618 1134 618 1134 573 1016 c 1,31,-1
 1112 1016 l 1,32,-1
 1026 821 l 1,33,-1
 533 821 l 1,34,35
 531 805 531 805 530.5 787 c 128,-1,36
 530 769 530 769 530 733 c 0,37,38
 530 720 530 720 530.5 704.5 c 128,-1,39
 531 689 531 689 532 672 c 1,40,-1
 961 672 l 1,41,-1
 872 477 l 1,42,-1
 573 477 l 1,43,44
 623 355 623 355 710.5 294 c 128,-1,45
 798 233 798 233 924 233 c 0,46,47
 1023 233 1023 233 1113.5 272.5 c 128,-1,48
 1204 312 1204 312 1288 391 c 1,49,-1
 1288 82 l 1,0,1
EndSplineSet
EndChar
StartChar: trademark
Encoding: 8482 8482 140
Width: 2048
Flags: W
Fore
1153 1493 m 1,0,-1
 1272 1266 l 1,1,-1
 1391 1493 l 1,2,-1
 1618 1493 l 1,3,-1
 1618 915 l 1,4,-1
 1448 915 l 1,5,-1
 1448 1352 l 1,6,-1
 1311 1096 l 1,7,-1
 1235 1096 l 1,8,-1
 1098 1352 l 1,9,-1
 1098 915 l 1,10,-1
 926 915 l 1,11,-1
 926 1493 l 1,12,-1
 1153 1493 l 1,0,-1
813 1493 m 1,13,-1
 813 1350 l 1,14,-1
 639 1350 l 1,15,-1
 639 915 l 1,16,-1
 467 915 l 1,17,-1
 467 1350 l 1,18,-1
 295 1350 l 1,19,-1
 295 1493 l 1,20,-1
 813 1493 l 1,13,-1
EndSplineSet
Ligature: 0 1 'liga' T M
EndChar
StartChar: partialdiff
Encoding: 8706 8706 152
Width: 1114
Flags: W
Fore
766 684 m 1,0,1
 787 797 787 797 798 890 c 128,-1,2
 809 983 809 983 809 1040 c 0,3,4
 809 1127 809 1127 779.5 1188 c 128,-1,5
 750 1249 750 1249 711 1249 c 0,6,7
 676 1249 676 1249 579 1156 c 128,-1,8
 482 1063 482 1063 399 1063 c 0,9,10
 351 1063 351 1063 319 1096.5 c 128,-1,11
 287 1130 287 1130 287 1180 c 0,12,13
 287 1249 287 1249 380 1305.5 c 128,-1,14
 473 1362 473 1362 600 1362 c 0,15,16
 810 1362 810 1362 932.5 1201 c 128,-1,17
 1055 1040 1055 1040 1055 760 c 0,18,19
 1055 416 1055 416 892.5 195.5 c 128,-1,20
 730 -25 730 -25 475 -25 c 0,21,22
 293 -25 293 -25 176 91.5 c 128,-1,23
 59 208 59 208 59 391 c 0,24,25
 59 594 59 594 178.5 727 c 128,-1,26
 298 860 298 860 477 860 c 0,27,28
 578 860 578 860 647.5 817.5 c 128,-1,29
 717 775 717 775 766 684 c 1,0,1
698 532 m 0,30,31
 698 646 698 646 661.5 708 c 128,-1,32
 625 770 625 770 557 770 c 0,33,34
 461 770 461 770 396.5 633.5 c 128,-1,35
 332 497 332 497 332 287 c 0,36,37
 332 171 332 171 368.5 111 c 128,-1,38
 405 51 405 51 475 51 c 0,39,40
 572 51 572 51 635 186.5 c 128,-1,41
 698 322 698 322 698 532 c 0,30,31
EndSplineSet
EndChar
StartChar: Delta
Encoding: 8710 8710 168
Width: 1427
Flags: W
Fore
713 1110 m 1,0,-1
 387 256 l 1,1,-1
 1040 256 l 1,2,-1
 713 1110 l 1,0,-1
563 1473 m 1,3,-1
 864 1473 l 1,4,-1
 1427 0 l 1,5,-1
 0 0 l 1,6,-1
 563 1473 l 1,3,-1
EndSplineSet
EndChar
StartChar: product
Encoding: 8719 8719 154
Width: 1612
Flags: W
Fore
150 1473 m 1,0,-1
 1458 1473 l 1,1,-1
 1458 -393 l 1,2,-1
 1114 -393 l 1,3,-1
 1114 1184 l 1,4,-1
 494 1184 l 1,5,-1
 494 -393 l 1,6,-1
 150 -393 l 1,7,-1
 150 1473 l 1,0,-1
EndSplineSet
EndChar
StartChar: summation
Encoding: 8721 8721 153
Width: 1470
Flags: W
Fore
66 1473 m 1,0,-1
 1374 1473 l 1,1,-1
 1374 1208 l 1,2,-1
 496 1208 l 1,3,-1
 1116 563 l 1,4,-1
 494 -127 l 1,5,-1
 1427 -127 l 1,6,-1
 1427 -393 l 1,7,-1
 41 -393 l 1,8,-1
 41 -221 l 1,9,-1
 739 551 l 1,10,-1
 66 1241 l 1,11,-1
 66 1473 l 1,0,-1
EndSplineSet
EndChar
StartChar: minus
Encoding: 8722 8722 238
Width: 1716
Flags: W
Fore
217 760 m 1,0,-1
 1499 760 l 1,1,-1
 1499 524 l 1,2,-1
 217 524 l 1,3,-1
 217 760 l 1,0,-1
EndSplineSet
EndChar
StartChar: fraction
Encoding: 8725 8725 188
Width: 342
Flags: W
Fore
-184 -29 m 1,0,-1
 -408 -29 l 1,1,-1
 526 1520 l 1,2,-1
 750 1520 l 1,3,-1
 -184 -29 l 1,0,-1
EndSplineSet
EndChar
StartChar: periodcentered
Encoding: 8729 8729 257
Width: 778
Flags: W
Fore
209 905 m 1,0,-1
 569 905 l 1,1,-1
 569 518 l 1,2,-1
 209 518 l 1,3,-1
 209 905 l 1,0,-1
EndSplineSet
EndChar
StartChar: radical
Encoding: 8730 8730 165
Width: 1366
Flags: W
Fore
1155 1714 m 1,0,-1
 1370 1714 l 1,1,-1
 1370 1565 l 1,2,-1
 1274 1565 l 1,3,-1
 684 -41 l 1,4,-1
 565 -41 l 1,5,-1
 258 805 l 1,6,-1
 113 750 l 1,7,-1
 76 879 l 1,8,-1
 436 1006 l 1,9,-1
 659 371 l 1,10,-1
 1155 1714 l 1,0,-1
EndSplineSet
EndChar
StartChar: infinity
Encoding: 8734 8734 146
Width: 1706
Flags: W
Fore
956 561 m 1,0,1
 999 494 999 494 1058 460 c 128,-1,2
 1117 426 1117 426 1190 426 c 0,3,4
 1280 426 1280 426 1336.5 476.5 c 128,-1,5
 1393 527 1393 527 1393 606 c 0,6,7
 1393 683 1393 683 1341.5 733.5 c 128,-1,8
 1290 784 1290 784 1214 784 c 0,9,10
 1142 784 1142 784 1082.5 733.5 c 128,-1,11
 1023 683 1023 683 956 561 c 1,0,1
752 657 m 1,12,13
 709 724 709 724 651 757.5 c 128,-1,14
 593 791 593 791 518 791 c 0,15,16
 428 791 428 791 371.5 741 c 128,-1,17
 315 691 315 691 315 612 c 0,18,19
 315 535 315 535 366 484.5 c 128,-1,20
 417 434 417 434 494 434 c 0,21,22
 565 434 565 434 626 486.5 c 128,-1,23
 687 539 687 539 752 657 c 1,12,13
856 442 m 1,24,25
 788 312 788 312 708.5 249 c 128,-1,26
 629 186 629 186 532 186 c 0,27,28
 393 186 393 186 294 307.5 c 128,-1,29
 195 429 195 429 195 608 c 0,30,31
 195 796 195 796 282.5 913 c 128,-1,32
 370 1030 370 1030 510 1030 c 0,33,34
 600 1030 600 1030 676.5 973.5 c 128,-1,35
 753 917 753 917 852 774 c 1,36,37
 923 906 923 906 1002 969 c 128,-1,38
 1081 1032 1081 1032 1176 1032 c 0,39,40
 1316 1032 1316 1032 1414.5 911 c 128,-1,41
 1513 790 1513 790 1513 610 c 0,42,43
 1513 421 1513 421 1425.5 303.5 c 128,-1,44
 1338 186 1338 186 1198 186 c 0,45,46
 1107 186 1107 186 1032 241 c 128,-1,47
 957 296 957 296 856 442 c 1,24,25
EndSplineSet
EndChar
StartChar: integral
Encoding: 8747 8747 156
Width: 1249
Flags: W
Fore
362 -248 m 0,0,1
 461 -248 461 -248 481 419 c 0,2,3
 484 520 484 520 485 573 c 0,4,5
 502 1096 502 1096 615.5 1326 c 128,-1,6
 729 1556 729 1556 965 1556 c 0,7,8
 1070 1556 1070 1556 1135 1503 c 128,-1,9
 1200 1450 1200 1450 1200 1366 c 0,10,11
 1200 1302 1200 1302 1159 1262.5 c 128,-1,12
 1118 1223 1118 1223 1053 1223 c 0,13,14
 989 1223 989 1223 956.5 1261.5 c 128,-1,15
 924 1300 924 1300 924 1374 c 0,16,17
 924 1412 924 1412 916.5 1423 c 128,-1,18
 909 1434 909 1434 891 1434 c 0,19,20
 790 1434 790 1434 767 767 c 0,21,22
 765 707 765 707 764 676 c 0,23,24
 753 347 753 347 733.5 203.5 c 128,-1,25
 714 60 714 60 676 -41 c 0,26,27
 614 -207 614 -207 516.5 -290 c 128,-1,28
 419 -373 419 -373 287 -373 c 0,29,30
 180 -373 180 -373 115.5 -321 c 128,-1,31
 51 -269 51 -269 51 -182 c 0,32,33
 51 -117 51 -117 93 -78 c 128,-1,34
 135 -39 135 -39 205 -39 c 0,35,36
 265 -39 265 -39 297.5 -75 c 128,-1,37
 330 -111 330 -111 330 -178 c 0,38,39
 330 -190 330 -190 328 -202 c 0,40,41
 328 -204 328 -204 328 -205 c 0,42,43
 328 -229 328 -229 336 -238.5 c 128,-1,44
 344 -248 344 -248 362 -248 c 0,0,1
EndSplineSet
EndChar
StartChar: approxequal
Encoding: 8776 8776 167
Width: 1716
Flags: W
Fore
1499 1059 m 1,0,-1
 1499 815 l 1,1,2
 1393 735 1393 735 1303.5 700.5 c 128,-1,3
 1214 666 1214 666 1118 666 c 0,4,5
 1011 666 1011 666 868 724 c 0,6,7
 854 730 854 730 846 733 c 0,8,9
 839 736 839 736 824 742 c 0,10,11
 669 803 669 803 575 803 c 0,12,13
 487 803 487 803 401 764.5 c 128,-1,14
 315 726 315 726 217 643 c 1,15,-1
 217 887 l 1,16,17
 322 965 322 965 411.5 999.5 c 128,-1,18
 501 1034 501 1034 598 1034 c 0,19,20
 708 1034 708 1034 855 975 c 0,21,22
 865 971 865 971 870 969 c 0,23,24
 878 966 878 966 892 960 c 0,25,26
 1047 899 1047 899 1141 899 c 0,27,28
 1227 899 1227 899 1311.5 936.5 c 128,-1,29
 1396 974 1396 974 1499 1059 c 1,0,-1
1499 641 m 1,30,-1
 1499 397 l 1,31,32
 1393 317 1393 317 1303.5 282.5 c 128,-1,33
 1214 248 1214 248 1118 248 c 0,34,35
 1011 248 1011 248 868 306 c 0,36,37
 854 312 854 312 845 316 c 0,38,39
 839 318 839 318 824 324 c 0,40,41
 669 385 669 385 575 385 c 0,42,43
 487 385 487 385 401 347 c 128,-1,44
 315 309 315 309 217 225 c 1,45,-1
 217 469 l 1,46,47
 324 549 324 549 413 583.5 c 128,-1,48
 502 618 502 618 598 618 c 0,49,50
 705 618 705 618 848 560 c 0,51,52
 863 554 863 554 870 551 c 0,53,54
 878 548 878 548 892 543 c 0,55,56
 1047 481 1047 481 1141 481 c 0,57,58
 1227 481 1227 481 1311.5 518.5 c 128,-1,59
 1396 556 1396 556 1499 641 c 1,30,-1
EndSplineSet
EndChar
StartChar: notequal
Encoding: 8800 8800 143
Width: 1716
Flags: W
Fore
217 987 m 1,0,-1
 1008 987 l 1,1,-1
 1260 1292 l 1,2,-1
 1409 1167 l 1,3,-1
 1264 987 l 1,4,-1
 1499 987 l 1,5,-1
 1499 752 l 1,6,-1
 1081 752 l 1,7,-1
 907 532 l 1,8,-1
 1499 532 l 1,9,-1
 1499 295 l 1,10,-1
 709 295 l 1,11,-1
 457 -10 l 1,12,-1
 307 117 l 1,13,-1
 453 295 l 1,14,-1
 217 295 l 1,15,-1
 217 532 l 1,16,-1
 641 532 l 1,17,-1
 817 752 l 1,18,-1
 217 752 l 1,19,-1
 217 987 l 1,0,-1
EndSplineSet
Ligature: 0 1 'liga' equal uni0338
EndChar
StartChar: lessequal
Encoding: 8804 8804 148
Width: 1716
Flags: W
Fore
1499 238 m 1,0,-1
 1499 0 l 1,1,-1
 217 0 l 1,2,-1
 217 238 l 1,3,-1
 1499 238 l 1,0,-1
1499 948 m 1,4,-1
 602 739 l 1,5,-1
 1499 530 l 1,6,-1
 1499 287 l 1,7,-1
 217 623 l 1,8,-1
 217 858 l 1,9,-1
 1499 1192 l 1,10,-1
 1499 948 l 1,4,-1
EndSplineSet
EndChar
StartChar: greaterequal
Encoding: 8805 8805 149
Width: 1716
Flags: W
Fore
217 238 m 1,0,-1
 1499 238 l 1,1,-1
 1499 0 l 1,2,-1
 217 0 l 1,3,-1
 217 238 l 1,0,-1
217 948 m 1,4,-1
 217 1192 l 1,5,-1
 1499 858 l 1,6,-1
 1499 623 l 1,7,-1
 217 287 l 1,8,-1
 217 530 l 1,9,-1
 1114 739 l 1,10,-1
 217 948 l 1,4,-1
EndSplineSet
EndChar
StartChar: uni2423
Encoding: 9251 9251 150
Width: 1466
Flags: HMW
HStem: -466 237<367 1099>
VStem: 132 235<-229 202> 1099 235<-229 202>
Fore
367 -229 m 1,0,-1
 1099 -229 l 1,1,-1
 1099 202 l 1,2,-1
 1334 202 l 1,3,-1
 1334 -466 l 1,4,-1
 132 -466 l 1,5,-1
 132 202 l 1,6,-1
 367 202 l 1,7,-1
 367 -229 l 1,0,-1
EndSplineSet
EndChar
StartChar: lozenge
Encoding: 9674 9674 185
Width: 1012
Flags: W
Fore
506 1409 m 1,0,-1
 121 592 l 1,1,-1
 506 -233 l 1,2,-1
 891 592 l 1,3,-1
 506 1409 l 1,0,-1
506 1653 m 1,4,-1
 1006 592 l 1,5,-1
 506 -477 l 1,6,-1
 6 592 l 1,7,-1
 506 1653 l 1,4,-1
EndSplineSet
EndChar
StartChar: fi
Encoding: 64257 64257 192
Width: 1518
Flags: W
Fore
985 1556 m 1,0,-1
 1346 1556 l 1,1,-1
 1346 1264 l 1,2,-1
 985 1264 l 1,3,-1
 985 1556 l 1,0,-1
911 1556 m 1,4,-1
 911 1321 l 1,5,-1
 713 1321 l 2,6,7
 638 1321 638 1321 609 1293.5 c 128,-1,8
 580 1266 580 1266 580 1198 c 2,9,-1
 580 1120 l 1,10,-1
 1346 1120 l 1,11,-1
 1346 0 l 1,12,-1
 985 0 l 1,13,-1
 985 864 l 1,14,-1
 580 864 l 1,15,-1
 580 0 l 1,16,-1
 219 0 l 1,17,-1
 219 864 l 1,18,-1
 43 864 l 1,19,-1
 43 1120 l 1,20,-1
 219 1120 l 1,21,-1
 219 1198 l 2,22,23
 219 1381 219 1381 321 1468.5 c 128,-1,24
 423 1556 423 1556 637 1556 c 2,25,-1
 911 1556 l 1,4,-1
EndSplineSet
Ligature: 0 0 'liga' f i
EndChar
StartChar: fl
Encoding: 64258 64258 193
Width: 1518
Flags: W
Fore
635 1556 m 2,0,-1
 1346 1556 l 1,1,-1
 1346 0 l 1,2,-1
 985 0 l 1,3,-1
 985 1321 l 1,4,-1
 711 1321 l 2,5,6
 635 1321 635 1321 605 1293.5 c 128,-1,7
 575 1266 575 1266 575 1198 c 2,8,-1
 575 1120 l 1,9,-1
 856 1120 l 1,10,-1
 856 864 l 1,11,-1
 575 864 l 1,12,-1
 575 0 l 1,13,-1
 217 0 l 1,14,-1
 217 864 l 1,15,-1
 39 864 l 1,16,-1
 39 1120 l 1,17,-1
 217 1120 l 1,18,-1
 217 1198 l 2,19,20
 217 1381 217 1381 319 1468.5 c 128,-1,21
 421 1556 421 1556 635 1556 c 2,0,-1
EndSplineSet
Ligature: 0 0 'liga' f l
EndChar
StartChar: dlLtcaron
Encoding: 65537 -1 194
Width: 1024
Flags: HW
Fore
445 1638 m 1,0,-1
 728 1638 l 1,1,-1
 561 1262 l 1,2,-1
 365 1262 l 1,3,-1
 445 1638 l 1,0,-1
EndSplineSet
EndChar
StartChar: Dieresis
Encoding: 65538 -1 259
Width: 1024
Flags: W
Fore
197 1526 m 1,0,-1
 432 1526 l 1,1,-1
 432 1280 l 1,2,-1
 197 1280 l 1,3,-1
 197 1526 l 1,0,-1
592 1526 m 1,4,-1
 827 1526 l 1,5,-1
 827 1280 l 1,6,-1
 592 1280 l 1,7,-1
 592 1526 l 1,4,-1
EndSplineSet
EndChar
StartChar: Acute
Encoding: 65539 -1 260
Width: 1024
Flags: W
Fore
563 1526 m 1,0,-1
 846 1526 l 1,1,-1
 561 1262 l 1,2,-1
 365 1262 l 1,3,-1
 563 1526 l 1,0,-1
EndSplineSet
EndChar
StartChar: Tilde
Encoding: 65540 -1 261
Width: 1024
Flags: W
Fore
514 1311 m 2,0,-1
 458 1346 l 2,1,2
 455 1348 455 1348 448 1352 c 0,3,4
 403 1378 403 1378 375 1378 c 0,5,6
 343 1378 343 1378 323 1348 c 128,-1,7
 303 1318 303 1318 303 1268 c 2,8,-1
 303 1262 l 1,9,-1
 164 1262 l 1,10,11
 164 1267 164 1267 165 1277 c 128,-1,12
 166 1287 166 1287 166 1292 c 0,13,14
 166 1398 166 1398 219.5 1463 c 128,-1,15
 273 1528 273 1528 360 1528 c 0,16,17
 397 1528 397 1528 434 1515.5 c 128,-1,18
 471 1503 471 1503 510 1479 c 1,19,-1
 569 1440 l 2,20,21
 590 1426 590 1426 609.5 1418.5 c 128,-1,22
 629 1411 629 1411 645 1411 c 0,23,24
 682 1411 682 1411 701.5 1441 c 128,-1,25
 721 1471 721 1471 721 1528 c 1,26,-1
 860 1528 l 1,27,28
 860 1522 860 1522 859 1512 c 128,-1,29
 858 1502 858 1502 858 1497 c 0,30,31
 858 1391 858 1391 804.5 1326.5 c 128,-1,32
 751 1262 751 1262 664 1262 c 0,33,34
 626 1262 626 1262 591 1273 c 128,-1,35
 556 1284 556 1284 514 1311 c 2,0,-1
EndSplineSet
EndChar
StartChar: Grave
Encoding: 65541 -1 262
Width: 1024
Flags: W
Fore
461 1526 m 1,0,-1
 659 1262 l 1,1,-1
 463 1262 l 1,2,-1
 178 1526 l 1,3,-1
 461 1526 l 1,0,-1
EndSplineSet
EndChar
StartChar: Circumflex
Encoding: 65542 -1 263
Width: 1024
Flags: W
Fore
358 1526 m 1,0,-1
 666 1526 l 1,1,-1
 889 1262 l 1,2,-1
 711 1262 l 1,3,-1
 512 1423 l 1,4,-1
 313 1262 l 1,5,-1
 135 1262 l 1,6,-1
 358 1526 l 1,0,-1
EndSplineSet
EndChar
StartChar: Caron
Encoding: 65543 -1 264
Width: 1024
Flags: W
Fore
358 1262 m 1,0,-1
 135 1526 l 1,1,-1
 313 1526 l 1,2,-1
 512 1364 l 1,3,-1
 711 1526 l 1,4,-1
 889 1526 l 1,5,-1
 666 1262 l 1,6,-1
 358 1262 l 1,0,-1
EndSplineSet
EndChar
StartChar: Breve
Encoding: 65544 -1 265
Width: 1024
Flags: W
Fore
176 1526 m 1,0,-1
 319 1526 l 1,1,2
 340 1465 340 1465 388 1435 c 128,-1,3
 436 1405 436 1405 512 1405 c 0,4,5
 588 1405 588 1405 636 1435 c 128,-1,6
 684 1465 684 1465 705 1526 c 1,7,-1
 848 1526 l 1,8,9
 832 1397 832 1397 746 1329.5 c 128,-1,10
 660 1262 660 1262 512 1262 c 0,11,12
 364 1262 364 1262 278 1329.5 c 128,-1,13
 192 1397 192 1397 176 1526 c 1,0,-1
EndSplineSet
EndChar
StartChar: Dotaccent
Encoding: 65545 -1 266
Width: 1024
Flags: W
Fore
375 1526 m 1,0,-1
 649 1526 l 1,1,-1
 649 1280 l 1,2,-1
 375 1280 l 1,3,-1
 375 1526 l 1,0,-1
EndSplineSet
EndChar
StartChar: Hungarumlaut
Encoding: 65546 -1 267
Width: 1024
Flags: HW
Fore
733 1526 m 1,0,-1
 1016 1526 l 1,1,-1
 731 1262 l 1,2,-1
 535 1262 l 1,3,-1
 733 1526 l 1,0,-1
358 1526 m 1,0,-1
 641 1526 l 1,1,-1
 356 1262 l 1,2,-1
 160 1262 l 1,3,-1
 358 1526 l 1,0,-1
EndSplineSet
EndChar
StartChar: Doublegrave
Encoding: 65547 -1 268
Width: 1024
Flags: HW
Fore
291 1526 m 1,0,-1
 8 1526 l 1,1,-1
 293 1262 l 1,2,-1
 489 1262 l 1,3,-1
 291 1526 l 1,0,-1
666 1526 m 1,0,-1
 383 1526 l 1,1,-1
 668 1262 l 1,2,-1
 864 1262 l 1,3,-1
 666 1526 l 1,0,-1
EndSplineSet
EndChar
